<svg width="18" height="18" viewBox="0 0 18 18" fill="none" xmlns="http://www.w3.org/2000/svg">
  <path d="M13.1456 6.27807L8.02088 12.1395C7.99114 12.1735 7.95581 12.2006 7.91693 12.219C7.87805 12.2374 7.83637 12.2469 7.79428 12.2469C7.75218 12.2469 7.7105 12.2374 7.67162 12.219C7.63274 12.2006 7.59741 12.1735 7.56767 12.1395L5.32561 9.57511C5.26551 9.50637 5.23175 9.41314 5.23175 9.31592C5.23175 9.21871 5.26551 9.12548 5.32561 9.05674C5.38571 8.988 5.46723 8.94938 5.55222 8.94938C5.63722 8.94938 5.71873 8.988 5.77883 9.05674L7.79428 11.3624L12.6924 5.7597C12.7525 5.69096 12.834 5.65234 12.919 5.65234C13.004 5.65234 13.0855 5.69096 13.1456 5.7597C13.2057 5.82844 13.2394 5.92167 13.2394 6.01889C13.2394 6.1161 13.2057 6.20933 13.1456 6.27807Z" fill="black"/>
  <circle cx="9.00006" cy="8.94977" r="8.44977" stroke="black"/>
</svg>
