<svg width="233" height="27" viewBox="0 0 233 27" fill="none" xmlns="http://www.w3.org/2000/svg">
  <path d="M163.468 18.0027V12.4713C163.468 12.2293 163.515 11.9897 163.608 11.7661C163.701 11.5425 163.836 11.3394 164.008 11.1683C164.179 10.9972 164.382 10.8615 164.605 10.769C164.829 10.6764 165.069 10.6288 165.311 10.6289H166.942C167.429 10.6299 167.896 10.8242 168.241 11.1692C168.585 11.5142 168.778 11.9817 168.778 12.4691V13.6464C168.778 14.1352 168.584 14.6039 168.239 14.9495C167.893 15.2951 167.424 15.4893 166.935 15.4893H164.628" stroke="black" stroke-width="0.40229" stroke-linecap="round" stroke-linejoin="round"/>
  <path d="M169.236 10.6279H169.943C170.144 10.6279 170.336 10.7076 170.478 10.8495C170.62 10.9913 170.7 11.1837 170.7 11.3843V15.5171" stroke="black" stroke-width="0.40229" stroke-linecap="round" stroke-linejoin="round"/>
  <path d="M170.547 9.98795L170.226 9.66657C170.207 9.64762 170.192 9.62512 170.182 9.60035C170.171 9.57557 170.166 9.54901 170.166 9.52219C170.166 9.49537 170.171 9.46881 170.182 9.44403C170.192 9.41926 170.207 9.39676 170.226 9.37782L170.547 9.05698C170.566 9.03799 170.588 9.02292 170.613 9.01264C170.638 9.00236 170.664 8.99707 170.691 8.99707C170.718 8.99707 170.745 9.00236 170.769 9.01264C170.794 9.02292 170.817 9.03799 170.836 9.05698L171.157 9.37782C171.176 9.39676 171.191 9.41926 171.201 9.44403C171.212 9.46881 171.217 9.49537 171.217 9.52219C171.217 9.54901 171.212 9.57557 171.201 9.60035C171.191 9.62512 171.176 9.64762 171.157 9.66657L170.836 9.98795C170.817 10.0069 170.794 10.022 170.769 10.0323C170.745 10.0426 170.718 10.0479 170.691 10.0479C170.664 10.0479 170.638 10.0426 170.613 10.0323C170.588 10.022 170.566 10.0069 170.547 9.98795Z" fill="black"/>
  <path d="M172.06 10.6245H172.763C173.124 10.6246 173.471 10.7681 173.726 11.0237L175.37 12.6664C175.42 12.7172 175.48 12.7574 175.546 12.7849C175.612 12.8123 175.683 12.8265 175.755 12.8265C175.826 12.8265 175.897 12.8123 175.963 12.7849C176.03 12.7574 176.09 12.7172 176.14 12.6664L177.779 11.0296C177.906 10.9031 178.056 10.8027 178.221 10.7342C178.387 10.6657 178.564 10.6305 178.743 10.6305H179.314" stroke="black" stroke-width="0.40229" stroke-linecap="round" stroke-linejoin="round"/>
  <path d="M172.06 15.4802H172.763C173.124 15.4802 173.471 15.3366 173.726 15.0811L175.37 13.4388C175.42 13.3881 175.48 13.3479 175.546 13.3204C175.612 13.2929 175.683 13.2788 175.755 13.2788C175.826 13.2788 175.897 13.2929 175.963 13.3204C176.03 13.3479 176.09 13.3881 176.14 13.4388L177.779 15.0751C177.906 15.2017 178.056 15.3021 178.221 15.3705C178.387 15.439 178.564 15.4743 178.743 15.4742H179.314" stroke="black" stroke-width="0.40229" stroke-linecap="round" stroke-linejoin="round"/>
  <path d="M159.279 16.5297C159.106 16.5302 158.934 16.4963 158.774 16.4299C158.614 16.3636 158.468 16.2661 158.346 16.1431L156.998 14.7983C156.95 14.7526 156.887 14.7271 156.821 14.7271C156.755 14.7271 156.691 14.7526 156.644 14.7983L155.291 16.1507C155.168 16.2737 155.023 16.3712 154.863 16.4376C154.702 16.5039 154.531 16.5378 154.357 16.5373H154.092L155.799 18.2448C156.055 18.5007 156.402 18.6445 156.764 18.6445C157.126 18.6445 157.474 18.5007 157.73 18.2448L159.442 16.5324L159.279 16.5297Z" fill="black"/>
  <path d="M154.357 11.7619C154.531 11.7615 154.702 11.7954 154.863 11.8618C155.023 11.9281 155.168 12.0256 155.291 12.1485L156.644 13.5015C156.691 13.5483 156.754 13.5746 156.821 13.5746C156.887 13.5746 156.951 13.5483 156.998 13.5015L158.346 12.1534C158.468 12.0305 158.614 11.933 158.774 11.8667C158.934 11.8003 159.106 11.7664 159.279 11.7668H159.443L157.731 10.0549C157.604 9.92807 157.453 9.82744 157.288 9.75878C157.122 9.69012 156.945 9.65479 156.765 9.65479C156.586 9.65479 156.408 9.69012 156.243 9.75878C156.077 9.82744 155.926 9.92807 155.8 10.0549L154.093 11.7619H154.357Z" fill="black"/>
  <path d="M160.858 13.1828L159.825 12.1496C159.801 12.1589 159.777 12.1639 159.751 12.1643H159.281C159.036 12.1653 158.802 12.263 158.629 12.4362L157.278 13.7815C157.218 13.8416 157.147 13.8893 157.069 13.9217C156.99 13.9542 156.906 13.9709 156.821 13.9707C156.649 13.971 156.485 13.9032 156.363 13.782L155.01 12.4291C154.837 12.2559 154.602 12.1582 154.358 12.1572H153.78C153.756 12.1568 153.732 12.152 153.71 12.1431L152.671 13.1817C152.544 13.3085 152.444 13.459 152.375 13.6246C152.307 13.7903 152.271 13.9679 152.271 14.1472C152.271 14.3265 152.307 14.5041 152.375 14.6698C152.444 14.8354 152.544 14.9859 152.671 15.1127L153.71 16.1513C153.732 16.1424 153.756 16.1376 153.78 16.1372H154.358C154.602 16.136 154.837 16.0383 155.01 15.8653L156.363 14.5124C156.486 14.3947 156.65 14.3291 156.821 14.3291C156.991 14.3291 157.155 14.3947 157.278 14.5124L158.626 15.8604C158.8 16.0334 159.034 16.1311 159.279 16.1323H159.749C159.774 16.1326 159.799 16.1377 159.823 16.1475L160.856 15.1143C161.112 14.8582 161.256 14.5109 161.256 14.1488C161.256 13.7867 161.112 13.4395 160.856 13.1833" fill="black"/>
  <path d="M164.872 17.5325C164.787 17.5363 164.702 17.5493 164.619 17.5711V17.9082C164.682 17.9305 164.749 17.9418 164.816 17.9414C164.985 17.9414 165.065 17.8843 165.065 17.7353C165.065 17.5956 165 17.5325 164.872 17.5325ZM164.562 18.1584V17.4922H164.609L164.613 17.5211C164.7 17.498 164.788 17.4838 164.877 17.4786C164.939 17.4744 165 17.4921 165.05 17.5287C165.077 17.5552 165.098 17.5876 165.112 17.6234C165.125 17.6591 165.13 17.6974 165.126 17.7353C165.13 17.7776 165.121 17.82 165.102 17.8579C165.083 17.8958 165.054 17.9277 165.018 17.9501C164.957 17.9802 164.889 17.9951 164.821 17.9936C164.752 17.9932 164.684 17.9828 164.618 17.9626V18.1584H164.562Z" fill="black"/>
  <path d="M165.55 17.5307C165.381 17.5307 165.306 17.5851 165.306 17.7325C165.306 17.8798 165.381 17.9413 165.55 17.9413C165.72 17.9413 165.794 17.8869 165.794 17.7401C165.794 17.5932 165.72 17.5307 165.55 17.5307ZM165.768 17.9413C165.703 17.9815 165.627 18.0005 165.55 17.9956C165.474 18.0002 165.398 17.9812 165.333 17.9413C165.302 17.9171 165.279 17.8856 165.263 17.8498C165.248 17.814 165.242 17.775 165.246 17.7363C165.242 17.6975 165.249 17.6585 165.264 17.6226C165.279 17.5868 165.303 17.5552 165.333 17.5307C165.398 17.4905 165.474 17.4715 165.55 17.4763C165.627 17.4716 165.703 17.4906 165.768 17.5307C165.798 17.555 165.822 17.5863 165.837 17.622C165.852 17.6577 165.858 17.6966 165.855 17.7352C165.859 17.774 165.853 17.8132 165.837 17.8492C165.822 17.8852 165.798 17.9168 165.768 17.9413Z" fill="black"/>
  <path d="M166.568 17.9801L166.38 17.5756H166.376L166.19 17.9801H166.142L165.941 17.4907H166.004L166.171 17.9002H166.175L166.356 17.4907H166.411L166.597 17.9002H166.601L166.764 17.4907H166.825L166.624 17.9801H166.568Z" fill="black"/>
  <path d="M167.184 17.5295C167.028 17.5295 166.975 17.5991 166.967 17.6997H167.405C167.401 17.5882 167.344 17.5295 167.188 17.5295H167.184ZM167.188 17.9933C167.116 18.001 167.043 17.9816 166.985 17.9389C166.957 17.9132 166.935 17.8814 166.921 17.846C166.907 17.8106 166.901 17.7725 166.903 17.7345C166.901 17.695 166.908 17.6556 166.924 17.6193C166.94 17.5831 166.964 17.551 166.994 17.5257C167.051 17.4902 167.118 17.4731 167.184 17.4767C167.253 17.4725 167.321 17.489 167.38 17.524C167.45 17.5713 167.464 17.6545 167.464 17.7492H166.963C166.963 17.8492 166.998 17.9384 167.187 17.9384C167.272 17.9364 167.356 17.9269 167.44 17.9101V17.9612C167.355 17.9789 167.269 17.9891 167.183 17.9917" fill="black"/>
  <path d="M167.627 17.9801V17.4906H167.674L167.679 17.5195C167.757 17.4938 167.839 17.4795 167.921 17.4771H167.928V17.5314H167.914C167.836 17.5331 167.759 17.5461 167.684 17.57V17.979L167.627 17.9801Z" fill="black"/>
  <path d="M168.259 17.5298C168.102 17.5298 168.049 17.5994 168.042 17.7H168.48C168.475 17.5885 168.418 17.5298 168.263 17.5298H168.259ZM168.263 17.9936C168.191 18.0011 168.119 17.9818 168.06 17.9393C168.033 17.9132 168.012 17.8815 167.999 17.8464C167.986 17.8113 167.981 17.7738 167.984 17.7364C167.982 17.697 167.989 17.6575 168.005 17.6213C168.02 17.585 168.044 17.553 168.075 17.5276C168.132 17.4921 168.198 17.475 168.265 17.4787C168.333 17.4745 168.401 17.491 168.46 17.526C168.53 17.5733 168.544 17.6565 168.544 17.7511H168.044C168.044 17.8512 168.078 17.9403 168.268 17.9403C168.352 17.9383 168.437 17.9288 168.52 17.9121V17.9632C168.435 17.9808 168.349 17.991 168.263 17.9936Z" fill="black"/>
  <path d="M169.162 17.5635C169.099 17.5414 169.032 17.5303 168.965 17.5308C168.796 17.5308 168.716 17.5879 168.716 17.7364C168.716 17.8848 168.782 17.9392 168.909 17.9392C168.995 17.9352 169.079 17.9226 169.162 17.9017V17.5635ZM169.173 17.98L169.168 17.9506C169.082 17.9738 168.994 17.9882 168.905 17.9936C168.843 17.9983 168.781 17.9804 168.732 17.943C168.704 17.9166 168.683 17.8843 168.67 17.8485C168.656 17.8127 168.651 17.7744 168.655 17.7364C168.652 17.6942 168.66 17.652 168.679 17.6143C168.699 17.5766 168.728 17.5449 168.764 17.5227C168.825 17.4919 168.893 17.4767 168.961 17.4786C169.029 17.4794 169.097 17.4899 169.163 17.5096V17.2861H169.22V17.98H169.173Z" fill="black"/>
  <path d="M170.057 17.5325C169.972 17.5363 169.887 17.5492 169.804 17.5711V17.9071C169.867 17.9302 169.934 17.9418 170.001 17.9414C170.17 17.9414 170.25 17.8843 170.25 17.7353C170.25 17.5955 170.185 17.5325 170.057 17.5325ZM170.203 17.9501C170.142 17.9802 170.075 17.9951 170.007 17.9936C169.933 17.9928 169.859 17.9804 169.789 17.9566V17.98H169.75V17.2861H169.804V17.5172C169.889 17.4957 169.976 17.4822 170.063 17.477C170.125 17.4727 170.186 17.4905 170.236 17.527C170.263 17.5536 170.284 17.586 170.297 17.6217C170.31 17.6575 170.315 17.6957 170.312 17.7337C170.315 17.776 170.307 17.8184 170.287 17.8563C170.268 17.8941 170.239 17.926 170.203 17.9485" fill="black"/>
  <path d="M170.384 18.1698V18.1154C170.411 18.1154 170.438 18.1203 170.456 18.1203C170.489 18.123 170.522 18.1146 170.55 18.0964C170.577 18.0781 170.598 18.0511 170.609 18.0197L170.627 17.9811L170.372 17.4917H170.438L170.656 17.9126H170.659L170.867 17.4917H170.932L170.66 18.0393C170.609 18.1388 170.555 18.1714 170.456 18.1714C170.432 18.1725 170.408 18.172 170.384 18.1698Z" fill="black"/>
  <path d="M171.719 17.7017H171.529V17.873H171.72C171.85 17.873 171.9 17.8583 171.9 17.7866C171.9 17.7148 171.832 17.7017 171.719 17.7017ZM171.684 17.4244H171.529V17.5984H171.685C171.814 17.5984 171.865 17.5832 171.865 17.5103C171.865 17.4374 171.8 17.4244 171.684 17.4244ZM171.978 17.9339C171.908 17.978 171.824 17.9802 171.671 17.9802H171.382V17.3184H171.664C171.796 17.3184 171.877 17.3184 171.945 17.3608C171.967 17.3742 171.986 17.3936 171.998 17.4169C172.01 17.4401 172.015 17.4663 172.013 17.4924C172.014 17.525 172.005 17.5573 171.986 17.5839C171.967 17.6106 171.94 17.6301 171.908 17.6392V17.643C171.993 17.662 172.048 17.7055 172.048 17.7996C172.05 17.8263 172.045 17.8531 172.032 17.8768C172.02 17.9006 172.001 17.9204 171.978 17.9339Z" fill="black"/>
  <path d="M172.626 17.7749C172.572 17.77 172.511 17.7673 172.451 17.7673C172.351 17.7673 172.316 17.7874 172.316 17.8331C172.316 17.8788 172.345 17.8983 172.421 17.8983C172.49 17.8959 172.559 17.8863 172.626 17.8695V17.7749ZM172.655 17.9799L172.651 17.9505C172.565 17.9751 172.476 17.9895 172.386 17.9935C172.335 17.9969 172.283 17.9844 172.239 17.9576C172.221 17.9439 172.207 17.926 172.197 17.9054C172.188 17.8848 172.183 17.8622 172.185 17.8396C172.183 17.8119 172.191 17.7844 172.205 17.7608C172.22 17.7372 172.241 17.7186 172.267 17.7075C172.325 17.6856 172.388 17.6763 172.45 17.6803C172.501 17.6803 172.57 17.683 172.627 17.6868V17.6803C172.627 17.6041 172.577 17.5791 172.439 17.5791C172.385 17.5791 172.322 17.5819 172.26 17.5878V17.4889C172.328 17.4834 172.405 17.4796 172.469 17.4796C172.548 17.4727 172.626 17.4884 172.696 17.5248C172.751 17.5645 172.763 17.6194 172.763 17.6922V17.981L172.655 17.9799Z" fill="black"/>
  <path d="M173.399 17.98V17.7081C173.399 17.6195 173.354 17.5874 173.273 17.5874C173.205 17.5903 173.139 17.6007 173.074 17.6184V17.9779H172.939V17.4884H173.048L173.053 17.5189C173.138 17.4943 173.225 17.4795 173.314 17.4749C173.374 17.4702 173.433 17.488 173.481 17.5249C173.501 17.5448 173.516 17.5688 173.525 17.5952C173.535 17.6216 173.538 17.6498 173.535 17.6777V17.9762L173.399 17.98Z" fill="black"/>
  <path d="M173.918 17.9939C173.853 17.9989 173.789 17.9806 173.737 17.9422C173.709 17.9159 173.687 17.8836 173.674 17.8478C173.661 17.812 173.656 17.7736 173.659 17.7356C173.657 17.6952 173.665 17.6549 173.682 17.6185C173.699 17.582 173.726 17.5506 173.759 17.5273C173.824 17.4907 173.899 17.4739 173.973 17.4789C174.028 17.4789 174.085 17.4827 174.145 17.4881V17.5925C174.096 17.5882 174.036 17.5838 173.989 17.5838C173.86 17.5838 173.799 17.6246 173.799 17.7366C173.799 17.8487 173.845 17.8873 173.951 17.8873C174.02 17.8851 174.088 17.8768 174.156 17.8623V17.9629C174.078 17.9808 173.998 17.9912 173.918 17.9939Z" fill="black"/>
  <path d="M174.559 17.5811C174.43 17.5811 174.373 17.6219 174.373 17.7328C174.373 17.8437 174.427 17.891 174.559 17.891C174.692 17.891 174.744 17.8513 174.744 17.7404C174.744 17.6295 174.689 17.5811 174.559 17.5811ZM174.793 17.9422C174.722 17.9824 174.641 18.0003 174.559 17.9938C174.478 18.0001 174.396 17.9822 174.324 17.9422C174.293 17.9188 174.267 17.8876 174.251 17.8516C174.235 17.8155 174.229 17.7759 174.233 17.7366C174.229 17.6972 174.235 17.6574 174.251 17.6212C174.267 17.585 174.293 17.5535 174.324 17.53C174.396 17.4901 174.478 17.4724 174.559 17.4788C174.641 17.4726 174.722 17.4904 174.793 17.53C174.825 17.5535 174.85 17.5847 174.866 17.6208C174.882 17.6568 174.888 17.6963 174.884 17.7355C174.888 17.7749 174.882 17.8145 174.866 17.8507C174.85 17.8869 174.825 17.9184 174.793 17.9422Z" fill="black"/>
  <path d="M175.67 17.9938C175.585 17.9992 175.501 17.9747 175.433 17.9247C175.353 17.8595 175.329 17.7578 175.329 17.6485C175.327 17.5941 175.337 17.54 175.361 17.4908C175.384 17.4417 175.42 17.3993 175.464 17.3673C175.549 17.3201 175.646 17.2984 175.744 17.3048C175.817 17.3048 175.892 17.3097 175.974 17.3162V17.4353C175.904 17.4293 175.817 17.4244 175.75 17.4244C175.561 17.4244 175.481 17.4962 175.481 17.6485C175.481 17.8007 175.555 17.8736 175.694 17.8736C175.794 17.8704 175.892 17.8571 175.989 17.8339V17.9525C175.884 17.977 175.778 17.991 175.67 17.9943" fill="black"/>
  <path d="M176.389 17.5655C176.276 17.5655 176.233 17.6057 176.226 17.6802H176.552C176.549 17.6008 176.502 17.5655 176.389 17.5655ZM176.369 17.9934C176.296 18 176.223 17.9808 176.162 17.9391C176.135 17.9132 176.113 17.8814 176.1 17.8461C176.086 17.8108 176.081 17.7728 176.084 17.7351C176.082 17.6961 176.089 17.6571 176.105 17.6214C176.121 17.5856 176.145 17.5542 176.176 17.5296C176.24 17.491 176.314 17.4731 176.389 17.4785C176.463 17.4739 176.536 17.4909 176.601 17.5274C176.679 17.5818 176.686 17.6677 176.687 17.7683H176.223C176.226 17.8428 176.266 17.8907 176.403 17.8907C176.49 17.8887 176.577 17.8804 176.663 17.8656V17.9614C176.566 17.9797 176.468 17.9905 176.369 17.9934Z" fill="black"/>
  <path d="M177.292 17.98V17.7081C177.292 17.6195 177.247 17.5874 177.166 17.5874C177.099 17.5903 177.032 17.6007 176.967 17.6184V17.9779H176.831V17.4884H176.942L176.947 17.5189C177.032 17.4942 177.119 17.4794 177.208 17.4749C177.268 17.4702 177.327 17.488 177.375 17.5249C177.395 17.5448 177.41 17.5688 177.419 17.5952C177.429 17.6216 177.432 17.6498 177.429 17.6777V17.9762L177.292 17.98Z" fill="black"/>
  <path d="M177.816 17.9935C177.785 17.9964 177.755 17.9916 177.727 17.9794C177.7 17.9672 177.676 17.9481 177.657 17.9239C177.63 17.8795 177.618 17.8278 177.621 17.776V17.5933H177.523V17.4921H177.621L177.636 17.3442H177.757V17.4921H177.949V17.5933H177.757V17.7499C177.755 17.7815 177.76 17.8132 177.77 17.8429C177.779 17.8587 177.792 17.8715 177.808 17.8796C177.823 17.8877 177.841 17.8906 177.859 17.888C177.892 17.8875 177.924 17.8842 177.956 17.8782V17.9761C177.91 17.9863 177.863 17.9921 177.816 17.9935Z" fill="black"/>
  <path d="M178.082 17.9801V17.4906H178.191L178.196 17.5211C178.274 17.4948 178.355 17.48 178.437 17.4771H178.455V17.5934C178.439 17.5934 178.421 17.5934 178.407 17.5934C178.343 17.5936 178.278 17.6021 178.216 17.6184V17.979L178.082 17.9801Z" fill="black"/>
  <path d="M178.952 17.7749C178.895 17.77 178.837 17.7673 178.776 17.7673C178.676 17.7673 178.642 17.7874 178.642 17.8331C178.642 17.8788 178.671 17.8983 178.747 17.8983C178.816 17.8959 178.885 17.8862 178.952 17.8695V17.7749ZM178.981 17.9799L178.975 17.9522C178.889 17.9766 178.8 17.9911 178.711 17.9951C178.659 17.9985 178.607 17.986 178.563 17.9592C178.545 17.9455 178.53 17.9276 178.521 17.907C178.511 17.8864 178.507 17.8639 178.508 17.8412C178.507 17.8127 178.515 17.7845 178.53 17.7605C178.546 17.7365 178.568 17.718 178.595 17.7075C178.653 17.6861 178.715 17.6772 178.777 17.6814C178.828 17.6814 178.897 17.6841 178.954 17.6879V17.6803C178.954 17.6042 178.904 17.5791 178.767 17.5791C178.712 17.5791 178.649 17.5819 178.587 17.5878V17.4889C178.656 17.4834 178.733 17.4796 178.797 17.4796C178.875 17.4727 178.954 17.4884 179.023 17.5248C179.078 17.5645 179.09 17.6194 179.09 17.6922V17.981L178.981 17.9799Z" fill="black"/>
  <path d="M179.263 17.2861H179.4V17.98H179.263V17.2861Z" fill="black"/>
  <path fill-rule="evenodd" clip-rule="evenodd" d="M120.543 17.2949H118.876C118.762 17.2949 118.665 17.3779 118.647 17.4905L117.973 21.7665C117.959 21.8509 118.024 21.9269 118.11 21.9269H118.906C119.02 21.9269 119.117 21.844 119.135 21.7312L119.317 20.5779C119.335 20.4649 119.432 20.3821 119.546 20.3821H120.074C121.172 20.3821 121.806 19.8505 121.972 18.7972C122.046 18.3364 121.975 17.9743 121.759 17.7207C121.522 17.4423 121.102 17.2949 120.543 17.2949ZM120.736 18.8567C120.645 19.4551 120.187 19.4551 119.745 19.4551H119.494L119.67 18.3375C119.681 18.27 119.739 18.2203 119.808 18.2203H119.923C120.224 18.2203 120.508 18.2203 120.655 18.3919C120.742 18.4944 120.769 18.6465 120.736 18.8567ZM125.528 18.8375H124.73C124.661 18.8375 124.603 18.8873 124.592 18.9549L124.557 19.1782L124.501 19.0972C124.328 18.8463 123.943 18.7625 123.558 18.7625C122.675 18.7625 121.922 19.4308 121.775 20.3683C121.699 20.8359 121.807 21.2831 122.072 21.595C122.316 21.8817 122.664 22.0012 123.078 22.0012C123.789 22.0012 124.184 21.544 124.184 21.544L124.148 21.7659C124.135 21.8508 124.2 21.9268 124.285 21.9268H125.004C125.119 21.9268 125.215 21.8439 125.233 21.7311L125.665 18.998C125.678 18.9139 125.613 18.8375 125.528 18.8375ZM124.415 20.3917C124.338 20.8479 123.976 21.1541 123.514 21.1541C123.282 21.1541 123.097 21.0798 122.978 20.9388C122.86 20.7989 122.815 20.5997 122.852 20.3778C122.924 19.9255 123.293 19.6093 123.747 19.6093C123.974 19.6093 124.158 19.6846 124.28 19.8267C124.402 19.9704 124.45 20.1708 124.415 20.3917ZM128.978 18.8374H129.781C129.893 18.8374 129.959 18.9634 129.895 19.0556L127.226 22.9081C127.183 22.9705 127.112 23.0076 127.036 23.0076H126.234C126.121 23.0076 126.055 22.8805 126.121 22.7881L126.952 21.6151L126.068 19.0212C126.037 18.931 126.104 18.8374 126.2 18.8374H126.988C127.091 18.8374 127.181 18.9046 127.211 19.0027L127.68 20.5693L128.787 18.9391C128.83 18.8754 128.902 18.8374 128.978 18.8374Z" fill="black"/>
  <path fill-rule="evenodd" clip-rule="evenodd" d="M137.679 21.7662L138.363 17.412C138.374 17.3444 138.432 17.2947 138.5 17.2944H139.271C139.356 17.2944 139.421 17.3707 139.408 17.4551L138.733 21.7309C138.715 21.8438 138.618 21.9267 138.504 21.9267H137.816C137.731 21.9267 137.665 21.8506 137.679 21.7662ZM132.438 17.2947H130.77C130.656 17.2947 130.559 17.3776 130.541 17.4902L129.867 21.7662C129.853 21.8506 129.919 21.9267 130.004 21.9267H130.86C130.939 21.9267 131.007 21.8687 131.02 21.7897L131.211 20.5776C131.229 20.4647 131.326 20.3819 131.44 20.3819H131.967C133.066 20.3819 133.7 19.8503 133.866 18.797C133.94 18.3361 133.868 17.974 133.653 17.7204C133.416 17.442 132.996 17.2947 132.438 17.2947ZM132.63 18.8564C132.539 19.4548 132.082 19.4548 131.64 19.4548H131.388L131.565 18.3373C131.576 18.2698 131.634 18.22 131.702 18.22H131.817C132.118 18.22 132.403 18.22 132.549 18.3916C132.637 18.4941 132.663 18.6462 132.63 18.8564ZM137.422 18.8372H136.624C136.555 18.8372 136.497 18.887 136.487 18.9546L136.452 19.1779L136.395 19.097C136.223 18.846 135.837 18.7622 135.453 18.7622C134.57 18.7622 133.817 19.4305 133.67 20.3681C133.594 20.8357 133.702 21.2828 133.967 21.5947C134.211 21.8814 134.559 22.0009 134.973 22.0009C135.684 22.0009 136.078 21.5437 136.078 21.5437L136.043 21.7657C136.029 21.8505 136.094 21.9266 136.18 21.9266H136.899C137.013 21.9266 137.11 21.8436 137.128 21.7308L137.56 18.9977C137.573 18.9136 137.508 18.8372 137.422 18.8372ZM136.309 20.3914C136.232 20.8476 135.87 21.1539 135.408 21.1539C135.176 21.1539 134.991 21.0795 134.872 20.9386C134.754 20.7987 134.709 20.5994 134.746 20.3776C134.819 19.9252 135.187 19.609 135.641 19.609C135.868 19.609 136.052 19.6843 136.174 19.8265C136.296 19.9701 136.344 20.1705 136.309 20.3914Z" fill="black"/>
  <path d="M126.715 15.7652L126.92 14.4631L126.463 14.4525H124.282L125.798 4.84382C125.802 4.81481 125.818 4.78776 125.84 4.76856C125.862 4.74935 125.891 4.73877 125.921 4.73877H129.598C130.818 4.73877 131.661 4.99277 132.1 5.49412C132.307 5.72931 132.438 5.97508 132.501 6.24555C132.568 6.52935 132.569 6.86841 132.504 7.28196L132.499 7.31214V7.57711L132.706 7.69393C132.879 7.78604 133.017 7.89148 133.123 8.01222C133.3 8.2133 133.414 8.46888 133.462 8.77187C133.512 9.0835 133.495 9.45432 133.414 9.87413C133.32 10.3571 133.167 10.7777 132.962 11.1218C132.773 11.4389 132.532 11.7019 132.247 11.9058C131.974 12.0994 131.65 12.2464 131.283 12.3405C130.928 12.433 130.523 12.4797 130.079 12.4797H129.793C129.588 12.4797 129.389 12.5534 129.234 12.6855C129.077 12.8203 128.974 13.0045 128.942 13.206L128.92 13.3232L128.558 15.6182L128.542 15.7025C128.537 15.7292 128.53 15.7425 128.519 15.7516C128.509 15.7597 128.495 15.7652 128.481 15.7652H126.715Z" fill="black"/>
  <path d="M132.901 7.34277C132.89 7.41293 132.877 7.48466 132.863 7.55836C132.378 10.0478 130.72 10.9079 128.601 10.9079H127.522C127.263 10.9079 127.045 11.096 127.004 11.3516L126.452 14.8544L126.296 15.8472C126.269 16.015 126.399 16.1663 126.568 16.1663H128.481C128.708 16.1663 128.9 16.0017 128.936 15.7783L128.955 15.681L129.315 13.395L129.338 13.2696C129.373 13.0454 129.566 12.8808 129.793 12.8808H130.079C131.933 12.8808 133.384 12.1281 133.808 9.95024C133.985 9.04045 133.893 8.28079 133.425 7.74651C133.283 7.5854 133.107 7.45174 132.901 7.34277Z" fill="#CECECE"/>
  <path d="M132.394 7.14035C132.319 7.11878 132.243 7.09918 132.165 7.08155C132.086 7.06431 132.005 7.04902 131.922 7.03569C131.631 6.98865 131.312 6.96631 130.971 6.96631H128.089C128.018 6.96631 127.951 6.98238 127.89 7.01139C127.758 7.07527 127.659 7.20111 127.635 7.35515L127.022 11.2381L127.004 11.3514C127.045 11.0958 127.263 10.9077 127.522 10.9077H128.601C130.719 10.9077 132.378 10.0473 132.863 7.5582C132.878 7.48451 132.89 7.41278 132.901 7.34262C132.778 7.27754 132.645 7.22188 132.502 7.17445C132.467 7.16269 132.43 7.15133 132.394 7.14035Z" fill="black"/>
  <path d="M127.635 7.35528C127.659 7.20122 127.758 7.0754 127.89 7.0119C127.951 6.98289 128.018 6.96682 128.089 6.96682H130.971C131.313 6.96682 131.631 6.98916 131.922 7.0362C132.005 7.04953 132.086 7.06482 132.165 7.08206C132.243 7.0997 132.32 7.1193 132.394 7.14086C132.43 7.15183 132.467 7.1632 132.503 7.17457C132.646 7.222 132.779 7.27805 132.901 7.34273C133.045 6.42275 132.9 5.79636 132.403 5.22916C131.854 4.60473 130.864 4.3374 129.598 4.3374H125.921C125.662 4.3374 125.442 4.52554 125.402 4.78151L123.87 14.489C123.84 14.681 123.988 14.8543 124.182 14.8543H126.452L127.022 11.2383L127.635 7.35528Z" fill="black"/>
  <path fill-rule="evenodd" clip-rule="evenodd" d="M98.4615 21.1165C102.501 21.1165 105.776 17.8036 105.776 13.717C105.776 9.63029 102.501 6.31738 98.4615 6.31738C96.651 6.31738 94.9941 6.98283 93.7168 8.08513C92.4395 6.98293 90.7827 6.31755 88.9722 6.31755C84.9324 6.31755 81.6576 9.63046 81.6576 13.7171C81.6576 17.8038 84.9324 21.1167 88.9722 21.1167C90.7828 21.1167 92.4397 20.4513 93.717 19.349C94.9943 20.4512 96.6511 21.1165 98.4615 21.1165Z" fill="black"/>
  <path fill-rule="evenodd" clip-rule="evenodd" d="M93.7169 19.3489C95.2896 17.9917 96.2869 15.9721 96.2869 13.717C96.2869 11.4618 95.2896 9.44226 93.7169 8.08504C94.9942 6.98279 96.651 6.31738 98.4615 6.31738C102.501 6.31738 105.776 9.63029 105.776 13.717C105.776 17.8036 102.501 21.1165 98.4615 21.1165C96.651 21.1165 94.9942 20.4511 93.7169 19.3489Z" fill="#F4F4F4"/>
  <path fill-rule="evenodd" clip-rule="evenodd" d="M93.7169 19.3487C95.2896 17.9915 96.2869 15.972 96.2869 13.7168C96.2869 11.4617 95.2896 9.44218 93.7169 8.08496C92.1442 9.44218 91.1469 11.4617 91.1469 13.7168C91.1469 15.972 92.1442 17.9915 93.7169 19.3487Z" fill="#494949"/>
  <path fill-rule="evenodd" clip-rule="evenodd" d="M50.3599 18.3851H48.087L46.3827 11.8829C46.3018 11.5838 46.13 11.3193 45.8773 11.1947C45.2468 10.8815 44.552 10.6323 43.794 10.5066V10.2562H47.4554C47.9607 10.2562 48.3397 10.6323 48.4028 11.069L49.2872 15.7593L51.5589 10.2562H53.7686L50.3599 18.3851ZM55.0319 18.3851H52.8854L54.6529 10.2562H56.7994L55.0319 18.3851ZM59.5765 12.5083C59.6397 12.0705 60.0187 11.8201 60.4608 11.8201C61.1557 11.7573 61.9125 11.883 62.5442 12.1951L62.9232 10.4449C62.2915 10.1946 61.5967 10.0688 60.9662 10.0688C58.8828 10.0688 57.3668 11.1948 57.3668 12.7575C57.3668 13.9464 58.4406 14.5706 59.1986 14.9466C60.0187 15.3216 60.3345 15.5719 60.2713 15.9469C60.2713 16.5093 59.6397 16.7597 59.0091 16.7597C58.2511 16.7597 57.4932 16.5722 56.7994 16.259L56.4204 18.0103C57.1784 18.3224 57.9985 18.4481 58.7565 18.4481C61.0925 18.5098 62.5442 17.385 62.5442 15.6965C62.5442 13.5703 59.5765 13.4457 59.5765 12.5083ZM70.0565 18.3851L68.3521 10.2562H66.5214C66.1424 10.2562 65.7634 10.5066 65.6371 10.8815L62.481 18.3851H64.6907L65.1318 17.1974H67.8468L68.0994 18.3851H70.0565ZM66.8372 12.4454L67.4678 15.509H65.7003L66.8372 12.4454Z" fill="black"/>
  <g clip-path="url(#clip0_1_137)">
  <path d="M5.35983 6.31738H5.65767V14.2255H5.35983V6.31738ZM5.9555 6.31738H6.25334V14.2255H5.9555V6.31738ZM7.74385 6.31738H8.04169V14.2255H7.74385V6.31738ZM13.5412 6.31738H13.839V14.2255H13.5412V6.31738ZM15.4793 6.31738H15.7772V14.2255H15.4793V6.31738ZM17.3587 6.31738H17.6566V14.2255H17.3587V6.31738ZM17.8431 6.31738H18.1409V14.2255H17.8435L17.8431 6.31738ZM18.3281 6.31738H18.6259V14.2255H18.3281V6.31738ZM18.8732 6.31738H19.171V14.2255H18.8733L18.8732 6.31738ZM19.4182 6.31738H19.716V14.2255H19.4182V6.31738ZM20.9334 6.31738H21.2312V14.2255H20.933L20.9334 6.31738ZM24.6901 6.31738H24.988V14.2255H24.6901V6.31738ZM28.6088 6.31738H28.9065V14.2255H28.6087L28.6088 6.31738ZM29.6807 6.31738H29.9785V14.2255H29.6807V6.31738ZM30.4556 6.31738H30.7534V14.2255H30.4556V6.31738ZM30.9324 6.31738H31.2302V14.2255H30.9324V6.31738ZM9.71073 6.31738H10.0086V14.2255H9.71073V6.31738ZM6.73043 6.31738H7.26676V14.2255H6.73043V6.31738ZM10.2697 6.31738H10.8059V14.2255H10.2697V6.31738ZM12.7549 6.31738H13.2911V14.2255H12.7549V6.31738ZM14.0272 6.31738H14.5634V14.2255H14.0272V6.31738ZM16.0267 6.31738H16.5629V14.2255H16.0267V6.31738ZM21.7273 6.31738H22.5613V14.2255H21.7273V6.31738ZM22.8168 6.31738H23.4719V14.2255H22.816L22.8168 6.31738ZM23.9664 6.31738H24.5026V14.2255H23.9664V6.31738ZM25.4866 6.31738H26.3807V14.2255H25.4866V6.31738ZM27.2375 6.31738H28.1317V14.2255H27.2375V6.31738ZM8.33983 6.31738H9.41228V14.2255H8.33983V6.31738ZM11.1196 6.31738H11.9536V14.2255H11.1196V6.31738Z" fill="black"/>
  <path d="M5.74579 21.2467V16.7203H7.4443C7.72814 16.7093 8.01125 16.756 8.27653 16.8575C8.47987 16.9445 8.65128 17.0922 8.76718 17.2806C8.88206 17.4588 8.94371 17.6661 8.9449 17.8781C8.94492 18.0714 8.89035 18.2608 8.78747 18.4245C8.67157 18.6048 8.50659 18.7483 8.31192 18.838C8.56174 18.9022 8.78373 19.0463 8.94409 19.2484C9.09248 19.4456 9.1702 19.6871 9.16474 19.9339C9.1665 20.1387 9.1206 20.3412 9.03066 20.5253C8.95463 20.6903 8.84041 20.8349 8.69744 20.947C8.54863 21.0538 8.38013 21.13 8.20169 21.1713C7.96243 21.2262 7.71737 21.2517 7.47193 21.2472L5.74579 21.2467ZM6.34534 18.6224H7.32419C7.51536 18.6299 7.70668 18.6122 7.89325 18.5699C8.02981 18.5353 8.15089 18.4561 8.23728 18.3448C8.31771 18.2291 8.35833 18.0904 8.35301 17.9496C8.35576 17.8098 8.31824 17.6722 8.24492 17.5531C8.17497 17.4401 8.06621 17.3565 7.93903 17.3179C7.71336 17.266 7.48172 17.2447 7.25037 17.2546H6.34554L6.34534 18.6224ZM6.34534 20.7127H7.47214C7.60844 20.7163 7.74481 20.7091 7.87999 20.6913C8.00226 20.6714 8.11964 20.6285 8.22586 20.5647C8.32292 20.502 8.40168 20.4148 8.45415 20.3119C8.51543 20.1949 8.54632 20.0645 8.54398 19.9325C8.54819 19.775 8.50286 19.6201 8.41439 19.4897C8.32703 19.3646 8.20039 19.2723 8.05456 19.2274C7.83892 19.169 7.61574 19.1435 7.3925 19.1515H6.34534V20.7127ZM10.0401 19.0426C10.0021 18.3976 10.2194 17.7635 10.6451 17.2774C10.8457 17.0668 11.0886 16.901 11.358 16.7911C11.6273 16.6813 11.9169 16.6297 12.2076 16.6399C12.6046 16.6345 12.9955 16.7382 13.3376 16.9397C13.6702 17.1363 13.9371 17.4269 14.1047 17.775C14.2854 18.1541 14.3756 18.5699 14.3684 18.9898C14.376 19.4167 14.281 19.8391 14.0914 20.2216C13.9193 20.5697 13.6445 20.8567 13.3042 21.0437C12.9677 21.2292 12.5893 21.3254 12.2051 21.3231C11.8031 21.3298 11.4073 21.223 11.0631 21.0152C10.7319 20.8144 10.4666 20.5212 10.2999 20.1717C10.128 19.8202 10.0391 19.4339 10.0401 19.0426ZM10.6579 19.0521C10.6322 19.5231 10.791 19.9855 11.1005 20.3414C11.2402 20.4943 11.411 20.6155 11.6015 20.6968C11.792 20.7781 11.9977 20.8175 12.2047 20.8125C12.413 20.8178 12.6199 20.778 12.8113 20.6958C13.0028 20.6136 13.1741 20.491 13.3137 20.3363C13.6261 19.9587 13.7824 19.476 13.7508 18.9869C13.759 18.6558 13.6963 18.3268 13.5667 18.022C13.4525 17.7591 13.2623 17.5364 13.0204 17.3826C12.7787 17.2308 12.4983 17.152 12.2128 17.1557C12.0106 17.1526 11.8097 17.1896 11.6218 17.2646C11.434 17.3396 11.2628 17.4511 11.1183 17.5926C10.9472 17.7922 10.8183 18.0243 10.7392 18.275C10.6601 18.5257 10.6324 18.7898 10.6579 19.0514V19.0521ZM15.3506 21.247V16.7203H15.9494V20.7123H18.1784V21.2467L15.3506 21.247ZM19.1383 21.247V16.7203H22.4114V17.2546H19.7372V18.6413H22.2413V19.1724H19.7372V20.7128H22.5164V21.2472L19.1383 21.247ZM24.7296 21.247V17.2546H23.2376V16.7203H26.8255V17.2546H25.328V21.2467L24.7296 21.247ZM27.3778 19.0426C27.3403 18.3975 27.5582 17.7635 27.9843 17.2777C28.1849 17.0671 28.4279 16.9013 28.6972 16.7914C28.9665 16.6815 29.2561 16.63 29.5468 16.6402C29.9438 16.6348 30.3347 16.7385 30.6768 16.94C31.0093 17.1366 31.2763 17.4272 31.4438 17.7753C31.6246 18.1544 31.7148 18.5702 31.7075 18.9901C31.7149 19.417 31.6197 19.8395 31.43 20.2219C31.2573 20.5706 30.9815 20.8578 30.6402 21.0446C30.3037 21.2301 29.9253 21.3263 29.5411 21.3241C29.1388 21.3307 28.7428 21.2237 28.3985 21.0155C28.068 20.8145 27.8033 20.5213 27.6371 20.172C27.4653 19.8204 27.3766 19.434 27.3778 19.0426ZM27.9956 19.0521C27.9699 19.5231 28.1287 19.9855 28.4382 20.3414C28.5779 20.4943 28.7487 20.6155 28.9392 20.6968C29.1297 20.7781 29.3354 20.8175 29.5424 20.8125C29.7513 20.8184 29.9589 20.779 30.1511 20.6969C30.3432 20.6148 30.5153 20.492 30.6553 20.3369C30.9677 19.9593 31.124 19.4766 31.0923 18.9876C31.0988 18.656 31.034 18.327 30.9025 18.0226C30.7883 17.7597 30.598 17.5371 30.3562 17.3833C30.1146 17.2315 29.8344 17.1527 29.5491 17.1563C29.3469 17.1532 29.146 17.1902 28.9581 17.2652C28.7702 17.3402 28.599 17.4517 28.4545 17.5932C28.2838 17.7929 28.1552 18.0249 28.0763 18.2754C27.9975 18.526 27.97 18.7899 27.9956 19.0513V19.0521Z" fill="black"/>
  </g>
  <path d="M202.04 17.278V10.8084C202.04 10.8005 202.041 10.7927 202.044 10.7854C202.047 10.7781 202.051 10.7714 202.057 10.7659C202.062 10.7603 202.068 10.7559 202.076 10.753C202.083 10.7502 202.09 10.7488 202.098 10.7491H203.307C203.323 10.7491 203.337 10.7553 203.348 10.7664C203.359 10.7776 203.365 10.7927 203.365 10.8084V13.1398H203.384C203.546 12.9406 203.752 12.7826 203.983 12.678C204.215 12.5735 204.467 12.5251 204.72 12.5368C205.672 12.5368 205.978 13.1761 205.978 14.0241V17.278C205.978 17.2937 205.972 17.3088 205.961 17.3199C205.95 17.3311 205.935 17.3373 205.92 17.3373H204.711C204.695 17.3373 204.681 17.3311 204.67 17.3199C204.659 17.3088 204.653 17.2937 204.653 17.278V14.1446C204.653 13.7771 204.28 13.6642 204.042 13.6642C203.803 13.6642 203.365 13.825 203.365 14.2843V17.278C203.365 17.2937 203.359 17.3088 203.348 17.3199C203.337 17.3311 203.323 17.3373 203.307 17.3373H202.098C202.083 17.3373 202.068 17.3311 202.057 17.3199C202.046 17.3088 202.04 17.2937 202.04 17.278Z" fill="black"/>
  <path d="M211.696 16.0023V13.7723H211.137C211.122 13.7723 211.107 13.7661 211.096 13.755C211.086 13.7439 211.079 13.7288 211.079 13.713V12.9129C211.08 12.9007 211.083 12.8888 211.09 12.8788C211.097 12.8689 211.107 12.8614 211.119 12.8574L211.864 12.6335L212.261 11.3568C212.265 11.3485 212.271 11.3412 212.278 11.3356C212.285 11.3299 212.293 11.326 212.302 11.3243H212.954C212.962 11.324 212.969 11.3254 212.977 11.3282C212.984 11.3311 212.99 11.3355 212.996 11.3411C213.001 11.3466 213.005 11.3533 213.008 11.3606C213.011 11.3679 213.012 11.3757 213.012 11.3836V12.6431H213.99C213.998 12.6431 214.005 12.6446 214.012 12.6476C214.019 12.6505 214.026 12.6549 214.031 12.6604C214.036 12.666 214.041 12.6725 214.044 12.6797C214.046 12.6869 214.048 12.6946 214.048 12.7024V13.7245C214.048 13.7322 214.046 13.7398 214.044 13.7469C214.041 13.754 214.036 13.7605 214.031 13.7658C214.026 13.7711 214.019 13.7754 214.012 13.7781C214.005 13.7809 213.998 13.7822 213.99 13.7819H213.012V15.8606C213.012 16.0769 213.131 16.209 213.424 16.209H213.983C213.998 16.209 214.013 16.2152 214.024 16.2264C214.034 16.2375 214.041 16.2526 214.041 16.2683C214.041 16.2836 214.041 16.988 214.041 17.1661C214.04 17.178 214.037 17.1897 214.03 17.1995C214.023 17.2094 214.014 17.217 214.003 17.2215C213.711 17.3598 213.393 17.4316 213.072 17.4321C212.097 17.4321 211.696 16.8387 211.696 16.0023Z" fill="black"/>
  <path d="M230.635 16.0021V13.7722H230.076C230.061 13.7722 230.046 13.7659 230.035 13.7548C230.024 13.7437 230.018 13.7286 230.018 13.7128V12.9128C230.018 12.9005 230.022 12.8886 230.029 12.8787C230.036 12.8687 230.046 12.8612 230.057 12.8573L230.803 12.6333L231.2 11.3567C231.204 11.345 231.211 11.3349 231.221 11.3277C231.23 11.3205 231.242 11.3166 231.254 11.3164H231.906C231.914 11.3162 231.921 11.3175 231.928 11.3204C231.935 11.3233 231.942 11.3276 231.947 11.3332C231.953 11.3388 231.957 11.3455 231.96 11.3528C231.963 11.36 231.964 11.3679 231.964 11.3757V12.6352H232.942C232.95 12.6352 232.957 12.6368 232.964 12.6398C232.971 12.6427 232.978 12.6471 232.983 12.6526C232.988 12.6581 232.993 12.6647 232.995 12.6719C232.998 12.6791 233 12.6868 233 12.6946V13.7167C233 13.7244 232.998 13.732 232.995 13.7391C232.992 13.7462 232.988 13.7526 232.983 13.758C232.977 13.7633 232.971 13.7676 232.964 13.7703C232.957 13.7731 232.95 13.7743 232.942 13.7741H231.964V15.8604C231.964 16.0767 232.083 16.2088 232.376 16.2088H232.935C232.95 16.2088 232.965 16.2151 232.975 16.2262C232.986 16.2373 232.992 16.2524 232.992 16.2681C232.992 16.2835 232.992 16.9878 232.992 17.1659C232.992 17.1779 232.988 17.1895 232.982 17.1994C232.975 17.2092 232.966 17.2169 232.955 17.2214C232.663 17.3596 232.345 17.4314 232.023 17.4319C231.036 17.4319 230.635 16.8386 230.635 16.0021Z" fill="black"/>
  <path d="M214.852 17.2782V12.6844C214.852 12.6687 214.858 12.6536 214.869 12.6425C214.88 12.6313 214.894 12.625 214.91 12.625H216.002C216.013 12.6252 216.025 12.6292 216.035 12.6363C216.044 12.6435 216.052 12.6536 216.056 12.6653L216.182 13.1323H216.201C216.362 12.9333 216.566 12.7753 216.796 12.6707C217.027 12.5661 217.278 12.5177 217.53 12.5294C218.18 12.5294 218.493 12.8299 218.668 13.295H218.705C218.858 13.0482 219.071 12.8472 219.323 12.7127C219.575 12.5782 219.858 12.5149 220.142 12.5294C221.094 12.5294 221.4 13.1686 221.4 14.0166V17.2706C221.4 17.2863 221.394 17.3014 221.383 17.3125C221.372 17.3236 221.358 17.3299 221.342 17.3299H220.129C220.114 17.3299 220.099 17.3236 220.088 17.3125C220.077 17.3014 220.071 17.2863 220.071 17.2706V14.1659C220.071 13.7984 219.734 13.6568 219.496 13.6568C219.22 13.6568 218.81 13.8367 218.791 14.2501V17.2782C218.791 17.2861 218.79 17.2939 218.787 17.3012C218.784 17.3085 218.78 17.3152 218.775 17.3207C218.769 17.3263 218.763 17.3307 218.756 17.3335C218.749 17.3365 218.741 17.3378 218.733 17.3375H217.517C217.502 17.337 217.487 17.3306 217.477 17.3195C217.466 17.3084 217.461 17.2936 217.461 17.2782V14.1659C217.461 13.7984 217.103 13.6568 216.842 13.6568C216.671 13.6556 216.506 13.723 216.383 13.8444C216.259 13.9659 216.187 14.132 216.18 14.3075V17.2782C216.18 17.2936 216.175 17.3084 216.164 17.3195C216.154 17.3306 216.14 17.337 216.125 17.3375H214.911C214.904 17.3378 214.896 17.3364 214.889 17.3336C214.881 17.3307 214.875 17.3264 214.869 17.3209C214.864 17.3153 214.859 17.3087 214.856 17.3013C214.853 17.294 214.852 17.2862 214.852 17.2782Z" fill="black"/>
  <path d="M222.2 13.6665V12.8128C222.2 12.7993 222.205 12.7863 222.213 12.7759C222.222 12.7655 222.233 12.7583 222.246 12.7554C222.828 12.6255 223.421 12.553 224.016 12.5391C225.189 12.5391 225.88 12.83 225.88 14.1297V17.2803C225.88 17.296 225.874 17.3111 225.863 17.3222C225.852 17.3333 225.837 17.3396 225.822 17.3396H224.665C224.652 17.3395 224.64 17.3351 224.63 17.3272C224.621 17.3192 224.614 17.308 224.611 17.2955L224.486 16.8304H224.538C224.208 17.3013 223.77 17.4334 223.234 17.4334C222.373 17.4334 221.914 16.7462 221.914 15.9366C221.914 14.7135 222.785 14.4684 223.435 14.4684H224.553V14.1584C224.553 13.7756 224.274 13.6894 223.211 13.6894C222.762 13.6894 222.28 13.7258 222.259 13.7258C222.244 13.7258 222.229 13.7196 222.218 13.7085C222.207 13.6974 222.2 13.6824 222.2 13.6665ZM224.551 15.3049H223.824C223.439 15.3049 223.189 15.4561 223.189 15.8791C223.189 16.3347 223.508 16.438 223.813 16.438C223.913 16.4436 224.012 16.4275 224.105 16.391C224.198 16.3545 224.282 16.2983 224.352 16.2261C224.423 16.1539 224.477 16.0672 224.513 15.9718C224.548 15.8764 224.564 15.7744 224.559 15.6724V15.2896L224.551 15.3049Z" fill="black"/>
  <path d="M226.651 17.2781V12.6843C226.651 12.6689 226.657 12.654 226.667 12.643C226.678 12.6319 226.692 12.6254 226.707 12.6249H227.788C227.801 12.6247 227.814 12.6295 227.824 12.6382C227.834 12.647 227.841 12.6593 227.843 12.6728L227.972 13.3867H227.991C228.126 13.1233 228.33 12.9038 228.58 12.7527C228.829 12.6015 229.115 12.5248 229.405 12.5311C229.42 12.5311 229.435 12.5374 229.446 12.5485C229.457 12.5596 229.463 12.5747 229.463 12.5905V13.8691C229.463 13.8848 229.457 13.8999 229.446 13.9111C229.435 13.9222 229.42 13.9284 229.405 13.9284H229.096C228.263 13.9284 227.978 14.271 227.978 14.694V17.2704C227.978 17.2858 227.972 17.3006 227.961 17.3117C227.951 17.3228 227.937 17.3292 227.922 17.3298H226.712C226.698 17.3309 226.683 17.3261 226.672 17.3165C226.66 17.3069 226.653 17.2931 226.651 17.2781Z" fill="black"/>
  <path d="M206.54 14.9852C206.54 13.4885 207.109 12.5391 208.721 12.5391C210.333 12.5391 210.91 13.4961 210.91 14.9852C210.91 16.4744 210.342 17.4315 208.721 17.4315C207.099 17.4315 206.54 16.4916 206.54 14.9852ZM207.972 14.9852C207.972 15.7949 208.087 16.2907 208.717 16.2907C209.347 16.2907 209.475 15.7949 209.475 14.9852C209.475 14.1756 209.358 13.6875 208.717 13.6875C208.076 13.6875 207.972 14.1756 207.972 14.9852Z" fill="black"/>
  <path d="M198.676 14.49C198.724 13.5263 198.395 11.9505 197.616 10.6614C197.595 10.6283 197.56 10.6412 197.567 10.6758C197.618 10.8717 197.631 11.2274 197.328 11.2059C196.79 11.1684 197.346 9.9844 196.164 9.16337C196.16 9.15911 196.154 9.1566 196.148 9.15632C196.142 9.15603 196.136 9.15799 196.131 9.16183C196.127 9.16567 196.123 9.17114 196.122 9.17724C196.121 9.18334 196.122 9.18967 196.125 9.19507C196.206 9.35351 196.254 9.84756 196.067 10.0161C195.917 10.1515 195.647 10.1155 195.376 9.6704C195.196 9.36338 195.103 9.01081 195.108 8.65246C195.113 8.2941 195.215 7.94424 195.403 7.64232C195.425 7.60487 195.394 7.59047 195.369 7.59911C193.742 8.15078 193.417 10.1212 193.071 10.8385C193.013 10.9595 192.963 11.0215 192.863 11.0157C192.567 10.9955 192.78 10.3459 192.883 10.1198C192.885 10.1143 192.885 10.1082 192.884 10.1025C192.882 10.0968 192.879 10.0918 192.874 10.0884C192.869 10.0851 192.863 10.0835 192.858 10.0839C192.852 10.0844 192.846 10.0869 192.842 10.091C191.893 11.1627 191.285 12.5073 191.102 13.9441C191.102 13.9109 191.088 14.0621 191.079 14.173C191.079 14.2163 191.077 14.26 191.071 14.3041C191.071 14.356 191.071 14.4079 191.071 14.4611C191.063 15.4981 191.456 16.4961 192.164 17.2354C192.872 17.9747 193.837 18.3949 194.846 18.4035C195.856 18.4121 196.827 18.0084 197.547 17.2812C198.267 16.554 198.676 15.5629 198.684 14.5259C198.677 14.513 198.676 14.5015 198.676 14.49ZM194.856 16.3063C194.506 16.3043 194.166 16.1958 193.876 15.9946C193.587 15.7935 193.362 15.5086 193.23 15.1761C193.099 14.8437 193.066 14.4786 193.137 14.127C193.207 13.7755 193.378 13.4533 193.626 13.2014C193.875 12.9494 194.191 12.779 194.534 12.7116C194.878 12.6443 195.233 12.683 195.554 12.823C195.876 12.963 196.15 13.1979 196.342 13.498C196.534 13.798 196.634 14.1498 196.631 14.5087C196.627 14.9886 196.438 15.4473 196.105 15.7843C195.772 16.1213 195.323 16.309 194.856 16.3063Z" fill="black"/>
  <defs>
  <clipPath id="clip0_1_137">
  <rect width="26.3479" height="15.0071" fill="white" transform="translate(5.35995 6.31738)"/>
  </clipPath>
  </defs>
  </svg>
  