<svg xmlns="http://www.w3.org/2000/svg" xmlns:xlink="http://www.w3.org/1999/xlink" width="50" zoomAndPan="magnify" viewBox="0 0 37.5 37.499999" height="50" preserveAspectRatio="xMidYMid meet" version="1.0"><path fill="#f4f1ed" d="M 28.082031 24.046875 L 28.09375 24.007812 C 28.191406 23.648438 28.339844 23.304688 28.539062 22.992188 C 28.789062 22.730469 29.082031 22.507812 29.398438 22.332031 C 30.042969 22.003906 30.578125 21.496094 30.9375 20.871094 C 31.1875 20.195312 31.242188 19.464844 31.097656 18.761719 C 31.03125 18.386719 31.019531 18.003906 31.066406 17.628906 C 31.179688 17.285156 31.34375 16.960938 31.554688 16.667969 C 32 16.082031 32.265625 15.382812 32.320312 14.652344 C 32.265625 13.921875 32 13.222656 31.554688 12.640625 C 31.34375 12.347656 31.179688 12.019531 31.066406 11.675781 C 31.019531 11.300781 31.03125 10.917969 31.097656 10.542969 C 31.242188 9.839844 31.1875 9.109375 30.9375 8.4375 C 30.578125 7.8125 30.042969 7.304688 29.402344 6.976562 C 29.082031 6.800781 28.789062 6.578125 28.539062 6.316406 C 28.339844 6 28.191406 5.65625 28.09375 5.296875 C 27.929688 4.59375 27.566406 3.953125 27.046875 3.449219 C 26.457031 3.046875 25.761719 2.824219 25.046875 2.8125 C 24.679688 2.796875 24.324219 2.722656 23.980469 2.59375 C 23.679688 2.402344 23.40625 2.164062 23.171875 1.890625 C 22.71875 1.320312 22.109375 0.898438 21.414062 0.675781 C 20.714844 0.574219 20 0.683594 19.359375 0.988281 C 19.019531 1.136719 18.660156 1.230469 18.289062 1.269531 C 17.917969 1.230469 17.558594 1.136719 17.21875 0.988281 C 16.578125 0.683594 15.863281 0.574219 15.164062 0.675781 C 14.46875 0.898438 13.859375 1.320312 13.40625 1.890625 C 13.171875 2.164062 12.902344 2.402344 12.597656 2.59375 C 12.253906 2.722656 11.898438 2.792969 11.53125 2.8125 C 10.816406 2.824219 10.121094 3.042969 9.53125 3.449219 C 9.011719 3.953125 8.648438 4.59375 8.480469 5.296875 C 8.386719 5.65625 8.238281 6 8.039062 6.3125 C 7.789062 6.578125 7.496094 6.800781 7.179688 6.972656 C 6.535156 7.300781 6 7.808594 5.640625 8.4375 C 5.390625 9.109375 5.332031 9.839844 5.480469 10.542969 C 5.546875 10.917969 5.558594 11.300781 5.511719 11.675781 C 5.398438 12.019531 5.230469 12.34375 5.023438 12.640625 C 4.578125 13.222656 4.3125 13.921875 4.253906 14.652344 C 4.3125 15.382812 4.578125 16.082031 5.019531 16.664062 C 5.230469 16.960938 5.398438 17.285156 5.511719 17.628906 C 5.558594 18.003906 5.546875 18.386719 5.480469 18.761719 C 5.335938 19.464844 5.390625 20.195312 5.640625 20.867188 C 6 21.496094 6.535156 22.003906 7.175781 22.332031 C 7.496094 22.507812 7.785156 22.730469 8.039062 22.992188 C 8.238281 23.304688 8.386719 23.648438 8.484375 24.007812 L 8.496094 24.050781 C 8.496094 24.054688 8.488281 24.054688 8.488281 24.058594 L 4.464844 31.023438 C 4.320312 31.28125 4.246094 31.570312 4.257812 31.863281 C 4.269531 32.15625 4.363281 32.441406 4.527344 32.683594 C 4.695312 32.925781 4.925781 33.117188 5.195312 33.234375 C 5.464844 33.351562 5.761719 33.390625 6.050781 33.347656 L 8.765625 32.933594 L 9.765625 35.492188 C 9.871094 35.765625 10.054688 36.003906 10.289062 36.179688 C 10.527344 36.355469 10.808594 36.457031 11.101562 36.476562 C 11.140625 36.480469 11.179688 36.484375 11.222656 36.484375 C 11.496094 36.484375 11.761719 36.410156 12 36.273438 C 12.238281 36.136719 12.433594 35.941406 12.570312 35.703125 L 16.734375 28.488281 C 16.898438 28.433594 17.0625 28.375 17.214844 28.320312 C 17.558594 28.167969 17.917969 28.074219 18.289062 28.035156 C 18.660156 28.074219 19.019531 28.167969 19.359375 28.320312 C 19.515625 28.375 19.679688 28.433594 19.84375 28.484375 L 19.847656 28.496094 L 24.007812 35.703125 C 24.144531 35.941406 24.339844 36.136719 24.578125 36.273438 C 24.8125 36.410156 25.082031 36.484375 25.355469 36.484375 C 25.394531 36.484375 25.4375 36.480469 25.476562 36.476562 C 25.769531 36.457031 26.050781 36.355469 26.289062 36.179688 C 26.523438 36.003906 26.707031 35.765625 26.8125 35.492188 L 27.8125 32.933594 L 30.523438 33.347656 C 30.816406 33.390625 31.113281 33.351562 31.382812 33.234375 C 31.652344 33.117188 31.882812 32.925781 32.046875 32.683594 C 32.214844 32.441406 32.308594 32.15625 32.320312 31.863281 C 32.332031 31.570312 32.257812 31.28125 32.109375 31.023438 Z M 11.21875 34.921875 L 9.992188 31.785156 C 9.925781 31.621094 9.808594 31.480469 9.65625 31.394531 C 9.5 31.304688 9.324219 31.273438 9.148438 31.296875 L 5.816406 31.804688 L 9.355469 25.671875 C 9.410156 25.738281 9.46875 25.796875 9.53125 25.855469 C 10.121094 26.261719 10.816406 26.484375 11.53125 26.492188 C 11.894531 26.511719 12.253906 26.582031 12.59375 26.710938 C 12.898438 26.902344 13.171875 27.140625 13.40625 27.414062 C 13.8125 27.898438 14.328125 28.28125 14.90625 28.535156 Z M 19.894531 26.855469 C 19.386719 26.636719 18.84375 26.507812 18.289062 26.476562 C 17.734375 26.507812 17.191406 26.636719 16.683594 26.855469 C 16.320312 27.03125 15.917969 27.121094 15.515625 27.113281 C 15.128906 26.9375 14.789062 26.667969 14.527344 26.332031 C 14.175781 25.921875 13.753906 25.578125 13.285156 25.3125 C 12.78125 25.097656 12.246094 24.972656 11.703125 24.945312 C 11.289062 24.945312 10.882812 24.839844 10.515625 24.648438 C 10.246094 24.316406 10.054688 23.929688 9.960938 23.511719 C 9.816406 22.984375 9.582031 22.480469 9.265625 22.03125 C 8.910156 21.621094 8.484375 21.277344 8.007812 21.011719 C 7.628906 20.824219 7.300781 20.546875 7.050781 20.203125 C 6.945312 19.789062 6.9375 19.359375 7.03125 18.941406 C 7.121094 18.394531 7.125 17.835938 7.03125 17.289062 C 6.886719 16.769531 6.65625 16.28125 6.34375 15.839844 C 6.074219 15.492188 5.890625 15.085938 5.816406 14.652344 C 5.890625 14.21875 6.074219 13.8125 6.34375 13.464844 C 6.65625 13.027344 6.886719 12.535156 7.03125 12.015625 C 7.125 11.46875 7.121094 10.910156 7.03125 10.363281 C 6.9375 9.949219 6.945312 9.515625 7.050781 9.101562 C 7.300781 8.757812 7.628906 8.480469 8.011719 8.292969 C 8.484375 8.027344 8.914062 7.683594 9.269531 7.273438 C 9.582031 6.824219 9.816406 6.324219 9.960938 5.792969 C 10.054688 5.375 10.246094 4.988281 10.519531 4.65625 C 10.882812 4.464844 11.289062 4.363281 11.703125 4.359375 C 12.25 4.332031 12.785156 4.207031 13.285156 3.992188 C 13.757812 3.726562 14.179688 3.382812 14.527344 2.972656 C 14.792969 2.636719 15.128906 2.371094 15.515625 2.191406 C 15.917969 2.1875 16.320312 2.277344 16.683594 2.453125 C 17.191406 2.671875 17.734375 2.796875 18.289062 2.828125 C 18.84375 2.796875 19.386719 2.671875 19.894531 2.453125 C 20.257812 2.277344 20.660156 2.1875 21.0625 2.195312 C 21.449219 2.371094 21.789062 2.636719 22.050781 2.972656 C 22.402344 3.382812 22.820312 3.726562 23.292969 3.992188 C 23.792969 4.207031 24.328125 4.332031 24.875 4.363281 C 25.289062 4.363281 25.695312 4.464844 26.058594 4.660156 C 26.332031 4.988281 26.523438 5.375 26.617188 5.792969 C 26.761719 6.324219 26.996094 6.824219 27.308594 7.273438 C 27.667969 7.683594 28.09375 8.03125 28.566406 8.292969 C 28.949219 8.480469 29.277344 8.757812 29.527344 9.101562 C 29.632812 9.515625 29.640625 9.949219 29.546875 10.363281 C 29.457031 10.910156 29.453125 11.46875 29.542969 12.015625 C 29.691406 12.535156 29.921875 13.023438 30.234375 13.464844 C 30.503906 13.8125 30.6875 14.21875 30.761719 14.652344 C 30.6875 15.085938 30.503906 15.492188 30.234375 15.839844 C 29.921875 16.28125 29.691406 16.769531 29.542969 17.289062 C 29.453125 17.835938 29.457031 18.394531 29.546875 18.941406 C 29.640625 19.359375 29.632812 19.789062 29.527344 20.203125 C 29.277344 20.546875 28.949219 20.828125 28.566406 21.015625 C 28.089844 21.277344 27.664062 21.621094 27.308594 22.03125 C 26.996094 22.484375 26.761719 22.984375 26.617188 23.511719 C 26.523438 23.929688 26.332031 24.316406 26.058594 24.648438 C 25.695312 24.84375 25.289062 24.945312 24.875 24.945312 C 24.328125 24.976562 23.792969 25.097656 23.292969 25.3125 C 22.820312 25.578125 22.398438 25.925781 22.046875 26.335938 C 21.785156 26.667969 21.449219 26.9375 21.0625 27.113281 C 20.65625 27.117188 20.257812 27.03125 19.894531 26.855469 Z M 27.429688 31.296875 C 27.253906 31.273438 27.078125 31.304688 26.921875 31.394531 C 26.769531 31.480469 26.652344 31.621094 26.585938 31.785156 L 25.359375 34.921875 L 21.671875 28.535156 C 22.25 28.28125 22.761719 27.898438 23.171875 27.414062 C 23.402344 27.140625 23.675781 26.902344 23.980469 26.710938 C 24.320312 26.585938 24.679688 26.511719 25.042969 26.496094 C 25.761719 26.484375 26.457031 26.261719 27.046875 25.855469 C 27.109375 25.796875 27.164062 25.738281 27.21875 25.671875 L 30.761719 31.804688 Z M 27.644531 14.652344 C 27.644531 12.800781 27.09375 10.992188 26.066406 9.457031 C 25.039062 7.917969 23.578125 6.71875 21.867188 6.007812 C 20.160156 5.300781 18.277344 5.117188 16.464844 5.476562 C 14.648438 5.839844 12.980469 6.730469 11.671875 8.039062 C 10.363281 9.347656 9.472656 11.011719 9.113281 12.828125 C 8.753906 14.644531 8.9375 16.523438 9.644531 18.234375 C 10.351562 19.941406 11.550781 21.402344 13.089844 22.433594 C 14.628906 23.460938 16.4375 24.007812 18.289062 24.007812 C 20.769531 24.003906 23.148438 23.019531 24.902344 21.265625 C 26.65625 19.511719 27.640625 17.132812 27.644531 14.652344 Z M 18.289062 22.449219 C 16.746094 22.449219 15.238281 21.992188 13.957031 21.136719 C 12.675781 20.277344 11.675781 19.0625 11.085938 17.636719 C 10.496094 16.210938 10.339844 14.644531 10.640625 13.132812 C 10.941406 11.621094 11.6875 10.230469 12.777344 9.140625 C 13.867188 8.050781 15.253906 7.308594 16.769531 7.007812 C 18.28125 6.707031 19.847656 6.859375 21.273438 7.449219 C 22.695312 8.039062 23.914062 9.039062 24.769531 10.320312 C 25.628906 11.605469 26.085938 13.109375 26.085938 14.652344 C 26.082031 16.71875 25.261719 18.703125 23.800781 20.164062 C 22.335938 21.625 20.355469 22.445312 18.289062 22.449219 Z M 21.839844 11.664062 C 21.925781 11.722656 22 11.796875 22.054688 11.878906 C 22.113281 11.964844 22.152344 12.0625 22.171875 12.160156 C 22.191406 12.261719 22.191406 12.363281 22.171875 12.464844 C 22.152344 12.566406 22.113281 12.660156 22.054688 12.746094 L 18.9375 17.425781 C 18.875 17.519531 18.789062 17.601562 18.691406 17.660156 C 18.589844 17.71875 18.480469 17.757812 18.367188 17.765625 C 18.339844 17.769531 18.3125 17.773438 18.289062 17.773438 C 18.082031 17.773438 17.882812 17.6875 17.738281 17.542969 L 15.398438 15.203125 C 15.257812 15.058594 15.179688 14.859375 15.179688 14.65625 C 15.179688 14.453125 15.261719 14.257812 15.40625 14.109375 C 15.550781 13.964844 15.75 13.882812 15.953125 13.882812 C 16.15625 13.882812 16.355469 13.960938 16.5 14.101562 L 18.167969 15.769531 L 20.757812 11.882812 C 20.875 11.710938 21.050781 11.589844 21.253906 11.550781 C 21.457031 11.507812 21.667969 11.550781 21.839844 11.664062 Z M 21.839844 11.664062 " fill-opacity="1" fill-rule="nonzero"/></svg>