<svg xmlns="http://www.w3.org/2000/svg" xmlns:xlink="http://www.w3.org/1999/xlink" width="50" zoomAndPan="magnify" viewBox="0 0 37.5 37.499999" height="50" preserveAspectRatio="xMidYMid meet" version="1.0"><path fill="#f4f1ed" d="M 36.769531 19.941406 C 36.445312 16.644531 34.96875 13.535156 32.625 11.1875 C 30.617188 9.183594 28.164062 7.894531 25.582031 7.320312 L 25.582031 5.507812 C 26.636719 5.246094 27.417969 4.292969 27.417969 3.15625 C 27.417969 1.820312 26.332031 0.730469 24.996094 0.730469 L 19.859375 0.730469 C 18.523438 0.730469 17.4375 1.820312 17.4375 3.15625 C 17.4375 4.292969 18.222656 5.246094 19.277344 5.507812 L 19.277344 7.324219 C 16.699219 7.902344 14.253906 9.1875 12.253906 11.1875 C 11.816406 11.625 11.414062 12.085938 11.042969 12.5625 C 11.027344 12.558594 11.007812 12.558594 10.988281 12.558594 L 5.910156 12.558594 C 5.515625 12.558594 5.195312 12.878906 5.195312 13.273438 C 5.195312 13.664062 5.515625 13.984375 5.910156 13.984375 L 10.074219 13.984375 C 9.550781 14.859375 9.128906 15.78125 8.808594 16.726562 L 1.046875 16.726562 C 0.652344 16.726562 0.335938 17.046875 0.335938 17.4375 C 0.335938 17.832031 0.652344 18.152344 1.046875 18.152344 L 8.40625 18.152344 C 8.199219 19.054688 8.082031 19.972656 8.050781 20.890625 L 4.898438 20.890625 C 4.503906 20.890625 4.183594 21.210938 4.183594 21.605469 C 4.183594 22 4.503906 22.320312 4.898438 22.320312 L 8.074219 22.320312 C 8.132812 23.242188 8.28125 24.160156 8.519531 25.058594 L 3.898438 25.058594 C 3.507812 25.058594 3.1875 25.378906 3.1875 25.773438 C 3.1875 26.167969 3.507812 26.484375 3.898438 26.484375 L 8.972656 26.484375 C 9.675781 28.335938 10.765625 30.070312 12.253906 31.558594 C 14.601562 33.90625 17.714844 35.378906 21.015625 35.707031 C 21.484375 35.753906 21.957031 35.773438 22.429688 35.773438 C 25.210938 35.773438 27.957031 34.96875 30.289062 33.453125 C 30.617188 33.238281 30.710938 32.796875 30.496094 32.464844 C 30.28125 32.136719 29.839844 32.042969 29.511719 32.257812 C 24.410156 35.578125 17.574219 34.859375 13.261719 30.546875 C 8.203125 25.488281 8.203125 17.257812 13.261719 12.195312 C 18.324219 7.136719 26.554688 7.136719 31.617188 12.195312 C 35.921875 16.503906 36.644531 23.332031 33.332031 28.429688 C 33.117188 28.761719 33.210938 29.203125 33.542969 29.417969 C 33.871094 29.628906 34.3125 29.535156 34.527344 29.207031 C 36.296875 26.480469 37.09375 23.191406 36.769531 19.941406 Z M 18.863281 3.15625 C 18.863281 2.605469 19.3125 2.15625 19.859375 2.15625 L 24.996094 2.15625 C 25.546875 2.15625 25.992188 2.605469 25.992188 3.15625 C 25.992188 3.707031 25.546875 4.15625 24.996094 4.15625 L 19.859375 4.15625 C 19.3125 4.15625 18.863281 3.707031 18.863281 3.15625 Z M 20.703125 7.082031 L 20.703125 5.582031 L 24.152344 5.582031 L 24.152344 7.078125 C 23.007812 6.941406 21.847656 6.941406 20.703125 7.082031 Z M 20.703125 7.082031 " fill-opacity="1" fill-rule="nonzero"/><path fill="#f4f1ed" d="M 32.121094 30.339844 C 31.933594 30.339844 31.75 30.414062 31.617188 30.546875 C 31.484375 30.679688 31.40625 30.863281 31.40625 31.050781 C 31.40625 31.238281 31.484375 31.425781 31.617188 31.558594 C 31.75 31.691406 31.933594 31.765625 32.121094 31.765625 C 32.308594 31.765625 32.492188 31.691406 32.625 31.558594 C 32.757812 31.425781 32.832031 31.238281 32.832031 31.050781 C 32.832031 30.863281 32.757812 30.679688 32.625 30.546875 C 32.492188 30.414062 32.308594 30.339844 32.121094 30.339844 Z M 32.121094 30.339844 " fill-opacity="1" fill-rule="nonzero"/><path fill="#f4f1ed" d="M 22.4375 10.3125 C 16.339844 10.3125 11.378906 15.273438 11.378906 21.371094 C 11.378906 27.472656 16.339844 32.433594 22.4375 32.433594 C 28.539062 32.433594 33.5 27.472656 33.5 21.371094 C 33.5 15.273438 28.539062 10.3125 22.4375 10.3125 Z M 22.4375 31.007812 C 17.125 31.007812 12.804688 26.683594 12.804688 21.371094 C 12.804688 16.058594 17.125 11.738281 22.4375 11.738281 C 27.753906 11.738281 32.074219 16.058594 32.074219 21.371094 C 32.074219 26.683594 27.753906 31.007812 22.4375 31.007812 Z M 22.4375 31.007812 " fill-opacity="1" fill-rule="nonzero"/><path fill="#f4f1ed" d="M 26.949219 15.855469 L 23.417969 19.386719 C 23.121094 19.238281 22.789062 19.15625 22.4375 19.15625 C 22.085938 19.15625 21.753906 19.238281 21.460938 19.386719 L 19.878906 17.804688 C 19.601562 17.527344 19.148438 17.527344 18.871094 17.804688 C 18.59375 18.082031 18.59375 18.535156 18.871094 18.8125 L 20.453125 20.394531 C 20.304688 20.6875 20.222656 21.019531 20.222656 21.371094 C 20.222656 22.59375 21.21875 23.589844 22.4375 23.589844 C 23.660156 23.589844 24.65625 22.59375 24.65625 21.371094 C 24.65625 21.019531 24.570312 20.6875 24.425781 20.394531 L 27.957031 16.863281 C 28.234375 16.582031 28.234375 16.132812 27.957031 15.855469 C 27.679688 15.574219 27.226562 15.574219 26.949219 15.855469 Z M 22.4375 22.164062 C 22.003906 22.164062 21.648438 21.808594 21.648438 21.371094 C 21.648438 20.9375 22.003906 20.582031 22.4375 20.582031 C 22.875 20.582031 23.230469 20.9375 23.230469 21.371094 C 23.230469 21.808594 22.875 22.164062 22.4375 22.164062 Z M 22.4375 22.164062 " fill-opacity="1" fill-rule="nonzero"/><path fill="#f4f1ed" d="M 30.0625 20.667969 L 29.402344 20.667969 C 29.007812 20.667969 28.6875 20.988281 28.6875 21.382812 C 28.6875 21.773438 29.007812 22.09375 29.402344 22.09375 L 30.0625 22.09375 C 30.457031 22.09375 30.777344 21.773438 30.777344 21.382812 C 30.777344 20.988281 30.457031 20.667969 30.0625 20.667969 Z M 30.0625 20.667969 " fill-opacity="1" fill-rule="nonzero"/><path fill="#f4f1ed" d="M 15.476562 20.652344 L 14.816406 20.652344 C 14.421875 20.652344 14.101562 20.96875 14.101562 21.363281 C 14.101562 21.757812 14.421875 22.078125 14.816406 22.078125 L 15.476562 22.078125 C 15.871094 22.078125 16.1875 21.757812 16.1875 21.363281 C 16.1875 20.96875 15.871094 20.652344 15.476562 20.652344 Z M 15.476562 20.652344 " fill-opacity="1" fill-rule="nonzero"/><path fill="#f4f1ed" d="M 22.449219 15.121094 C 22.839844 15.121094 23.160156 14.804688 23.160156 14.410156 L 23.160156 13.75 C 23.160156 13.355469 22.839844 13.035156 22.449219 13.035156 C 22.054688 13.035156 21.734375 13.355469 21.734375 13.75 L 21.734375 14.410156 C 21.734375 14.804688 22.054688 15.121094 22.449219 15.121094 Z M 22.449219 15.121094 " fill-opacity="1" fill-rule="nonzero"/><path fill="#f4f1ed" d="M 22.429688 27.621094 C 22.035156 27.621094 21.71875 27.941406 21.71875 28.335938 L 21.71875 28.996094 C 21.71875 29.390625 22.035156 29.710938 22.429688 29.710938 C 22.824219 29.710938 23.144531 29.390625 23.144531 28.996094 L 23.144531 28.335938 C 23.144531 27.941406 22.824219 27.621094 22.429688 27.621094 Z M 22.429688 27.621094 " fill-opacity="1" fill-rule="nonzero"/><path fill="#f4f1ed" d="M 1.046875 25.058594 C 0.859375 25.058594 0.675781 25.136719 0.542969 25.265625 C 0.410156 25.398438 0.335938 25.585938 0.335938 25.773438 C 0.335938 25.960938 0.410156 26.144531 0.542969 26.277344 C 0.675781 26.410156 0.859375 26.484375 1.046875 26.484375 C 1.234375 26.484375 1.417969 26.410156 1.550781 26.277344 C 1.683594 26.144531 1.761719 25.960938 1.761719 25.773438 C 1.761719 25.585938 1.683594 25.398438 1.550781 25.265625 C 1.417969 25.136719 1.234375 25.058594 1.046875 25.058594 Z M 1.046875 25.058594 " fill-opacity="1" fill-rule="nonzero"/></svg>