<svg width="149" height="85" viewBox="0 0 149 85" fill="none" xmlns="http://www.w3.org/2000/svg">
  <path
    d="M16.6133 38.7422C16.026 38.1269 15.4107 37.6375 14.7674 37.2739C14.1241 36.9103 13.4669 36.7285 12.7956 36.7285C11.8727 36.7285 11.0476 36.8963 10.3204 37.2319C9.59323 37.5675 8.96393 38.015 8.43253 38.5744C7.92909 39.1338 7.53753 39.777 7.25785 40.5042C7.00613 41.2314 6.88027 41.9866 6.88027 42.7697C6.88027 43.5528 7.00613 44.308 7.25785 45.0351C7.53753 45.7623 7.92909 46.4056 8.43253 46.965C8.96393 47.5243 9.59323 47.9718 10.3204 48.3075C11.0476 48.6431 11.8727 48.8109 12.7956 48.8109C13.5787 48.8109 14.3059 48.6571 14.9772 48.3494C15.6484 48.0138 16.2218 47.5383 16.6972 46.923L20.0535 50.531C19.55 51.0344 18.9627 51.4679 18.2915 51.8315C17.6482 52.1951 16.9909 52.4888 16.3197 52.7125C15.6484 52.9363 15.0051 53.0901 14.3898 53.174C13.7745 53.2859 13.2431 53.3418 12.7956 53.3418C11.2853 53.3418 9.85893 53.0901 8.51643 52.5867C7.17394 52.0832 6.01325 51.37 5.03435 50.4471C4.05544 49.5241 3.27232 48.4193 2.68498 47.1328C2.12561 45.8183 1.84593 44.3639 1.84593 42.7697C1.84593 41.1755 2.12561 39.7351 2.68498 38.4485C3.27232 37.134 4.05544 36.0153 5.03435 35.0923C6.01325 34.1693 7.17394 33.4561 8.51643 32.9527C9.85893 32.4493 11.2853 32.1976 12.7956 32.1976C14.0822 32.1976 15.3687 32.4493 16.6553 32.9527C17.9698 33.4282 19.1165 34.1973 20.0954 35.2601L16.6133 38.7422ZM21.6654 42.7697C21.6654 41.1755 21.9451 39.7351 22.5044 38.4485C23.0918 37.134 23.8749 36.0153 24.8538 35.0923C25.8327 34.1693 26.9934 33.4561 28.3359 32.9527C29.6784 32.4493 31.1048 32.1976 32.6151 32.1976C34.1254 32.1976 35.5518 32.4493 36.8943 32.9527C38.2368 33.4561 39.3975 34.1693 40.3764 35.0923C41.3553 36.0153 42.1244 37.134 42.6838 38.4485C43.2711 39.7351 43.5648 41.1755 43.5648 42.7697C43.5648 44.3639 43.2711 45.8183 42.6838 47.1328C42.1244 48.4193 41.3553 49.5241 40.3764 50.4471C39.3975 51.37 38.2368 52.0832 36.8943 52.5867C35.5518 53.0901 34.1254 53.3418 32.6151 53.3418C31.1048 53.3418 29.6784 53.0901 28.3359 52.5867C26.9934 52.0832 25.8327 51.37 24.8538 50.4471C23.8749 49.5241 23.0918 48.4193 22.5044 47.1328C21.9451 45.8183 21.6654 44.3639 21.6654 42.7697ZM26.6997 42.7697C26.6997 43.5528 26.8256 44.308 27.0773 45.0351C27.357 45.7623 27.7486 46.4056 28.252 46.965C28.7834 47.5243 29.4127 47.9718 30.1399 48.3075C30.867 48.6431 31.6921 48.8109 32.6151 48.8109C33.538 48.8109 34.3631 48.6431 35.0903 48.3075C35.8175 47.9718 36.4328 47.5243 36.9362 46.965C37.4676 46.4056 37.8592 45.7623 38.1109 45.0351C38.3906 44.308 38.5304 43.5528 38.5304 42.7697C38.5304 41.9866 38.3906 41.2314 38.1109 40.5042C37.8592 39.777 37.4676 39.1338 36.9362 38.5744C36.4328 38.015 35.8175 37.5675 35.0903 37.2319C34.3631 36.8963 33.538 36.7285 32.6151 36.7285C31.6921 36.7285 30.867 36.8963 30.1399 37.2319C29.4127 37.5675 28.7834 38.015 28.252 38.5744C27.7486 39.1338 27.357 39.777 27.0773 40.5042C26.8256 41.2314 26.6997 41.9866 26.6997 42.7697ZM47.8587 32.701H52.6414V35.9314H52.7253C53.2007 34.9245 53.9279 34.0575 54.9068 33.3303C55.8857 32.5751 57.2142 32.1976 58.8923 32.1976C60.2348 32.1976 61.3676 32.4213 62.2905 32.8688C63.2414 33.3163 64.0106 33.9036 64.5979 34.6308C65.1853 35.358 65.6048 36.1971 65.8565 37.148C66.1082 38.0989 66.2341 39.0918 66.2341 40.1267V52.8384H61.1997V42.6438C61.1997 42.0845 61.1718 41.4691 61.1158 40.7979C61.0599 40.0987 60.9061 39.4554 60.6544 38.8681C60.4306 38.2528 60.067 37.7493 59.5636 37.3578C59.0601 36.9382 58.3749 36.7285 57.5079 36.7285C56.6688 36.7285 55.9556 36.8683 55.3683 37.148C54.8089 37.4277 54.3335 37.8053 53.9419 38.2807C53.5783 38.7562 53.3126 39.3016 53.1448 39.9169C52.977 40.5322 52.8931 41.1755 52.8931 41.8467V52.8384H47.8587V32.701ZM69.18 36.9802V32.701H73.3333V26.8695H78.3676V32.701H83.9054V36.9802H78.3676V45.7903C78.3676 46.7972 78.5494 47.5943 78.913 48.1816C79.3046 48.7689 80.0597 49.0626 81.1785 49.0626C81.626 49.0626 82.1154 49.0207 82.6468 48.9368C83.1782 48.8249 83.5978 48.6571 83.9054 48.4333V52.6706C83.374 52.9223 82.7168 53.0901 81.9336 53.174C81.1785 53.2859 80.5072 53.3418 79.9199 53.3418C78.5774 53.3418 77.4726 53.188 76.6056 52.8803C75.7666 52.6006 75.0953 52.1671 74.5919 51.5798C74.1164 50.9645 73.7808 50.2093 73.585 49.3143C73.4172 48.4193 73.3333 47.3845 73.3333 46.2098V36.9802H69.18ZM91.4432 44.5317C91.611 46.042 92.1983 47.2167 93.2052 48.0558C94.2121 48.8948 95.4287 49.3143 96.8551 49.3143C98.1137 49.3143 99.1625 49.0626 100.002 48.5592C100.869 48.0278 101.624 47.3705 102.267 46.5874L105.875 49.3143C104.7 50.7687 103.386 51.8035 101.931 52.4189C100.477 53.0342 98.9527 53.3418 97.3585 53.3418C95.8482 53.3418 94.4218 53.0901 93.0793 52.5867C91.7368 52.0832 90.5762 51.37 89.5972 50.4471C88.6183 49.5241 87.8352 48.4193 87.2479 47.1328C86.6885 45.8183 86.4088 44.3639 86.4088 42.7697C86.4088 41.1755 86.6885 39.7351 87.2479 38.4485C87.8352 37.134 88.6183 36.0153 89.5972 35.0923C90.5762 34.1693 91.7368 33.4561 93.0793 32.9527C94.4218 32.4493 95.8482 32.1976 97.3585 32.1976C98.757 32.1976 100.03 32.4493 101.176 32.9527C102.351 33.4282 103.344 34.1274 104.155 35.0504C104.994 35.9733 105.637 37.12 106.085 38.4905C106.56 39.833 106.798 41.3852 106.798 43.1473V44.5317H91.4432ZM101.764 40.7559C101.736 39.2736 101.274 38.1129 100.379 37.2739C99.4841 36.4068 98.2395 35.9733 96.6453 35.9733C95.135 35.9733 93.9324 36.4068 93.0374 37.2739C92.1704 38.1409 91.639 39.3016 91.4432 40.7559H101.764ZM111.086 32.701H115.869V35.9314H115.953C116.428 34.9245 117.155 34.0575 118.134 33.3303C119.113 32.5751 120.442 32.1976 122.12 32.1976C123.462 32.1976 124.595 32.4213 125.518 32.8688C126.469 33.3163 127.238 33.9036 127.825 34.6308C128.413 35.358 128.832 36.1971 129.084 37.148C129.336 38.0989 129.462 39.0918 129.462 40.1267V52.8384H124.427V42.6438C124.427 42.0845 124.399 41.4691 124.343 40.7979C124.287 40.0987 124.134 39.4554 123.882 38.8681C123.658 38.2528 123.295 37.7493 122.791 37.3578C122.288 36.9382 121.602 36.7285 120.735 36.7285C119.896 36.7285 119.183 36.8683 118.596 37.148C118.036 37.4277 117.561 37.8053 117.169 38.2807C116.806 38.7562 116.54 39.3016 116.372 39.9169C116.205 40.5322 116.121 41.1755 116.121 41.8467V52.8384H111.086V32.701ZM132.408 36.9802V32.701H136.561V26.8695H141.595V32.701H147.133V36.9802H141.595V45.7903C141.595 46.7972 141.777 47.5943 142.141 48.1816C142.532 48.7689 143.287 49.0626 144.406 49.0626C144.854 49.0626 145.343 49.0207 145.874 48.9368C146.406 48.8249 146.825 48.6571 147.133 48.4333V52.6706C146.602 52.9223 145.944 53.0901 145.161 53.174C144.406 53.2859 143.735 53.3418 143.147 53.3418C141.805 53.3418 140.7 53.188 139.833 52.8803C138.994 52.6006 138.323 52.1671 137.819 51.5798C137.344 50.9645 137.008 50.2093 136.813 49.3143C136.645 48.4193 136.561 47.3845 136.561 46.2098V36.9802H132.408Z"
    fill="#453731" />
  <path
    d="M89.5368 65.9505C89.0979 65.3607 88.5561 64.9218 87.9114 64.6338C87.2668 64.332 86.5947 64.1811 85.8952 64.1811C85.0859 64.1811 84.3384 64.3457 83.6526 64.6749C82.9805 65.0041 82.3976 65.4499 81.9038 66.0122C81.41 66.5609 81.0259 67.2055 80.7516 67.9462C80.4773 68.6732 80.3401 69.4344 80.3401 70.2299C80.3401 71.0803 80.4773 71.8759 80.7516 72.6165C81.0259 73.3435 81.4031 73.9813 81.8832 74.5299C82.377 75.0649 82.9599 75.4901 83.632 75.8055C84.3178 76.121 85.0722 76.2787 85.8952 76.2787C86.7867 76.2787 87.5822 76.1073 88.2818 75.7644C88.9813 75.4078 89.5917 74.9003 90.1129 74.2419L91.409 75.3323C90.7507 76.2102 89.9551 76.8548 89.0224 77.2663C88.1035 77.6778 87.061 77.8835 85.8952 77.8835C84.8527 77.8835 83.8789 77.6915 82.9736 77.3074C82.0684 76.9234 81.2797 76.3953 80.6076 75.7232C79.9492 75.0374 79.428 74.2282 79.044 73.2955C78.6736 72.3628 78.4885 71.3409 78.4885 70.2299C78.4885 69.1601 78.6668 68.1588 79.0234 67.2261C79.3937 66.2934 79.9081 65.4842 80.5665 64.7984C81.2248 64.1126 82.0066 63.5708 82.9119 63.173C83.8172 62.7752 84.8116 62.5764 85.8952 62.5764C86.8827 62.5764 87.8291 62.7547 88.7344 63.1113C89.6534 63.4679 90.4215 64.0508 91.0387 64.8601L89.5368 65.9505ZM100.587 77.8835C99.4762 77.8835 98.4543 77.6915 97.5216 77.3074C96.6027 76.9234 95.8003 76.3953 95.1145 75.7232C94.4424 75.0374 93.9143 74.2282 93.5303 73.2955C93.1599 72.3491 92.9748 71.3272 92.9748 70.2299C92.9748 69.1326 93.1599 68.1177 93.5303 67.185C93.9143 66.2385 94.4424 65.4293 95.1145 64.7572C95.8003 64.0714 96.6027 63.5365 97.5216 63.1524C98.4543 62.7684 99.4762 62.5764 100.587 62.5764C101.698 62.5764 102.713 62.7684 103.632 63.1524C104.565 63.5365 105.367 64.0714 106.039 64.7572C106.725 65.4293 107.253 66.2385 107.624 67.185C108.008 68.1177 108.2 69.1326 108.2 70.2299C108.2 71.3272 108.008 72.3491 107.624 73.2955C107.253 74.2282 106.725 75.0374 106.039 75.7232C105.367 76.3953 104.565 76.9234 103.632 77.3074C102.713 77.6915 101.698 77.8835 100.587 77.8835ZM100.587 76.2787C101.438 76.2787 102.213 76.121 102.912 75.8055C103.625 75.4901 104.236 75.058 104.743 74.5094C105.251 73.9607 105.642 73.3229 105.916 72.596C106.204 71.8553 106.348 71.0666 106.348 70.2299C106.348 69.3933 106.204 68.6114 105.916 67.8845C105.642 67.1438 105.251 66.4992 104.743 65.9505C104.236 65.4019 103.625 64.9698 102.912 64.6543C102.213 64.3389 101.438 64.1811 100.587 64.1811C99.7368 64.1811 98.955 64.3389 98.2417 64.6543C97.5422 64.9698 96.9387 65.4019 96.4312 65.9505C95.9237 66.4992 95.526 67.1438 95.2379 67.8845C94.9636 68.6114 94.8264 69.3933 94.8264 70.2299C94.8264 71.0666 94.9636 71.8553 95.2379 72.596C95.526 73.3229 95.9237 73.9607 96.4312 74.5094C96.9387 75.058 97.5422 75.4901 98.2417 75.8055C98.955 76.121 99.7368 76.2787 100.587 76.2787ZM110.709 62.9467H116.306C116.786 62.9467 117.293 63.0015 117.828 63.1113C118.363 63.221 118.891 63.3993 119.412 63.6462C119.947 63.8794 120.455 64.188 120.935 64.572C121.428 64.9561 121.861 65.4224 122.231 65.9711C122.601 66.506 122.896 67.1301 123.116 67.8433C123.335 68.5429 123.445 69.3384 123.445 70.2299C123.445 71.1215 123.335 71.9239 123.116 72.6371C122.896 73.3366 122.601 73.9607 122.231 74.5094C121.861 75.0443 121.428 75.5038 120.935 75.8878C120.455 76.2719 119.947 76.5873 119.412 76.8342C118.891 77.0674 118.363 77.2389 117.828 77.3486C117.293 77.4583 116.786 77.5132 116.306 77.5132H110.709V62.9467ZM112.438 75.9084H115.729C116.566 75.9084 117.341 75.7987 118.054 75.5792C118.768 75.3598 119.385 75.0237 119.906 74.5711C120.427 74.1047 120.839 73.5149 121.14 72.8017C121.442 72.0885 121.593 71.2312 121.593 70.2299C121.593 69.2287 121.442 68.3714 121.14 67.6582C120.839 66.9449 120.427 66.362 119.906 65.9094C119.385 65.443 118.768 65.1001 118.054 64.8807C117.341 64.6612 116.566 64.5515 115.729 64.5515H112.438V75.9084ZM126.227 62.9467H135.382V64.5515H127.955V69.1189H134.888V70.7237H127.955V75.9084H135.752V77.5132H126.227V62.9467ZM145.335 65.5185C145.047 65.0521 144.663 64.7161 144.183 64.5103C143.703 64.2909 143.202 64.1811 142.681 64.1811C142.297 64.1811 141.92 64.2291 141.55 64.3252C141.179 64.4212 140.843 64.5652 140.542 64.7572C140.254 64.9492 140.02 65.203 139.842 65.5185C139.664 65.8339 139.575 66.2043 139.575 66.6295C139.575 66.9586 139.623 67.2535 139.719 67.5141C139.828 67.761 140 67.9874 140.233 68.1931C140.466 68.3988 140.782 68.5909 141.179 68.7692C141.577 68.9475 142.064 69.1258 142.64 69.3041C143.202 69.4824 143.744 69.6744 144.265 69.8802C144.8 70.0859 145.267 70.3465 145.665 70.662C146.076 70.9775 146.398 71.3752 146.632 71.8553C146.878 72.3216 147.002 72.9114 147.002 73.6247C147.002 74.3516 146.858 74.9826 146.57 75.5175C146.282 76.0524 145.898 76.4982 145.418 76.8548C144.951 77.1977 144.409 77.4515 143.792 77.6161C143.175 77.7944 142.537 77.8835 141.879 77.8835C141.454 77.8835 141.028 77.8424 140.603 77.7601C140.178 77.6915 139.767 77.5818 139.369 77.4309C138.985 77.2663 138.621 77.0606 138.278 76.8137C137.935 76.5531 137.641 76.2376 137.394 75.8673L138.875 74.6534C139.191 75.1883 139.629 75.5929 140.192 75.8673C140.754 76.1416 141.351 76.2787 141.982 76.2787C142.352 76.2787 142.722 76.2239 143.093 76.1141C143.477 76.0044 143.82 75.8467 144.121 75.6409C144.423 75.4215 144.67 75.154 144.862 74.8385C145.054 74.5231 145.15 74.1596 145.15 73.7481C145.15 73.2955 145.075 72.932 144.924 72.6577C144.773 72.3696 144.54 72.1228 144.224 71.917C143.909 71.7113 143.511 71.5261 143.031 71.3615C142.551 71.1969 141.989 71.0049 141.344 70.7854C140.823 70.6208 140.343 70.4357 139.904 70.2299C139.465 70.0105 139.081 69.7499 138.752 69.4481C138.436 69.1326 138.182 68.7623 137.99 68.3371C137.812 67.8982 137.723 67.377 137.723 66.7735C137.723 66.074 137.86 65.4636 138.134 64.9424C138.409 64.4212 138.779 63.9891 139.245 63.6462C139.712 63.2896 140.24 63.0221 140.83 62.8438C141.419 62.6655 142.037 62.5764 142.681 62.5764C143.504 62.5764 144.252 62.7067 144.924 62.9673C145.61 63.2141 146.22 63.6531 146.755 64.284L145.335 65.5185Z"
    fill="#454545" />
  <path
    d="M11.5326 21.8342L10.5381 22.1507L11.7285 16.0176C11.7285 16.0176 11.7637 15.8418 11.834 15.4902C11.8943 15.1989 11.9244 14.9578 11.9244 14.7669C11.9244 14.3249 11.7486 14.1039 11.397 14.1039C11.0655 14.1039 10.6637 14.3299 10.1915 14.782C9.71933 15.224 9.22205 15.8669 8.69966 16.7108C8.3581 17.2533 8.06174 17.7757 7.8106 18.278C7.56949 18.7803 7.34346 19.3177 7.13249 19.8903C6.93157 20.4529 6.73568 21.1009 6.5448 21.8342L5.61053 22.1507L7.16263 13.8025L8.60925 13.1847L7.29825 18.6547C7.97133 17.0976 8.73985 15.8217 9.6038 14.8272C10.4778 13.8226 11.2614 13.3203 11.9546 13.3203C12.708 13.3203 13.0847 13.7472 13.0847 14.6011C13.0847 14.8925 13.0094 15.4098 12.8587 16.1532L12.3614 18.3985C13.3359 16.53 14.1597 15.2139 14.8327 14.4505C15.5058 13.6769 16.1739 13.2901 16.8369 13.2901C17.2086 13.2901 17.4999 13.4006 17.7109 13.6217C17.9219 13.8427 18.0274 14.1591 18.0274 14.571C18.0274 14.9025 17.9269 15.4751 17.726 16.2889L17.2588 18.1423L17.1081 18.73C16.9675 19.3529 16.8972 19.815 16.8972 20.1164C16.8972 20.4379 16.9524 20.699 17.0629 20.9C17.1734 21.0908 17.3141 21.1863 17.4849 21.1863C17.8063 21.1863 18.3086 20.8146 18.9918 20.0712L19.2178 20.2821L19.0822 20.4479C18.5096 21.121 18.0826 21.5781 17.8013 21.8192C17.5301 22.0502 17.2789 22.1658 17.0479 22.1658C16.7364 22.1658 16.4702 22.01 16.2492 21.6986C16.0382 21.3771 15.9328 20.9803 15.9328 20.5082C15.9328 20.2168 15.9981 19.7397 16.1287 19.0766L16.6862 15.9573L16.7766 15.4149C16.8369 15.1135 16.867 14.8724 16.867 14.6916C16.867 14.5107 16.8118 14.3651 16.7013 14.2546C16.5908 14.144 16.4401 14.0888 16.2492 14.0888C16.0282 14.0888 15.7821 14.1842 15.5108 14.3751C15.2496 14.5559 14.9684 14.8372 14.667 15.219C14.3656 15.6007 14.0291 16.103 13.6574 16.7259C13.1551 17.5798 12.7482 18.3784 12.4368 19.1218C12.1253 19.8552 11.824 20.7593 11.5326 21.8342ZM26.2399 19.6643L26.5112 19.8903C25.8883 20.7141 25.2805 21.3119 24.6878 21.6836C24.0951 22.0452 23.4572 22.226 22.7741 22.226C21.9603 22.226 21.3074 21.9548 20.8151 21.4123C20.3229 20.8698 20.0767 20.1515 20.0767 19.2574C20.0767 18.3533 20.3128 17.4391 20.785 16.5149C21.2672 15.5806 21.8649 14.8121 22.5782 14.2093C23.3015 13.5965 24.0148 13.2901 24.718 13.2901C25.1299 13.2901 25.4664 13.4107 25.7276 13.6518C25.9988 13.8929 26.1345 14.2043 26.1345 14.5861C26.1345 15.3596 25.7125 16.1332 24.8687 16.9067C24.0248 17.6802 22.8745 18.3382 21.4179 18.8807C21.4078 18.9611 21.4028 19.0515 21.4028 19.152C21.4028 19.8451 21.5937 20.4127 21.9754 20.8548C22.3572 21.2867 22.8494 21.5027 23.4522 21.5027C23.9243 21.5027 24.3814 21.3571 24.8235 21.0657C25.2655 20.7643 25.7376 20.2972 26.2399 19.6643ZM21.4179 18.5191C22.5028 18.0369 23.3366 17.4994 23.9193 16.9067C24.3111 16.5049 24.6276 16.0729 24.8687 15.6108C25.1098 15.1486 25.2303 14.7317 25.2303 14.36C25.2303 13.8879 25.0143 13.6518 24.5823 13.6518C23.9294 13.6518 23.2663 14.1692 22.5932 15.2039C21.9302 16.2286 21.5384 17.3336 21.4179 18.5191ZM27.0235 9.73387L23.8741 12.0545L23.5727 11.949L26.044 9.46262L27.0235 9.73387ZM30.4291 13.9532L29.2839 18.9711C29.1633 19.5237 29.103 19.9155 29.103 20.1465C29.103 20.5082 29.1884 20.7995 29.3592 21.0205C29.53 21.2415 29.756 21.352 30.0373 21.352C30.3086 21.352 30.5547 21.2767 30.7757 21.126C31.0067 20.9653 31.3533 20.6388 31.8154 20.1465L31.9963 19.9657L32.2223 20.1917C31.6296 20.915 31.1323 21.4274 30.7305 21.7288C30.3387 22.0201 29.9519 22.1658 29.5702 22.1658C29.088 22.1658 28.7012 22.01 28.4099 21.6986C28.1286 21.3771 27.9879 20.9602 27.9879 20.4479C27.9879 20.0662 28.0633 19.5136 28.214 18.7903L29.1935 13.9532H27.7468L27.8523 13.4408H29.2989L30.1428 9.37221L31.5894 8.79959L30.5346 13.4408H32.9758L32.8703 13.9532H30.4291ZM33.0963 19.1068C33.0963 18.2026 33.3374 17.3035 33.8196 16.4094C34.3119 15.5053 34.9448 14.7719 35.7183 14.2093C36.4919 13.6468 37.2805 13.3655 38.0841 13.3655C38.928 13.3655 39.6061 13.6468 40.1184 14.2093C40.6408 14.7619 40.902 15.4802 40.902 16.3642C40.902 17.3286 40.6609 18.2629 40.1787 19.167C39.7066 20.0712 39.0787 20.8146 38.2951 21.3972C37.5216 21.9699 36.738 22.2562 35.9443 22.2562C35.0904 22.2562 34.4023 21.9699 33.8799 21.3972C33.3575 20.8146 33.0963 20.0511 33.0963 19.1068ZM39.5458 15.7916C39.5458 15.1888 39.3951 14.6916 39.0938 14.2998C38.8024 13.908 38.4257 13.7121 37.9636 13.7121C37.5417 13.7121 37.1348 13.8477 36.743 14.1189C36.3613 14.3902 36.0096 14.787 35.6882 15.3094C35.3265 15.9121 35.0251 16.6154 34.784 17.419C34.553 18.2227 34.4374 18.936 34.4374 19.5588C34.4374 20.3022 34.5831 20.8749 34.8744 21.2767C35.1658 21.6785 35.5827 21.8794 36.1252 21.8794C36.9992 21.8794 37.7677 21.2717 38.4307 20.0561C38.7723 19.4333 39.0435 18.7351 39.2444 17.9615C39.4454 17.188 39.5458 16.4647 39.5458 15.7916ZM53.0778 0.767835L49.0845 18.1423C48.8735 19.0666 48.768 19.7095 48.768 20.0712C48.768 20.3926 48.8233 20.6538 48.9338 20.8548C49.0543 21.0557 49.2151 21.1561 49.416 21.1561C49.6772 21.1561 49.9936 20.9602 50.3653 20.5684L50.8023 20.1314C50.8124 20.1214 50.8224 20.1114 50.8325 20.1013C50.8425 20.0913 50.8576 20.0812 50.8777 20.0712L51.1037 20.2821L50.9832 20.4178C50.6014 20.8397 50.4055 21.0557 50.3955 21.0657L49.8982 21.563C49.6471 21.8141 49.4612 21.9699 49.3406 22.0301C49.2301 22.1005 49.1046 22.1356 48.9639 22.1356C48.6324 22.1356 48.3561 21.9648 48.1351 21.6233C47.9141 21.2817 47.8036 20.8899 47.8036 20.4479C47.8036 20.1867 47.8739 19.7095 48.0146 19.0163L48.1803 18.1574C47.9191 18.7903 47.5073 19.4785 46.9447 20.2219C45.93 21.5278 44.9455 22.1808 43.9912 22.1808C43.4185 22.1808 42.9665 21.9749 42.635 21.563C42.3034 21.1411 42.1377 20.5735 42.1377 19.8602C42.1377 18.8657 42.3989 17.8611 42.9213 16.8464C43.4437 15.8217 44.1067 14.9779 44.9104 14.3148C45.7241 13.6518 46.5328 13.3203 47.3365 13.3203C47.9292 13.3203 48.4817 13.4961 48.9941 13.8477L51.4503 1.53635L53.0778 0.767835ZM48.8584 14.6011C48.768 14.3299 48.5822 14.1139 48.3009 13.9532C48.0196 13.7824 47.7182 13.697 47.3968 13.697C46.9246 13.697 46.4374 13.908 45.9351 14.3299C45.4428 14.7518 44.9757 15.3496 44.5337 16.1231C44.2122 16.6957 43.946 17.3236 43.735 18.0067C43.5341 18.6798 43.4336 19.2926 43.4336 19.8451C43.4336 20.3273 43.5341 20.7141 43.735 21.0054C43.946 21.2968 44.2323 21.4424 44.5939 21.4424C45.0159 21.4424 45.4679 21.2265 45.9501 20.7945C46.4424 20.3625 46.9346 19.7397 47.4269 18.9259C47.7584 18.3734 48.0196 17.8008 48.2105 17.2081C48.4415 16.4446 48.6073 15.8318 48.7078 15.3697L48.8584 14.6011ZM51.9626 19.1068C51.9626 18.2026 52.2038 17.3035 52.686 16.4094C53.1782 15.5053 53.8111 14.7719 54.5846 14.2093C55.3582 13.6468 56.1468 13.3655 56.9505 13.3655C57.7943 13.3655 58.4724 13.6468 58.9848 14.2093C59.5072 14.7619 59.7684 15.4802 59.7684 16.3642C59.7684 17.3286 59.5273 18.2629 59.0451 19.167C58.5729 20.0712 57.945 20.8146 57.1614 21.3972C56.3879 21.9699 55.6043 22.2562 54.8107 22.2562C53.9568 22.2562 53.2686 21.9699 52.7462 21.3972C52.2238 20.8146 51.9626 20.0511 51.9626 19.1068ZM58.4122 15.7916C58.4122 15.1888 58.2615 14.6916 57.9601 14.2998C57.6688 13.908 57.292 13.7121 56.8299 13.7121C56.408 13.7121 56.0011 13.8477 55.6093 14.1189C55.2276 14.3902 54.876 14.787 54.5545 15.3094C54.1929 15.9121 53.8915 16.6154 53.6504 17.419C53.4193 18.2227 53.3038 18.936 53.3038 19.5588C53.3038 20.3022 53.4495 20.8749 53.7408 21.2767C54.0321 21.6785 54.449 21.8794 54.9915 21.8794C55.8655 21.8794 56.634 21.2717 57.2971 20.0561C57.6386 19.4333 57.9099 18.7351 58.1108 17.9615C58.3117 17.188 58.4122 16.4647 58.4122 15.7916Z"
    fill="#454545" />
  <line x1="69.5602" y1="18.7297" x2="148.339" y2="18.7297" stroke="#DAD7D6" stroke-width="0.979133" />
  <line x1="5.8667" y1="69.8517" x2="69.5601" y2="69.8517" stroke="#DAD7D6" stroke-width="0.979133" />
</svg>
  