<svg xmlns="http://www.w3.org/2000/svg" xmlns:xlink="http://www.w3.org/1999/xlink" width="50" zoomAndPan="magnify" viewBox="0 0 37.5 37.499999" height="50" preserveAspectRatio="xMidYMid meet" version="1.0"><defs><clipPath id="83ddffad0d"><path d="M 4.441406 3.699219 L 33.304688 3.699219 L 33.304688 32.566406 L 4.441406 32.566406 Z M 4.441406 3.699219 " clip-rule="nonzero"/></clipPath></defs><g clip-path="url(#83ddffad0d)"><path stroke-linecap="butt" transform="matrix(0.12895, 0, 0, 0.12895, 4.44079, 3.700658)" fill-opacity="1" fill="#ffffff" fill-rule="nonzero" stroke-linejoin="miter" d="M 203.450463 70.358752 C 192.605682 29.251577 154.982165 -0.0111585 111.936258 -0.0111585 C 69.132692 -0.0111585 31.569761 29.251577 20.51293 70.328459 C 9.728734 72.327777 1.519416 81.809387 1.519416 93.199438 L 1.519416 119.402611 C 1.519416 129.580954 8.123221 138.274955 17.271613 141.395102 L 17.271613 152.361054 C 17.271613 185.258912 44.050348 212.037646 76.948205 212.037646 L 84.309328 212.037646 C 87.217426 218.974672 94.093866 223.851794 102.091135 223.851794 L 121.751088 223.851794 C 132.383821 223.851794 141.047529 215.188086 141.047529 204.52506 C 141.047529 193.892327 132.383821 185.228619 121.751088 185.228619 L 102.091135 185.228619 C 94.093866 185.228619 87.217426 190.105741 84.309328 197.042767 L 76.948205 197.042767 C 52.320251 197.042767 32.266493 176.989008 32.266493 152.361054 L 32.266493 135.154808 C 32.266493 131.00471 28.904004 127.642222 24.784199 127.642222 C 20.210003 127.642222 16.514296 123.946514 16.514296 119.402611 L 16.514296 93.199438 C 16.514296 88.625242 20.210003 84.929534 24.753906 84.929534 L 26.510882 84.929534 C 26.510882 84.929534 26.541175 84.929534 26.541175 84.929534 C 30.115712 84.929534 33.175273 82.445534 33.902298 78.931582 C 41.475469 41.883627 74.282449 15.014014 111.936258 15.014014 C 149.802116 15.014014 182.639388 41.883627 190.030803 78.90129 C 190.727535 82.415241 193.817389 84.929534 197.391926 84.929534 L 199.058024 84.929534 C 203.63222 84.929534 207.327927 88.625242 207.327927 93.199438 L 207.327927 119.402611 C 207.327927 123.946514 203.63222 127.642222 199.058024 127.642222 C 194.938219 127.642222 191.57573 131.00471 191.57573 135.154808 C 191.57573 139.274614 194.938219 142.637102 199.058024 142.637102 C 211.902123 142.637102 222.322807 132.216418 222.322807 119.402611 L 222.322807 93.199438 C 222.322807 81.869973 214.174074 72.388362 203.450463 70.358752 Z M 102.091135 200.223499 L 121.751088 200.223499 C 124.113918 200.223499 126.05265 202.162231 126.05265 204.52506 C 126.05265 206.918182 124.113918 208.856914 121.751088 208.856914 L 102.091135 208.856914 C 99.728305 208.856914 97.789573 206.918182 97.789573 204.52506 C 97.789573 202.162231 99.728305 200.223499 102.091135 200.223499 Z M 102.091135 200.223499 " stroke="#ffffff" stroke-width="1" stroke-opacity="1" stroke-miterlimit="4"/></g><path stroke-linecap="butt" transform="matrix(0.12895, 0, 0, 0.12895, 4.44079, 3.700658)" fill-opacity="1" fill="#ffffff" fill-rule="nonzero" stroke-linejoin="miter" d="M 111.905965 36.037138 C 73.191912 36.037138 41.687518 67.541532 41.687518 106.285878 C 41.687518 144.999931 73.191912 176.534618 111.905965 176.534618 C 150.650311 176.534618 182.154705 144.999931 182.154705 106.285878 C 182.154705 67.541532 150.650311 36.037138 111.905965 36.037138 Z M 111.905965 161.539738 C 81.461815 161.539738 56.682398 136.730028 56.682398 106.285878 C 56.682398 75.811436 81.461815 51.032018 111.905965 51.032018 C 142.380408 51.032018 167.159825 75.811436 167.159825 106.285878 C 167.159825 136.730028 142.380408 161.539738 111.905965 161.539738 Z M 111.905965 161.539738 " stroke="#ffffff" stroke-width="1" stroke-opacity="1" stroke-miterlimit="4"/></svg>