<svg xmlns="http://www.w3.org/2000/svg" xmlns:xlink="http://www.w3.org/1999/xlink" width="50" zoomAndPan="magnify" viewBox="0 0 37.5 37.499999" height="50" preserveAspectRatio="xMidYMid meet" version="1.0"><defs><clipPath id="b878688caa"><path d="M 0 0 L 37.007812 0 L 37.007812 37.007812 L 0 37.007812 Z M 0 0 " clip-rule="nonzero"/></clipPath></defs><g clip-path="url(#b878688caa)"><path fill="#f4f1ed" d="M 18.503906 0 C 28.722656 0 37.007812 8.285156 37.007812 18.503906 C 37.007812 28.722656 28.722656 37.007812 18.503906 37.007812 C 8.285156 37.007812 0 28.722656 0 18.503906 C 0 8.285156 8.285156 0 18.503906 0 Z M 7.960938 11.894531 L 22.898438 11.894531 C 23.734375 11.894531 24.417969 12.578125 24.417969 13.414062 L 24.417969 16.230469 C 24.417969 16.3125 24.460938 16.382812 24.535156 16.421875 C 24.609375 16.457031 24.691406 16.449219 24.757812 16.402344 L 29.441406 12.925781 C 29.660156 12.761719 29.933594 12.738281 30.179688 12.863281 C 30.421875 12.984375 30.566406 13.21875 30.566406 13.492188 L 30.566406 23.648438 C 30.566406 23.917969 30.421875 24.152344 30.179688 24.277344 C 29.933594 24.398438 29.660156 24.375 29.441406 24.210938 L 24.757812 20.738281 C 24.691406 20.6875 24.609375 20.679688 24.535156 20.71875 C 24.460938 20.753906 24.417969 20.824219 24.417969 20.90625 L 24.417969 23.59375 C 24.417969 24.429688 23.734375 25.113281 22.898438 25.113281 L 7.960938 25.113281 C 7.125 25.113281 6.441406 24.429688 6.441406 23.59375 L 6.441406 13.414062 C 6.441406 12.578125 7.125 11.894531 7.960938 11.894531 Z M 7.960938 11.894531 " fill-opacity="1" fill-rule="evenodd"/></g></svg>