<svg width="28" height="33" viewBox="0 0 28 33" fill="none" xmlns="http://www.w3.org/2000/svg">
<path d="M9.10076 9.40538C4.02285 9.40538 2.33337 14.5054 2.33337 18.7528C2.33337 23.8512 5.71707 31.498 9.10076 31.498C10.9402 31.4191 11.9413 30.6486 14.1755 30.6486C16.3955 30.6486 16.7129 31.498 19.2502 31.498C21.7876 31.498 26.0176 26.3996 26.0176 23.0017C25.9703 22.9843 21.835 22.3165 21.7876 17.9017C21.756 14.2149 25.8755 12.8822 26.0176 12.8049C24.2871 10.2691 21.025 9.46854 20.0966 9.40538C17.6729 9.2159 15.3092 11.1059 14.1755 11.1059C13.0244 11.1059 10.9608 9.40538 9.10076 9.40538Z" stroke="#AB7650" stroke-width="3" stroke-linecap="round" stroke-linejoin="round"/>
<path d="M14.965 4.65595C15.8025 4.65595 16.6057 4.32324 17.1979 3.73102C17.7902 3.1388 18.1229 2.33557 18.1229 1.49805C17.2853 1.49805 16.4821 1.83075 15.8899 2.42297C15.2977 3.0152 14.965 3.81842 14.965 4.65595Z" stroke="#AB7650" stroke-width="3" stroke-linecap="round" stroke-linejoin="round"/>
</svg>
