<svg width="21" height="20" viewBox="0 0 21 20" fill="none" xmlns="http://www.w3.org/2000/svg">
<path fill-rule="evenodd" clip-rule="evenodd" d="M10.793 3.29279C10.9805 3.10532 11.2348 3 11.5 3C11.7652 3 12.0195 3.10532 12.207 3.29279L18.207 9.29279C18.3945 9.48031 18.4998 9.73462 18.4998 9.99979C18.4998 10.265 18.3945 10.5193 18.207 10.7068L12.207 16.7068C12.0184 16.8889 11.7658 16.9897 11.5036 16.9875C11.2414 16.9852 10.9906 16.88 10.8052 16.6946C10.6198 16.5092 10.5146 16.2584 10.5123 15.9962C10.51 15.734 10.6108 15.4814 10.793 15.2928L15.086 10.9998H3.5C3.23478 10.9998 2.98043 10.8944 2.79289 10.7069C2.60536 10.5194 2.5 10.265 2.5 9.99979C2.5 9.73457 2.60536 9.48022 2.79289 9.29268C2.98043 9.10514 3.23478 8.99979 3.5 8.99979H15.086L10.793 4.70679C10.6055 4.51926 10.5002 4.26495 10.5002 3.99979C10.5002 3.73462 10.6055 3.48031 10.793 3.29279Z" fill="#F5F5F4"/>
</svg>
