<svg width="40" height="40" viewBox="0 0 40 40" fill="none" xmlns="http://www.w3.org/2000/svg">
<g clip-path="url(#clip0_273_778)">
<path d="M17.1226 21.1206L19.7892 23.7873L25.1226 18.4539M9.12256 21.1206C9.12256 22.6965 9.43295 24.2569 10.036 25.7128C10.6391 27.1687 11.523 28.4916 12.6373 29.6059C13.7516 30.7202 15.0745 31.6041 16.5304 32.2072C17.9863 32.8102 19.5467 33.1206 21.1226 33.1206C22.6984 33.1206 24.2589 32.8102 25.7148 32.2072C27.1707 31.6041 28.4935 30.7202 29.6078 29.6059C30.7221 28.4916 31.6061 27.1687 32.2091 25.7128C32.8122 24.2569 33.1226 22.6965 33.1226 21.1206C33.1226 19.5447 32.8122 17.9843 32.2091 16.5284C31.6061 15.0725 30.7221 13.7496 29.6078 12.6353C28.4935 11.521 27.1707 10.6371 25.7148 10.0341C24.2589 9.43099 22.6984 9.12061 21.1226 9.12061C19.5467 9.12061 17.9863 9.43099 16.5304 10.0341C15.0745 10.6371 13.7516 11.521 12.6373 12.6353C11.523 13.7496 10.6391 15.0725 10.036 16.5284C9.43295 17.9843 9.12256 19.5447 9.12256 21.1206Z" stroke="#151414" stroke-width="3" stroke-linecap="round" stroke-linejoin="round"/>
</g>
<defs>
<clipPath id="clip0_273_778">
<rect width="40" height="40" fill="white" transform="translate(0 -0.00195312)"/>
</clipPath>
</defs>
</svg>
