<svg width="34" height="33" viewBox="0 0 34 33" fill="none" xmlns="http://www.w3.org/2000/svg">
<path d="M13.875 3.69305C14.585 0.76638 18.7483 0.76638 19.4583 3.69305C19.5648 4.13271 19.7737 4.54101 20.0678 4.88471C20.362 5.22841 20.7331 5.4978 21.151 5.67096C21.569 5.84411 22.0219 5.91613 22.4729 5.88116C22.924 5.84619 23.3604 5.70522 23.7466 5.46971C26.3183 3.90305 29.2633 6.84638 27.6966 9.41971C27.4615 9.80581 27.3207 10.2419 27.2858 10.6927C27.2509 11.1434 27.3229 11.596 27.4958 12.0137C27.6688 12.4314 27.9379 12.8023 28.2812 13.0965C28.6245 13.3906 29.0324 13.5996 29.4716 13.7064C32.3983 14.4164 32.3983 18.5797 29.4716 19.2897C29.032 19.3962 28.6237 19.6051 28.28 19.8992C27.9363 20.1934 27.6669 20.5645 27.4937 20.9825C27.3206 21.4004 27.2485 21.8533 27.2835 22.3044C27.3185 22.7554 27.4595 23.1918 27.695 23.578C29.2616 26.1497 26.3183 29.0947 23.745 27.528C23.3589 27.2929 22.9227 27.1521 22.472 27.1172C22.0213 27.0824 21.5687 27.1543 21.151 27.3273C20.7333 27.5002 20.3623 27.7693 20.0682 28.1126C19.7741 28.4559 19.5651 28.8638 19.4583 29.303C18.7483 32.2297 14.585 32.2297 13.875 29.303C13.7684 28.8634 13.5596 28.4551 13.2654 28.1114C12.9713 27.7677 12.6001 27.4983 12.1822 27.3251C11.7643 27.152 11.3113 27.08 10.8603 27.1149C10.4093 27.1499 9.97288 27.2909 9.58663 27.5264C7.01496 29.093 4.06996 26.1497 5.63663 23.5764C5.87179 23.1903 6.01254 22.7542 6.04743 22.3034C6.08232 21.8527 6.01036 21.4001 5.83741 20.9824C5.66446 20.5647 5.39539 20.1937 5.05208 19.8996C4.70877 19.6055 4.3009 19.3965 3.86163 19.2897C0.934959 18.5797 0.934959 14.4164 3.86163 13.7064C4.30129 13.5999 4.70959 13.391 5.05329 13.0969C5.39699 12.8027 5.66638 12.4316 5.83954 12.0136C6.01269 11.5957 6.08471 11.1428 6.04974 10.6917C6.01477 10.2407 5.8738 9.8043 5.63829 9.41805C4.07163 6.84638 7.01496 3.90138 9.58829 5.46805C11.255 6.48138 13.415 5.58471 13.875 3.69305Z" stroke="#AB7650" stroke-width="3" stroke-linecap="round" stroke-linejoin="round"/>
<path d="M11.6666 16.498C11.6666 17.8241 12.1934 19.0959 13.1311 20.0336C14.0688 20.9713 15.3405 21.498 16.6666 21.498C17.9927 21.498 19.2645 20.9713 20.2022 20.0336C21.1398 19.0959 21.6666 17.8241 21.6666 16.498C21.6666 15.172 21.1398 13.9002 20.2022 12.9625C19.2645 12.0248 17.9927 11.498 16.6666 11.498C15.3405 11.498 14.0688 12.0248 13.1311 12.9625C12.1934 13.9002 11.6666 15.172 11.6666 16.498Z" stroke="#AB7650" stroke-width="3" stroke-linecap="round" stroke-linejoin="round"/>
</svg>
