<svg width="1188" height="482" viewBox="0 0 1188 482" fill="none" xmlns="http://www.w3.org/2000/svg">
<path d="M1060.25 84.7497V84.808M987.333 87.6663C987.333 81.478 989.792 75.543 994.167 71.1672C998.543 66.7913 1004.48 64.333 1010.67 64.333H1057.33C1063.52 64.333 1069.46 66.7913 1073.83 71.1672C1078.21 75.543 1080.67 81.478 1080.67 87.6663V134.333C1080.67 140.521 1078.21 146.456 1073.83 150.832C1069.46 155.208 1063.52 157.666 1057.33 157.666H1010.67C1004.48 157.666 998.543 155.208 994.167 150.832C989.792 146.456 987.333 140.521 987.333 134.333V87.6663ZM1016.5 111C1016.5 115.641 1018.34 120.092 1021.63 123.374C1024.91 126.656 1029.36 128.5 1034 128.5C1038.64 128.5 1043.09 126.656 1046.37 123.374C1049.66 120.092 1051.5 115.641 1051.5 111C1051.5 106.358 1049.66 101.907 1046.37 98.6253C1043.09 95.3434 1038.64 93.4997 1034 93.4997C1029.36 93.4997 1024.91 95.3434 1021.63 98.6253C1018.34 101.907 1016.5 106.358 1016.5 111Z" stroke="#AB7650" stroke-opacity="0.1" stroke-width="12" stroke-linecap="round" stroke-linejoin="round"/>
<path d="M256.167 290.5H337.833M256.167 325.5H337.833M291.167 261.333L267.833 354.666M326.167 261.333L302.833 354.666" stroke="#AB7650" stroke-opacity="0.1" stroke-width="12" stroke-linecap="round" stroke-linejoin="round"/>
<path d="M812.167 371.167C812.167 368.072 813.396 365.105 815.584 362.917C817.772 360.729 820.739 359.5 823.833 359.5H882.167C885.261 359.5 888.228 360.729 890.416 362.917C892.604 365.105 893.833 368.072 893.833 371.167V464.5L853 444.083L812.167 464.5V371.167Z" stroke="#AB7650" stroke-opacity="0.1" stroke-width="12" stroke-linecap="round" stroke-linejoin="round"/>
</svg>
