<svg width="763" height="447" viewBox="0 0 763 447" fill="none" xmlns="http://www.w3.org/2000/svg">
<g opacity="0.1">
<path d="M719.25 43.7497V43.808M646.333 46.6663C646.333 40.478 648.792 34.543 653.168 30.1672C657.543 25.7913 663.478 23.333 669.667 23.333H716.333C722.522 23.333 728.457 25.7913 732.832 30.1672C737.208 34.543 739.667 40.478 739.667 46.6663V93.333C739.667 99.5214 737.208 105.456 732.832 109.832C728.457 114.208 722.522 116.666 716.333 116.666H669.667C663.478 116.666 657.543 114.208 653.168 109.832C648.792 105.456 646.333 99.5214 646.333 93.333V46.6663ZM675.5 69.9997C675.5 74.641 677.344 79.0922 680.626 82.374C683.908 85.6559 688.359 87.4997 693 87.4997C697.641 87.4997 702.092 85.6559 705.374 82.374C708.656 79.0922 710.5 74.641 710.5 69.9997C710.5 65.3584 708.656 60.9072 705.374 57.6253C702.092 54.3434 697.641 52.4997 693 52.4997C688.359 52.4997 683.908 54.3434 680.626 57.6253C677.344 60.9072 675.5 65.3584 675.5 69.9997Z" stroke="#AB7650" stroke-width="12" stroke-linecap="round" stroke-linejoin="round"/>
</g>
<g opacity="0.1">
<path d="M29.1667 247.5H110.833M29.1667 282.5H110.833M64.1667 218.333L40.8333 311.666M99.1667 218.333L75.8333 311.666" stroke="#AB7650" stroke-width="12" stroke-linecap="round" stroke-linejoin="round"/>
</g>
<g opacity="0.1">
<path d="M583.167 336.167C583.167 333.072 584.396 330.105 586.584 327.917C588.772 325.729 591.739 324.5 594.833 324.5H653.167C656.261 324.5 659.228 325.729 661.416 327.917C663.604 330.105 664.833 333.072 664.833 336.167V429.5L624 409.083L583.167 429.5V336.167Z" stroke="#AB7650" stroke-width="12" stroke-linecap="round" stroke-linejoin="round"/>
</g>
</svg>
