<svg width="31" height="30" viewBox="0 0 31 30" fill="none" xmlns="http://www.w3.org/2000/svg">
<path d="M8.66667 9.83138H10.3333M10.3333 9.83138L15.3333 14.8314L20.3333 9.83138M10.3333 9.83138V19.8314M20.3333 9.83138H22M20.3333 9.83138V19.8314M8.66667 19.8314H12M18.6667 19.8314H22M2 4.83138C2 3.94733 2.35119 3.09948 2.97631 2.47436C3.60143 1.84924 4.44928 1.49805 5.33333 1.49805H25.3333C26.2174 1.49805 27.0652 1.84924 27.6904 2.47436C28.3155 3.09948 28.6667 3.94733 28.6667 4.83138V24.8314C28.6667 25.7154 28.3155 26.5633 27.6904 27.1884C27.0652 27.8135 26.2174 28.1647 25.3333 28.1647H5.33333C4.44928 28.1647 3.60143 27.8135 2.97631 27.1884C2.35119 26.5633 2 25.7154 2 24.8314V4.83138Z" stroke="#AB7650" stroke-width="3" stroke-linecap="round" stroke-linejoin="round"/>
</svg>
