<svg width="141" height="80" viewBox="0 0 141 80" fill="none" xmlns="http://www.w3.org/2000/svg">
<path d="M15.636 36.4634C15.0833 35.8843 14.5042 35.4237 13.8987 35.0814C13.2933 34.7392 12.6747 34.5681 12.0429 34.5681C11.1743 34.5681 10.3977 34.7261 9.71331 35.0419C9.02891 35.3578 8.43663 35.7789 7.93649 36.3054C7.46266 36.8319 7.09414 37.4373 6.83091 38.1217C6.59399 38.8061 6.47554 39.5169 6.47554 40.254C6.47554 40.991 6.59399 41.7018 6.83091 42.3861C7.09414 43.0705 7.46266 43.676 7.93649 44.2025C8.43663 44.7289 9.02891 45.1501 9.71331 45.466C10.3977 45.7819 11.1743 45.9398 12.0429 45.9398C12.7799 45.9398 13.4644 45.795 14.0962 45.5054C14.7279 45.1896 15.2676 44.7421 15.715 44.1629L18.8739 47.5587C18.4 48.0325 17.8472 48.4405 17.2155 48.7827C16.6101 49.1249 15.9914 49.4013 15.3597 49.6119C14.7279 49.8225 14.1224 49.9673 13.5433 50.0462C12.9642 50.1516 12.4641 50.2042 12.0429 50.2042C10.6214 50.2042 9.27898 49.9673 8.01545 49.4935C6.75193 49.0196 5.65952 48.3484 4.7382 47.4797C3.81687 46.611 3.07982 45.5712 2.52703 44.3604C2.00056 43.1232 1.73734 41.7544 1.73734 40.254C1.73734 38.7535 2.00056 37.3979 2.52703 36.1869C3.07982 34.9498 3.81687 33.8969 4.7382 33.0282C5.65952 32.1595 6.75193 31.4882 8.01545 31.0144C9.27898 30.5406 10.6214 30.3037 12.0429 30.3037C13.2538 30.3037 14.4646 30.5406 15.6756 31.0144C16.9127 31.462 17.992 32.1858 18.9133 33.1861L15.636 36.4634ZM20.391 40.254C20.391 38.7535 20.6542 37.3979 21.1806 36.1869C21.7334 34.9498 22.4705 33.8969 23.3918 33.0282C24.3131 32.1595 25.4055 31.4882 26.6691 31.0144C27.9326 30.5406 29.2751 30.3037 30.6966 30.3037C32.118 30.3037 33.4605 30.5406 34.724 31.0144C35.9876 31.4882 37.08 32.1595 38.0013 33.0282C38.9226 33.8969 39.6465 34.9498 40.173 36.1869C40.7257 37.3979 41.0022 38.7535 41.0022 40.254C41.0022 41.7544 40.7257 43.1232 40.173 44.3604C39.6465 45.5712 38.9226 46.611 38.0013 47.4797C37.08 48.3484 35.9876 49.0196 34.724 49.4935C33.4605 49.9673 32.118 50.2042 30.6966 50.2042C29.2751 50.2042 27.9326 49.9673 26.6691 49.4935C25.4055 49.0196 24.3131 48.3484 23.3918 47.4797C22.4705 46.611 21.7334 45.5712 21.1806 44.3604C20.6542 43.1232 20.391 41.7544 20.391 40.254ZM25.1291 40.254C25.1291 40.991 25.2476 41.7018 25.4845 42.3861C25.7478 43.0705 26.1163 43.676 26.5901 44.2025C27.0902 44.7289 27.6825 45.1501 28.367 45.466C29.0513 45.7819 29.8278 45.9398 30.6966 45.9398C31.5652 45.9398 32.3417 45.7819 33.0262 45.466C33.7106 45.1501 34.2897 44.7289 34.7635 44.2025C35.2636 43.676 35.6322 43.0705 35.8691 42.3861C36.1323 41.7018 36.2639 40.991 36.2639 40.254C36.2639 39.5169 36.1323 38.8061 35.8691 38.1217C35.6322 37.4373 35.2636 36.8319 34.7635 36.3054C34.2897 35.7789 33.7106 35.3578 33.0262 35.0419C32.3417 34.7261 31.5652 34.5681 30.6966 34.5681C29.8278 34.5681 29.0513 34.7261 28.367 35.0419C27.6825 35.3578 27.0902 35.7789 26.5901 36.3054C26.1163 36.8319 25.7478 37.4373 25.4845 38.1217C25.2476 38.8061 25.1291 39.5169 25.1291 40.254ZM45.0435 30.7775H49.5448V33.8179H49.6238C50.0712 32.8702 50.7557 32.0542 51.677 31.3698C52.5983 30.659 53.8486 30.3037 55.428 30.3037C56.6916 30.3037 57.7577 30.5143 58.6263 30.9355C59.5213 31.3566 60.2453 31.9094 60.798 32.5938C61.3509 33.2782 61.7457 34.068 61.9826 34.9629C62.2195 35.8579 62.338 36.7924 62.338 37.7664V49.7304H57.5997V40.1355C57.5997 39.6091 57.5734 39.0299 57.5207 38.3981C57.4681 37.7401 57.3234 37.1346 57.0865 36.5819C56.8759 36.0028 56.5336 35.5289 56.0598 35.1604C55.586 34.7655 54.9411 34.5681 54.1251 34.5681C53.3353 34.5681 52.6641 34.6997 52.1113 34.9629C51.5848 35.2262 51.1374 35.5816 50.7688 36.029C50.4266 36.4765 50.1766 36.9899 50.0186 37.569C49.8607 38.1481 49.7817 38.7535 49.7817 39.3853V49.7304H45.0435V30.7775ZM65.1106 34.805V30.7775H69.0196V25.2891H73.7577V30.7775H78.9698V34.805H73.7577V43.0969C73.7577 44.0445 73.9288 44.7948 74.271 45.3475C74.6396 45.9003 75.3503 46.1767 76.4033 46.1767C76.8245 46.1767 77.2851 46.1373 77.7852 46.0583C78.2853 45.953 78.6803 45.795 78.9698 45.5844V49.5725C78.4696 49.8093 77.8511 49.9673 77.114 50.0462C76.4033 50.1516 75.7715 50.2042 75.2187 50.2042C73.9552 50.2042 72.9154 50.0594 72.0994 49.7698C71.3097 49.5066 70.6779 49.0986 70.2041 48.5458C69.7566 47.9667 69.4407 47.2559 69.2565 46.4136C69.0985 45.5712 69.0196 44.5973 69.0196 43.4917V34.805H65.1106ZM86.0642 41.9123C86.2221 43.3338 86.7749 44.4394 87.7225 45.2291C88.6702 46.0188 89.8152 46.4136 91.1577 46.4136C92.3423 46.4136 93.3294 46.1767 94.1195 45.7029C94.9355 45.2028 95.6461 44.5841 96.2513 43.8471L99.647 46.4136C98.5412 47.7824 97.3045 48.7564 95.935 49.3356C94.5666 49.9147 93.1319 50.2042 91.6315 50.2042C90.2101 50.2042 88.8676 49.9673 87.604 49.4935C86.3405 49.0196 85.2482 48.3484 84.3268 47.4797C83.4054 46.611 82.6684 45.5712 82.1157 44.3604C81.5892 43.1232 81.3259 41.7544 81.3259 40.254C81.3259 38.7535 81.5892 37.3979 82.1157 36.1869C82.6684 34.9498 83.4054 33.8969 84.3268 33.0282C85.2482 32.1595 86.3405 31.4882 87.604 31.0144C88.8676 30.5406 90.2101 30.3037 91.6315 30.3037C92.9478 30.3037 94.1459 30.5406 95.2245 31.0144C96.3303 31.462 97.2649 32.12 98.0282 32.9887C98.8179 33.8573 99.423 34.9366 99.8447 36.2265C100.292 37.49 100.516 38.9509 100.516 40.6093V41.9123H86.0642ZM95.7779 38.3586C95.7515 36.9635 95.3167 35.8711 94.4743 35.0814C93.6321 34.2653 92.4607 33.8573 90.9603 33.8573C89.5388 33.8573 88.407 34.2653 87.5646 35.0814C86.7486 35.8974 86.2485 36.9899 86.0642 38.3586H95.7779ZM104.552 30.7775H109.053V33.8179H109.132C109.579 32.8702 110.264 32.0542 111.185 31.3698C112.106 30.659 113.357 30.3037 114.936 30.3037C116.2 30.3037 117.266 30.5143 118.135 30.9355C119.03 31.3566 119.753 31.9094 120.306 32.5938C120.859 33.2782 121.254 34.068 121.491 34.9629C121.728 35.8579 121.847 36.7924 121.847 37.7664V49.7304H117.108V40.1355C117.108 39.6091 117.081 39.0299 117.029 38.3981C116.976 37.7401 116.832 37.1346 116.595 36.5819C116.384 36.0028 116.042 35.5289 115.568 35.1604C115.095 34.7655 114.449 34.5681 113.633 34.5681C112.843 34.5681 112.172 34.6997 111.62 34.9629C111.093 35.2262 110.646 35.5816 110.277 36.029C109.935 36.4765 109.685 36.9899 109.527 37.569C109.369 38.1481 109.29 38.7535 109.29 39.3853V49.7304H104.552V30.7775ZM124.619 34.805V30.7775H128.528V25.2891H133.266V30.7775H138.478V34.805H133.266V43.0969C133.266 44.0445 133.437 44.7948 133.78 45.3475C134.148 45.9003 134.858 46.1767 135.912 46.1767C136.333 46.1767 136.793 46.1373 137.293 46.0583C137.794 45.953 138.188 45.795 138.478 45.5844V49.5725C137.978 49.8093 137.359 49.9673 136.622 50.0462C135.912 50.1516 135.28 50.2042 134.727 50.2042C133.464 50.2042 132.424 50.0594 131.608 49.7698C130.818 49.5066 130.186 49.0986 129.712 48.5458C129.265 47.9667 128.949 47.2559 128.765 46.4136C128.607 45.5712 128.528 44.5973 128.528 43.4917V34.805H124.619Z" fill="#1D1F20"/>
<path d="M84.2699 62.0711C83.8568 61.516 83.3469 61.1029 82.7401 60.8319C82.1334 60.5478 81.5009 60.4058 80.8425 60.4058C80.0808 60.4058 79.3773 60.5607 78.7319 60.8706C78.0993 61.1804 77.5507 61.6 77.0859 62.1292C76.6212 62.6456 76.2597 63.2523 76.0015 63.9494C75.7433 64.6337 75.6142 65.3501 75.6142 66.0988C75.6142 66.8992 75.7433 67.648 76.0015 68.345C76.2597 69.0293 76.6147 69.6295 77.0665 70.1459C77.5313 70.6494 78.0799 71.0496 78.7125 71.3464C79.3579 71.6434 80.0679 71.7918 80.8425 71.7918C81.6816 71.7918 82.4303 71.6305 83.0887 71.3077C83.7471 70.9721 84.3216 70.4945 84.8121 69.8748L86.032 70.9011C85.4124 71.7273 84.6636 72.334 83.7858 72.7213C82.9209 73.1086 81.9398 73.3022 80.8425 73.3022C79.8614 73.3022 78.9448 73.1215 78.0928 72.76C77.2408 72.3986 76.4985 71.9015 75.866 71.269C75.2463 70.6235 74.7558 69.8619 74.3943 68.9841C74.0457 68.1062 73.8715 67.1444 73.8715 66.0988C73.8715 65.0919 74.0393 64.1495 74.375 63.2717C74.7235 62.3939 75.2076 61.6323 75.8273 60.9868C76.4469 60.3413 77.1827 59.8314 78.0347 59.457C78.8868 59.0826 79.8227 58.8955 80.8425 58.8955C81.7719 58.8955 82.6627 59.0633 83.5147 59.3989C84.3797 59.7346 85.1026 60.2832 85.6835 61.0449L84.2699 62.0711ZM94.6701 73.3022C93.6246 73.3022 92.6629 73.1215 91.785 72.76C90.9202 72.3986 90.165 71.9015 89.5195 71.269C88.887 70.6235 88.3899 69.8619 88.0285 68.9841C87.6799 68.0933 87.5057 67.1316 87.5057 66.0988C87.5057 65.066 87.6799 64.1108 88.0285 63.233C88.3899 62.3422 88.887 61.5806 89.5195 60.948C90.165 60.3026 90.9202 59.7991 91.785 59.4376C92.6629 59.0762 93.6246 58.8955 94.6701 58.8955C95.7157 58.8955 96.671 59.0762 97.536 59.4376C98.4141 59.7991 99.1689 60.3026 99.8014 60.948C100.447 61.5806 100.944 62.3422 101.293 63.233C101.655 64.1108 101.835 65.066 101.835 66.0988C101.835 67.1316 101.655 68.0933 101.293 68.9841C100.944 69.8619 100.447 70.6235 99.8014 71.269C99.1689 71.9015 98.4141 72.3986 97.536 72.76C96.671 73.1215 95.7157 73.3022 94.6701 73.3022ZM94.6701 71.7918C95.471 71.7918 96.2005 71.6434 96.8583 71.3464C97.5294 71.0496 98.1045 70.6429 98.5816 70.1266C99.0597 69.6101 99.4278 69.0099 99.6856 68.3257C99.9567 67.6286 100.092 66.8863 100.092 66.0988C100.092 65.3114 99.9567 64.5755 99.6856 63.8914C99.4278 63.1942 99.0597 62.5876 98.5816 62.0711C98.1045 61.5548 97.5294 61.1481 96.8583 60.8512C96.2005 60.5543 95.471 60.4058 94.6701 60.4058C93.8699 60.4058 93.1341 60.5543 92.4628 60.8512C91.8044 61.1481 91.2364 61.5548 90.7588 62.0711C90.2811 62.5876 89.9068 63.1942 89.6357 63.8914C89.3775 64.5755 89.2484 65.3114 89.2484 66.0988C89.2484 66.8863 89.3775 67.6286 89.6357 68.3257C89.9068 69.0099 90.2811 69.6101 90.7588 70.1266C91.2364 70.6429 91.8044 71.0496 92.4628 71.3464C93.1341 71.6434 93.8699 71.7918 94.6701 71.7918ZM104.197 59.244H109.464C109.916 59.244 110.393 59.2956 110.897 59.3989C111.4 59.5022 111.897 59.67 112.388 59.9024C112.891 60.1219 113.369 60.4123 113.821 60.7737C114.285 61.1352 114.693 61.5741 115.041 62.0905C115.389 62.594 115.667 63.1813 115.874 63.8526C116.08 64.511 116.184 65.2597 116.184 66.0988C116.184 66.938 116.08 67.6932 115.874 68.3644C115.667 69.0228 115.389 69.6101 115.041 70.1266C114.693 70.63 114.285 71.0625 113.821 71.4239C113.369 71.7854 112.891 72.0822 112.388 72.3146C111.897 72.5341 111.4 72.6955 110.897 72.7988C110.393 72.902 109.916 72.9537 109.464 72.9537H104.197V59.244ZM105.824 71.4433H108.921C109.709 71.4433 110.439 71.34 111.11 71.1334C111.782 70.9269 112.362 70.6106 112.853 70.1846C113.343 69.7457 113.731 69.1906 114.014 68.5193C114.298 67.8481 114.44 67.0412 114.44 66.0988C114.44 65.1565 114.298 64.3496 114.014 63.6784C113.731 63.007 113.343 62.4584 112.853 62.0324C112.362 61.5935 111.782 61.2708 111.11 61.0643C110.439 60.8577 109.709 60.7544 108.921 60.7544H105.824V71.4433ZM118.802 59.244H127.418V60.7544H120.428V65.0532H126.953V66.5636H120.428V71.4433H127.767V72.9537H118.802V59.244ZM136.786 61.6645C136.515 61.2256 136.153 60.9093 135.702 60.7156C135.25 60.5092 134.778 60.4058 134.288 60.4058C133.927 60.4058 133.572 60.451 133.224 60.5414C132.874 60.6318 132.558 60.7673 132.275 60.948C132.004 61.1287 131.784 61.3676 131.616 61.6645C131.448 61.9614 131.365 62.31 131.365 62.7102C131.365 63.0199 131.41 63.2975 131.5 63.5428C131.603 63.7751 131.765 63.9882 131.984 64.1818C132.203 64.3754 132.501 64.5562 132.874 64.724C133.249 64.8918 133.707 65.0596 134.249 65.2275C134.778 65.3953 135.288 65.576 135.779 65.7697C136.282 65.9633 136.722 66.2085 137.096 66.5055C137.483 66.8024 137.786 67.1767 138.007 67.6286C138.238 68.0675 138.355 68.6226 138.355 69.2939C138.355 69.9781 138.219 70.5719 137.948 71.0754C137.677 71.5788 137.316 71.9984 136.864 72.334C136.424 72.6567 135.914 72.8956 135.334 73.0505C134.753 73.2183 134.152 73.3022 133.533 73.3022C133.133 73.3022 132.732 73.2635 132.332 73.1861C131.932 73.1215 131.545 73.0182 131.171 72.8762C130.809 72.7213 130.467 72.5277 130.144 72.2953C129.821 72.05 129.544 71.7531 129.312 71.4046L130.706 70.2621C131.003 70.7655 131.416 71.1463 131.945 71.4046C132.474 71.6628 133.036 71.7918 133.63 71.7918C133.978 71.7918 134.327 71.7402 134.676 71.6369C135.037 71.5336 135.36 71.3852 135.643 71.1915C135.928 70.985 136.16 70.7332 136.341 70.4363C136.521 70.1395 136.612 69.7973 136.612 69.41C136.612 68.9841 136.541 68.642 136.399 68.3838C136.257 68.1126 136.038 67.8804 135.74 67.6867C135.444 67.4931 135.069 67.3188 134.617 67.1638C134.166 67.0089 133.637 66.8282 133.03 66.6216C132.539 66.4667 132.088 66.2925 131.674 66.0988C131.261 65.8923 130.9 65.647 130.59 65.363C130.293 65.066 130.054 64.7175 129.873 64.3173C129.705 63.9043 129.622 63.4137 129.622 62.8457C129.622 62.1874 129.751 61.6129 130.008 61.1223C130.267 60.6318 130.616 60.2251 131.054 59.9024C131.494 59.5668 131.991 59.315 132.546 59.1472C133.1 58.9794 133.682 58.8955 134.288 58.8955C135.063 58.8955 135.767 59.0181 136.399 59.2634C137.045 59.4957 137.619 59.9089 138.122 60.5027L136.786 61.6645Z" fill="#454545"/>
<path d="M10.8542 20.5498L9.9182 20.8477L11.0386 15.0754C11.0386 15.0754 11.0717 14.9099 11.1379 14.579C11.1946 14.3048 11.223 14.0779 11.223 13.8982C11.223 13.4822 11.0575 13.2742 10.7266 13.2742C10.4146 13.2742 10.0364 13.487 9.59199 13.9125C9.14759 14.3285 8.67956 14.9335 8.1879 15.7278C7.86644 16.2384 7.58751 16.7301 7.35114 17.2028C7.12421 17.6756 6.91148 18.1814 6.71292 18.7203C6.52382 19.2498 6.33945 19.8597 6.1598 20.5498L5.28049 20.8477L6.74129 12.9906L8.10281 12.4091L6.86893 17.5574C7.50242 16.0918 8.22573 14.891 9.03886 13.955C9.86145 13.0095 10.599 12.5367 11.2514 12.5367C11.9605 12.5367 12.315 12.9385 12.315 13.7422C12.315 14.0165 12.2441 14.5033 12.1023 15.203L11.6342 17.3162C12.5514 15.5576 13.3268 14.319 13.9602 13.6005C14.5937 12.8724 15.2225 12.5083 15.8465 12.5083C16.1963 12.5083 16.4705 12.6123 16.6691 12.8204C16.8677 13.0284 16.967 13.3262 16.967 13.7139C16.967 14.0259 16.8724 14.5648 16.6833 15.3307L16.2436 17.0751L16.1017 17.6282C15.9694 18.2145 15.9032 18.6494 15.9032 18.9331C15.9032 19.2357 15.9552 19.4814 16.0592 19.6706C16.1632 19.8502 16.2956 19.94 16.4564 19.94C16.7589 19.94 17.2316 19.5902 17.8746 18.8905L18.0873 19.089L17.9597 19.2451C17.4208 19.8786 17.0189 20.3088 16.7542 20.5357C16.4989 20.7531 16.2625 20.8619 16.0451 20.8619C15.7519 20.8619 15.5014 20.7153 15.2934 20.4222C15.0948 20.1196 14.9956 19.7462 14.9956 19.3018C14.9956 19.0276 15.057 18.5785 15.1799 17.9544L15.7046 15.0186L15.7897 14.5081C15.8465 14.2245 15.8748 13.9975 15.8748 13.8274C15.8748 13.6571 15.8229 13.5201 15.7189 13.4161C15.6149 13.312 15.473 13.26 15.2934 13.26C15.0854 13.26 14.8537 13.3498 14.5984 13.5295C14.3526 13.6997 14.0879 13.9644 13.8042 14.3238C13.5206 14.683 13.2038 15.1558 12.854 15.742C12.3813 16.5457 11.9983 17.2973 11.7052 17.997C11.412 18.6872 11.1285 19.5382 10.8542 20.5498ZM24.6964 18.5076L24.9517 18.7203C24.3654 19.4956 23.7934 20.0582 23.2356 20.4081C22.6777 20.7484 22.0774 20.9186 21.4344 20.9186C20.6685 20.9186 20.054 20.6633 19.5907 20.1527C19.1274 19.6422 18.8957 18.9661 18.8957 18.1246C18.8957 17.2737 19.1179 16.4133 19.5623 15.5434C20.0162 14.6641 20.5787 13.9408 21.2501 13.3734C21.9308 12.7967 22.6022 12.5083 23.264 12.5083C23.6517 12.5083 23.9684 12.6218 24.2142 12.8487C24.4694 13.0757 24.5972 13.3687 24.5972 13.7281C24.5972 14.4561 24.2 15.1842 23.4058 15.9122C22.6116 16.6402 21.5289 17.2595 20.158 17.7701C20.1485 17.8457 20.1438 17.9308 20.1438 18.0254C20.1438 18.6777 20.3235 19.2119 20.6827 19.628C21.0421 20.0345 21.5053 20.2378 22.0726 20.2378C22.517 20.2378 22.9472 20.1008 23.3633 19.8265C23.7793 19.5429 24.2236 19.1032 24.6964 18.5076ZM20.158 17.4297C21.1791 16.9759 21.9638 16.47 22.5123 15.9122C22.881 15.534 23.1789 15.1274 23.4058 14.6925C23.6327 14.2575 23.7462 13.8651 23.7462 13.5153C23.7462 13.071 23.5429 12.8487 23.1363 12.8487C22.5218 12.8487 21.8977 13.3357 21.2642 14.3095C20.6402 15.274 20.2714 16.314 20.158 17.4297ZM25.4339 9.16128L22.4697 11.3454L22.1861 11.2461L24.512 8.90598L25.4339 9.16128ZM28.6391 13.1324L27.5613 17.8551C27.4478 18.3752 27.391 18.744 27.391 18.9614C27.391 19.3018 27.4714 19.576 27.6322 19.784C27.7929 19.992 28.0056 20.096 28.2704 20.096C28.5257 20.096 28.7574 20.0251 28.9654 19.8833C29.1828 19.732 29.509 19.4247 29.9439 18.9614L30.1142 18.7912L30.3269 19.0039C29.769 19.6847 29.301 20.167 28.9228 20.4506C28.5541 20.7248 28.19 20.8619 27.8308 20.8619C27.3769 20.8619 27.0129 20.7153 26.7387 20.4222C26.474 20.1196 26.3415 19.7272 26.3415 19.2451C26.3415 18.8858 26.4125 18.3657 26.5543 17.685L27.4762 13.1324H26.1146L26.2139 12.6502H27.5754L28.3697 8.82089L29.7312 8.28196L28.7384 12.6502H31.036L30.9367 13.1324H28.6391ZM31.1494 17.9829C31.1494 17.1318 31.3764 16.2856 31.8302 15.4441C32.2935 14.5932 32.8892 13.903 33.6172 13.3734C34.3453 12.844 35.0875 12.5793 35.8438 12.5793C36.6381 12.5793 37.2763 12.844 37.7585 13.3734C38.2502 13.8935 38.496 14.5696 38.496 15.4016C38.496 16.3093 38.2691 17.1886 37.8152 18.0395C37.3709 18.8905 36.7799 19.5902 36.0424 20.1385C35.3144 20.6775 34.5769 20.947 33.8299 20.947C33.0262 20.947 32.3786 20.6775 31.887 20.1385C31.3953 19.5902 31.1494 18.8716 31.1494 17.9829ZM37.2196 14.8627C37.2196 14.2953 37.0777 13.8274 36.7941 13.4586C36.5199 13.0899 36.1653 12.9055 35.7304 12.9055C35.3334 12.9055 34.9504 13.0331 34.5816 13.2884C34.2224 13.5437 33.8914 13.9172 33.5889 14.4088C33.2485 14.9761 32.9648 15.638 32.7379 16.3943C32.5205 17.1508 32.4117 17.8221 32.4117 18.4083C32.4117 19.1079 32.5488 19.647 32.823 20.0251C33.0972 20.4033 33.4896 20.5924 34.0002 20.5924C34.8228 20.5924 35.5461 20.0204 36.1701 18.8763C36.4916 18.2902 36.7468 17.633 36.9359 16.9049C37.1251 16.1769 37.2196 15.4962 37.2196 14.8627ZM49.9556 0.722656L46.1972 17.0751C45.9986 17.945 45.8993 18.5501 45.8993 18.8905C45.8993 19.193 45.9513 19.4389 46.0553 19.628C46.1687 19.8171 46.3201 19.9116 46.5092 19.9116C46.755 19.9116 47.0528 19.7272 47.4026 19.3585L47.8139 18.9472C47.8234 18.9378 47.8328 18.9284 47.8423 18.9189C47.8517 18.9094 47.866 18.8999 47.8849 18.8905L48.0976 19.089L47.9842 19.2167C47.6248 19.6138 47.4405 19.8171 47.431 19.8265L46.963 20.2946C46.7267 20.5309 46.5517 20.6775 46.4382 20.7342C46.3342 20.8005 46.2161 20.8335 46.0837 20.8335C45.7717 20.8335 45.5116 20.6727 45.3036 20.3513C45.0956 20.0298 44.9916 19.6611 44.9916 19.2451C44.9916 18.9992 45.0578 18.5501 45.1902 17.8977L45.3461 17.0893C45.1003 17.685 44.7127 18.3327 44.1832 19.0324C43.2282 20.2614 42.3016 20.876 41.4035 20.876C40.8645 20.876 40.439 20.6822 40.127 20.2946C39.8149 19.8975 39.659 19.3633 39.659 18.6919C39.659 17.7559 39.9048 16.8104 40.3965 15.8554C40.8882 14.891 41.5122 14.0968 42.2686 13.4727C43.0344 12.8487 43.7956 12.5367 44.552 12.5367C45.1098 12.5367 45.6298 12.7022 46.1121 13.0331L48.4238 1.44596L49.9556 0.722656ZM45.9844 13.7422C45.8993 13.487 45.7244 13.2837 45.4597 13.1324C45.1949 12.9717 44.9112 12.8913 44.6087 12.8913C44.1643 12.8913 43.7058 13.0899 43.233 13.487C42.7697 13.884 42.3301 14.4467 41.9141 15.1747C41.6115 15.7136 41.3609 16.3046 41.1623 16.9475C40.9733 17.581 40.8787 18.1577 40.8787 18.6777C40.8787 19.1316 40.9733 19.4956 41.1623 19.7698C41.3609 20.044 41.6304 20.1811 41.9707 20.1811C42.3679 20.1811 42.7933 19.9779 43.2471 19.5713C43.7105 19.1647 44.1737 18.5785 44.6371 17.8126C44.9491 17.2926 45.1949 16.7537 45.3746 16.1958C45.592 15.4773 45.748 14.9005 45.8426 14.4656L45.9844 13.7422ZM48.906 17.9829C48.906 17.1318 49.133 16.2856 49.5868 15.4441C50.0501 14.5932 50.6457 13.903 51.3737 13.3734C52.1018 12.844 52.844 12.5793 53.6005 12.5793C54.3946 12.5793 55.0328 12.844 55.5151 13.3734C56.0068 13.8935 56.2526 14.5696 56.2526 15.4016C56.2526 16.3093 56.0257 17.1886 55.5718 18.0395C55.1274 18.8905 54.5365 19.5902 53.799 20.1385C53.0709 20.6775 52.3334 20.947 51.5865 20.947C50.7829 20.947 50.1351 20.6775 49.6435 20.1385C49.1518 19.5902 48.906 18.8716 48.906 17.9829ZM54.9762 14.8627C54.9762 14.2953 54.8343 13.8274 54.5507 13.4586C54.2765 13.0899 53.9219 12.9055 53.4869 12.9055C53.0899 12.9055 52.7069 13.0331 52.3382 13.2884C51.9789 13.5437 51.648 13.9172 51.3454 14.4088C51.0051 14.9761 50.7214 15.638 50.4945 16.3943C50.277 17.1508 50.1683 17.8221 50.1683 18.4083C50.1683 19.1079 50.3054 19.647 50.5796 20.0251C50.8537 20.4033 51.2461 20.5924 51.7567 20.5924C52.5793 20.5924 53.3026 20.0204 53.9267 18.8763C54.2481 18.2902 54.5034 17.633 54.6925 16.9049C54.8816 16.1769 54.9762 15.4962 54.9762 14.8627Z" fill="#454545"/>
<path d="M65.4684 17.6279H139.613" stroke="#DAD7D6" stroke-width="0.979133"/>
<path d="M5.52161 65.7432H65.4683" stroke="#DAD7D6" stroke-width="0.979133"/>
</svg>
