<svg width="24" height="24" viewBox="0 0 24 24" fill="none" xmlns="http://www.w3.org/2000/svg">
<path fill-rule="evenodd" clip-rule="evenodd" d="M19 10.998H13V4.99805C13 4.44576 12.5523 3.99805 12 3.99805C11.4477 3.99805 11 4.44576 11 4.99805V10.998H5C4.44771 10.998 4 11.4458 4 11.998C4 12.5503 4.44771 12.998 5 12.998H11V18.998C11 19.5503 11.4477 19.998 12 19.998C12.5523 19.998 13 19.5503 13 18.998V12.998H19C19.5523 12.998 20 12.5503 20 11.998C20 11.4458 19.5523 10.998 19 10.998Z" fill="#151414"/>
</svg>
