<svg width="41" height="41" viewBox="0 0 41 41" fill="none" xmlns="http://www.w3.org/2000/svg">
<path d="M6.03363 10.2281C3.85529 9.97813 4.00029 9.2648 4.00029 8.9048C4.00029 8.5448 4.70696 7.16479 11.2336 7.16479C19.057 7.16479 35.667 13.2398 35.667 23.9015C35.667 34.5631 21.1503 32.1198 18.2753 31.4348C15.402 30.7481 9.00029 27.6748 9.00029 24.4781C9.00029 22.1531 14.1336 20.4981 20.192 20.4981C26.2486 20.4981 29.0003 22.2331 29.0003 23.8315C29.0003 24.6648 28.877 25.8798 27.3336 26.3315M17.3671 13.8315C17.2742 21.0534 17.2742 28.2762 17.3671 35.4981" stroke="#AB7650" stroke-width="3" stroke-linecap="round" stroke-linejoin="round"/>
</svg>
