<svg width="32" height="33" viewBox="0 0 32 33" fill="none" xmlns="http://www.w3.org/2000/svg">
<path d="M12 16.498L14.6667 19.1647L20 13.8314M4 16.498C4 18.0739 4.31039 19.6343 4.91345 21.0902C5.5165 22.5462 6.40042 23.869 7.51472 24.9833C8.62902 26.0976 9.95189 26.9815 11.4078 27.5846C12.8637 28.1877 14.4241 28.498 16 28.498C17.5759 28.498 19.1363 28.1877 20.5922 27.5846C22.0481 26.9815 23.371 26.0976 24.4853 24.9833C25.5996 23.869 26.4835 22.5462 27.0866 21.0902C27.6896 19.6343 28 18.0739 28 16.498C28 14.9222 27.6896 13.3618 27.0866 11.9058C26.4835 10.4499 25.5996 9.12707 24.4853 8.01277C23.371 6.89846 22.0481 6.01455 20.5922 5.41149C19.1363 4.80844 17.5759 4.49805 16 4.49805C14.4241 4.49805 12.8637 4.80844 11.4078 5.41149C9.95189 6.01455 8.62902 6.89846 7.51472 8.01277C6.40042 9.12707 5.5165 10.4499 4.91345 11.9058C4.31039 13.3618 4 14.9222 4 16.498Z" stroke="#6F4D34" stroke-width="3" stroke-linecap="round" stroke-linejoin="round"/>
</svg>
