<svg width="40" height="41" viewBox="0 0 40 41" fill="none" xmlns="http://www.w3.org/2000/svg">
<path d="M23.3333 10.498L35 22.1647L28.3333 28.8314M6.66663 33.8313L9.61329 30.8846M9.71267 30.7848C10.1504 31.2227 10.67 31.57 11.242 31.8069C11.8139 32.0439 12.4269 32.1658 13.046 32.1658C13.6651 32.1658 14.2781 32.0439 14.85 31.8069C15.422 31.57 15.9416 31.2227 16.3793 30.7848L34.0227 13.1415C34.3323 12.832 34.578 12.4644 34.7456 12.0599C34.9132 11.6554 34.9995 11.2219 34.9995 10.784C34.9995 10.3461 34.9132 9.91258 34.7456 9.50808C34.578 9.10357 34.3323 8.73605 34.0227 8.4265L32.071 6.47484C31.7615 6.16516 31.3939 5.91951 30.9894 5.75191C30.5849 5.58431 30.1514 5.49805 29.7135 5.49805C29.2757 5.49805 28.8421 5.58431 28.4376 5.75191C28.0331 5.91951 27.6656 6.16516 27.356 6.47484L9.71267 24.1182C9.27485 24.5559 8.92754 25.0755 8.69058 25.6475C8.45363 26.2194 8.33167 26.8324 8.33167 27.4515C8.33167 28.0706 8.45363 28.6836 8.69058 29.2555C8.92754 29.8275 9.27485 30.3471 9.71267 30.7848Z" stroke="#AB7650" stroke-width="3" stroke-linecap="round" stroke-linejoin="round"/>
</svg>
