<svg width="41" height="41" viewBox="0 0 41 41" fill="none" xmlns="http://www.w3.org/2000/svg">
<path d="M33.1672 21.4517L20.6672 33.8317L8.16717 21.4517C7.34268 20.6494 6.69324 19.685 6.25975 18.6194C5.82626 17.5538 5.6181 16.4099 5.6484 15.2599C5.67869 14.1099 5.94677 12.9786 6.43576 11.9372C6.92476 10.8959 7.62406 9.9671 8.48965 9.20931C9.35523 8.45152 10.3683 7.88116 11.4652 7.53414C12.562 7.18713 13.7188 7.07098 14.8628 7.19301C16.0067 7.31504 17.113 7.6726 18.112 8.24319C19.1109 8.81377 19.9809 9.58501 20.6672 10.5083C21.3564 9.59171 22.2274 8.82721 23.2257 8.26268C24.2239 7.69816 25.328 7.34576 26.4687 7.22754C27.6094 7.10933 28.7623 7.22784 29.8551 7.57566C30.9479 7.92348 31.9572 8.49313 32.8198 9.24895C33.6823 10.0048 34.3795 10.9305 34.8679 11.9682C35.3562 13.0058 35.6251 14.1331 35.6577 15.2795C35.6903 16.4259 35.4859 17.5667 35.0574 18.6304C34.6288 19.6942 33.9853 20.658 33.1672 21.4617" stroke="#AB7650" stroke-width="3" stroke-linecap="round" stroke-linejoin="round"/>
</svg>
