<svg width="64" height="64" viewBox="0 0 64 64" fill="none" xmlns="http://www.w3.org/2000/svg">
<path d="M58.6667 26.6648V42.6648C58.6667 45.4938 57.5429 48.2069 55.5425 50.2073C53.5421 52.2077 50.829 53.3315 48 53.3315H16C13.1711 53.3315 10.458 52.2077 8.45757 50.2073C6.45718 48.2069 5.33337 45.4938 5.33337 42.6648V26.6648H58.6667ZM18.6934 37.3315H18.6667C18.3165 37.3332 17.9701 37.4039 17.6472 37.5396C17.3244 37.6752 17.0314 37.8731 16.785 38.1219C16.2874 38.6245 16.0098 39.3042 16.0134 40.0115C16.0151 40.3617 16.0858 40.7081 16.2215 41.0309C16.3571 41.3538 16.555 41.6468 16.8039 41.8932C17.0527 42.1396 17.3477 42.3345 17.6719 42.4669C17.9961 42.5993 18.3432 42.6665 18.6934 42.6648C19.4006 42.6648 20.0789 42.3838 20.579 41.8837C21.0791 41.3836 21.36 40.7054 21.36 39.9981C21.36 39.2909 21.0791 38.6126 20.579 38.1125C20.0789 37.6124 19.4006 37.3315 18.6934 37.3315ZM34.6667 37.3315H29.3334C28.6261 37.3315 27.9479 37.6124 27.4478 38.1125C26.9477 38.6126 26.6667 39.2909 26.6667 39.9981C26.6667 40.7054 26.9477 41.3836 27.4478 41.8837C27.9479 42.3838 28.6261 42.6648 29.3334 42.6648H34.6667C35.3739 42.6648 36.0522 42.3838 36.5523 41.8837C37.0524 41.3836 37.3334 40.7054 37.3334 39.9981C37.3334 39.2909 37.0524 38.6126 36.5523 38.1125C36.0522 37.6124 35.3739 37.3315 34.6667 37.3315ZM48 10.6648C50.829 10.6648 53.5421 11.7886 55.5425 13.789C57.5429 15.7894 58.6667 18.5025 58.6667 21.3315H5.33337C5.33337 18.5025 6.45718 15.7894 8.45757 13.789C10.458 11.7886 13.1711 10.6648 16 10.6648H48Z" fill="#151414"/>
</svg>
