<svg width="64" height="64" viewBox="0 0 64 64" fill="none" xmlns="http://www.w3.org/2000/svg">
<path d="M31.9931 5.3313L32.3078 5.34997L32.4651 5.3713L32.6278 5.40597L32.9238 5.49663C33.1282 5.572 33.3226 5.67231 33.5025 5.7953L33.7798 6.01397L34.4598 6.5953C39.8393 11.0635 46.6381 13.4628 53.6305 13.3606L54.5425 13.334C55.1387 13.3068 55.7268 13.4804 56.2127 13.827C56.6986 14.1737 57.0542 14.6733 57.2225 15.246C58.5328 19.7035 58.9338 24.379 58.4016 28.9945C57.8693 33.6101 56.4147 38.0716 54.1242 42.1139C51.8336 46.1562 48.7539 49.6968 45.0679 52.5254C41.382 55.3539 37.1651 57.4127 32.6678 58.5793C32.2288 58.6931 31.7681 58.6931 31.3291 58.5793C26.8316 57.413 22.6144 55.3544 18.9281 52.526C15.2419 49.6976 12.1619 46.157 9.87105 42.1147C7.58024 38.0723 6.12539 33.6108 5.59297 28.995C5.06056 24.3793 5.46144 19.7037 6.77179 15.246C6.94008 14.6733 7.29563 14.1737 7.78152 13.827C8.2674 13.4804 8.85554 13.3068 9.45179 13.334C16.7517 13.6677 23.9133 11.2646 29.5345 6.5953L30.2358 5.9953L30.4918 5.7953C30.6717 5.67231 30.866 5.572 31.0705 5.49663L31.3691 5.40597C31.4736 5.38072 31.5796 5.36202 31.6865 5.34997L31.9931 5.3313ZM41.8865 24.7793C41.6388 24.5314 41.3447 24.3347 41.021 24.2005C40.6972 24.0663 40.3502 23.9972 39.9998 23.9972C39.6493 23.9972 39.3023 24.0663 38.9786 24.2005C38.6549 24.3347 38.3608 24.5314 38.1131 24.7793L29.3318 33.558L25.8838 30.1126L25.6331 29.8913C25.0971 29.4769 24.4235 29.282 23.7491 29.3462C23.0746 29.4105 22.4499 29.729 22.0018 30.2372C21.5537 30.7454 21.3158 31.4051 21.3365 32.0823C21.3572 32.7595 21.6349 33.4034 22.1131 33.8833L27.4465 39.2166L27.6971 39.438C28.2102 39.836 28.8509 40.0331 29.4989 39.9923C30.147 39.9516 30.7579 39.6758 31.2171 39.2166L41.8838 28.55L42.1051 28.2993C42.5031 27.7862 42.7002 27.1455 42.6595 26.4975C42.6187 25.8494 42.3429 25.2385 41.8838 24.7793H41.8865Z" fill="#151414"/>
</svg>
