<svg width="40" height="41" viewBox="0 0 40 41" fill="none" xmlns="http://www.w3.org/2000/svg">
<path d="M26.6666 5.49805V12.1647M13.3333 5.49805V12.1647M6.66663 18.8314H33.3333M6.66663 12.1647C6.66663 11.2807 7.01782 10.4328 7.64294 9.80769C8.26806 9.18257 9.1159 8.83138 9.99996 8.83138H30C30.884 8.83138 31.7319 9.18257 32.357 9.80769C32.9821 10.4328 33.3333 11.2807 33.3333 12.1647V32.1647C33.3333 33.0488 32.9821 33.8966 32.357 34.5217C31.7319 35.1469 30.884 35.498 30 35.498H9.99996C9.1159 35.498 8.26806 35.1469 7.64294 34.5217C7.01782 33.8966 6.66663 33.0488 6.66663 32.1647V12.1647ZM13.3333 25.498H16.6666V28.8314H13.3333V25.498Z" stroke="#AB7650" stroke-width="3" stroke-linecap="round" stroke-linejoin="round"/>
</svg>
