<svg width="64" height="64" viewBox="0 0 64 64" fill="none" xmlns="http://www.w3.org/2000/svg">
<path d="M31.9991 10.6648C43.4391 10.6648 52.9671 17.1421 60.4391 29.7421L61.0258 30.7528L61.1458 31.0195L61.2258 31.2408L61.2631 31.3875L61.3004 31.6061L61.3298 31.8728V32.1661L61.2924 32.4621C61.2749 32.5611 61.2518 32.6591 61.2231 32.7555L61.1191 33.0435L61.0231 33.2435L60.9804 33.3235C53.6098 46.2195 44.1804 53.0035 32.8338 53.3208L31.9991 53.3315C20.2764 53.3315 10.5671 46.5341 3.01777 33.3208C2.78766 32.918 2.66663 32.4621 2.66663 31.9981C2.66663 31.5342 2.78766 31.0783 3.01777 30.6755C10.5671 17.4621 20.2764 10.6648 31.9991 10.6648ZM31.9991 23.9981C29.8774 23.9981 27.8425 24.841 26.3422 26.3413C24.842 27.8416 23.9991 29.8764 23.9991 31.9981C23.9991 34.1199 24.842 36.1547 26.3422 37.655C27.8425 39.1553 29.8774 39.9981 31.9991 39.9981C34.1208 39.9981 36.1557 39.1553 37.656 37.655C39.1562 36.1547 39.9991 34.1199 39.9991 31.9981C39.9991 29.8764 39.1562 27.8416 37.656 26.3413C36.1557 24.841 34.1208 23.9981 31.9991 23.9981Z" fill="#151414"/>
</svg>
