<svg width="64" height="64" viewBox="0 0 64 64" fill="none" xmlns="http://www.w3.org/2000/svg">
<path d="M31.9999 5.3313C46.7279 5.3313 58.6666 17.27 58.6666 31.998C58.6666 39.0704 55.8571 45.8532 50.8561 50.8541C45.8551 55.8551 39.0724 58.6646 31.9999 58.6646C24.9275 58.6646 18.1447 55.8551 13.1437 50.8541C8.14277 45.8532 5.33325 39.0704 5.33325 31.998C5.33325 17.27 17.2719 5.3313 31.9999 5.3313ZM37.3333 18.6646C35.3729 18.6643 33.4807 19.3838 32.0158 20.6865C30.5509 21.9891 29.6153 23.7843 29.3866 25.7313L29.3466 26.1953L29.3333 26.6646L29.3466 27.134C29.3973 27.9846 29.5786 28.798 29.8719 29.5553L30.1119 30.1126L20.7786 39.446L20.5599 39.6966C20.1971 40.1643 20.0001 40.7394 20.0001 41.3313C20.0001 41.9232 20.1971 42.4983 20.5599 42.966L20.7813 43.2166L24.7813 47.2166L25.0319 47.438C25.4996 47.8008 26.0747 47.9977 26.6666 47.9977C27.2585 47.9977 27.8336 47.8008 28.3013 47.438L28.5519 47.2166L28.7733 46.966C29.1361 46.4983 29.333 45.9232 29.333 45.3313C29.333 44.7394 29.1361 44.1643 28.7733 43.6966L28.5519 43.446L26.4399 41.3313L27.9999 39.7713L30.1146 41.8833L30.3653 42.1046C30.8784 42.5023 31.5189 42.6992 32.1668 42.6584C32.8147 42.6175 33.4255 42.3416 33.8846 41.8826C34.3436 41.4235 34.6194 40.8128 34.6603 40.1649C34.7012 39.517 34.5043 38.8764 34.1066 38.3633L33.8853 38.1126L31.7733 35.998L33.8853 33.886C34.9687 34.4025 36.1545 34.6686 37.3548 34.6646C38.5551 34.6606 39.7391 34.3865 40.8191 33.8627C41.8991 33.3389 42.8473 32.5788 43.5936 31.6387C44.3399 30.6986 44.8651 29.6027 45.1303 28.432C45.3955 27.2614 45.3938 26.0461 45.1255 24.8762C44.8572 23.7063 44.329 22.6117 43.5802 21.6737C42.8314 20.7356 41.881 19.9781 40.7997 19.4572C39.7183 18.9363 38.5335 18.6654 37.3333 18.6646ZM37.3333 23.998C38.0405 23.998 38.7188 24.2789 39.2189 24.779C39.719 25.2791 39.9999 25.9574 39.9999 26.6646C39.9999 27.3719 39.719 28.0502 39.2189 28.5502C38.7188 29.0503 38.0405 29.3313 37.3333 29.3313C36.626 29.3313 35.9477 29.0503 35.4476 28.5502C34.9475 28.0502 34.6666 27.3719 34.6666 26.6646C34.6666 25.9574 34.9475 25.2791 35.4476 24.779C35.9477 24.2789 36.626 23.998 37.3333 23.998Z" fill="#151414"/>
</svg>
