<svg width="40" height="40" viewBox="0 0 40 40" fill="none" xmlns="http://www.w3.org/2000/svg">
<path d="M19.9957 3.33154L20.1924 3.34321L20.2907 3.35654L20.3924 3.37821L20.5774 3.43488C20.7052 3.48198 20.8266 3.54468 20.9391 3.62154L21.1124 3.75821L21.5374 4.12154C24.8996 6.91415 29.1488 8.41371 33.519 8.34988L34.0891 8.33321C34.4617 8.31621 34.8293 8.42472 35.133 8.64138C35.4367 8.85803 35.6589 9.1703 35.764 9.52821C36.583 12.3142 36.8337 15.2363 36.501 18.1211C36.1684 21.0058 35.2592 23.7942 33.8276 26.3207C32.396 28.8471 30.4712 31.06 28.1675 32.8278C25.8638 34.5957 23.2282 35.8824 20.4174 36.6115C20.143 36.6827 19.8551 36.6827 19.5807 36.6115C16.7698 35.8826 14.134 34.596 11.8301 32.8282C9.52621 31.0605 7.60119 28.8476 6.16942 26.3211C4.73766 23.7947 3.82838 21.0062 3.49562 18.1214C3.16286 15.2366 3.41341 12.3143 4.23238 9.52821C4.33757 9.1703 4.55978 8.85803 4.86346 8.64138C5.16714 8.42472 5.53473 8.31621 5.90738 8.33321C10.4698 8.54177 14.9458 7.03986 18.4591 4.12154L18.8974 3.74654L19.0574 3.62154C19.1698 3.54468 19.2913 3.48198 19.4191 3.43488L19.6057 3.37821C19.671 3.36243 19.7373 3.35074 19.8041 3.34321L19.9957 3.33154ZM26.1791 15.4865C26.0243 15.3316 25.8404 15.2086 25.6381 15.1248C25.4358 15.0409 25.2189 14.9977 24.9999 14.9977C24.7809 14.9977 24.564 15.0409 24.3617 15.1248C24.1593 15.2086 23.9755 15.3316 23.8207 15.4865L18.3324 20.9732L16.1774 18.8199L16.0207 18.6815C15.6857 18.4225 15.2647 18.3007 14.8432 18.3409C14.4216 18.381 14.0312 18.5801 13.7511 18.8977C13.4711 19.2154 13.3224 19.6277 13.3353 20.0509C13.3483 20.4742 13.5218 20.8766 13.8207 21.1765L17.1541 24.5099L17.3107 24.6482C17.6314 24.897 18.0318 25.0202 18.4369 24.9947C18.8419 24.9692 19.2237 24.7968 19.5107 24.5099L26.1774 17.8432L26.3157 17.6865C26.5645 17.3659 26.6877 16.9655 26.6622 16.5604C26.6367 16.1554 26.4643 15.7735 26.1774 15.4865H26.1791Z" fill="white"/>
</svg>
