<svg width="64" height="64" viewBox="0 0 64 64" fill="none" xmlns="http://www.w3.org/2000/svg">
<path d="M15.5227 13.0908C25.9174 5.71752 40.7734 6.32018 50.384 14.5202C60.1627 22.8589 61.4987 36.4882 53.456 46.2455C45.8774 55.4375 32.216 58.4669 20.84 53.7255L20.2214 53.4562L8.55471 55.9389L8.35471 55.9735L8.06137 55.9975L7.76004 55.9869L7.64271 55.9735L7.34937 55.9202L7.06937 55.8295L6.80271 55.7122L6.60004 55.6002L6.31204 55.3948L6.09604 55.1975L5.90137 54.9762L5.76004 54.7762L5.58671 54.4695L5.47471 54.1868L5.39204 53.8855L5.35737 53.6855L5.33337 53.3922L5.34404 53.0908L5.35737 52.9735L5.41071 52.6802L5.46937 52.4882L8.53604 43.2855L8.47737 43.1895C2.58404 33.1975 5.25337 20.8109 14.9067 13.5415L15.52 13.0935L15.5227 13.0908Z" fill="#151414"/>
</svg>
