<svg width="41" height="41" viewBox="0 0 41 41" fill="none" xmlns="http://www.w3.org/2000/svg">
<path d="M12.0634 7.99805C10.4204 9.08399 9.00746 10.4828 7.90503 12.1147M5.64382 17.513C5.26033 19.443 5.26033 21.4297 5.64382 23.3597M7.83341 28.7679C8.91935 30.4108 10.3182 31.8238 11.9501 32.9262M17.3484 35.188C19.2741 35.5697 21.256 35.5697 23.1817 35.188M28.6033 32.9977C30.2462 31.9117 31.6592 30.5129 32.7616 28.881M35.0242 23.4834C35.4077 21.5534 35.4077 19.5667 35.0242 17.6367M32.8339 12.228C31.7479 10.5851 30.3491 9.17209 28.7172 8.06966M23.3188 5.80828C21.3909 5.41378 19.4043 5.40245 17.4721 5.77495M20.3334 13.8314L17.0001 20.498H23.6667L20.3334 27.1647M20.3334 35.498C24.3117 35.498 28.127 33.9177 30.94 31.1046C33.7531 28.2916 35.3334 24.4763 35.3334 20.498C35.3334 16.5198 33.7531 12.7045 30.94 9.89144C28.127 7.0784 24.3117 5.49805 20.3334 5.49805" stroke="#AB7650" stroke-width="3" stroke-linecap="round" stroke-linejoin="round"/>
</svg>
