<svg width="898" height="519" viewBox="0 0 898 519" fill="none" xmlns="http://www.w3.org/2000/svg">
<g clip-path="url(#clip0_2008_199)">
<path d="M192.04 64.662C192.04 52.3019 153.4 53.022 153.4 29.382C153.4 16.3019 165.16 6.46195 182.56 6.46195C196.12 6.46195 205.72 12.222 211.24 18.702L202.12 29.502C198.04 25.062 192.16 21.2219 184.36 21.2219C176.56 21.2219 172.6 24.7019 172.6 28.542C172.6 40.062 211.24 40.6619 211.24 64.182C211.24 77.622 199.12 87.462 181.24 87.462C166.36 87.462 156.16 81.582 149.92 75.822L158.8 63.582C163 67.902 170.92 72.822 179.92 72.822C188.2 72.822 192.04 68.622 192.04 64.662ZM286.756 47.022C286.756 69.702 273.916 87.462 250.876 87.462C227.716 87.462 214.876 69.702 214.876 47.022C214.876 24.2219 227.716 6.46195 250.876 6.46195C273.916 6.46195 286.756 24.2219 286.756 47.022ZM250.876 21.102C242.236 21.102 235.036 27.5819 235.036 47.022C235.036 66.342 242.236 72.822 250.876 72.822C259.396 72.822 266.596 66.342 266.596 47.022C266.596 27.5819 259.396 21.102 250.876 21.102ZM314.692 47.022C314.692 63.342 321.772 72.822 334.252 72.822C342.412 72.822 347.812 68.862 351.892 64.422L361.012 75.342C355.372 81.462 346.852 87.582 333.172 87.462C310.852 87.342 294.532 70.782 294.532 47.022C294.532 23.142 310.852 6.58195 333.172 6.46195C346.852 6.34195 355.372 12.4619 361.012 18.702L351.772 29.502C347.812 25.062 342.412 21.102 334.252 21.102C321.772 21.102 314.692 30.582 314.692 47.022ZM387.24 86.502H368.16V8.38195H387.24V86.502ZM446.561 71.382H419.921L415.121 86.502H394.961L422.561 8.38195H443.801L471.521 86.502H451.361L446.561 71.382ZM424.361 56.742H442.121L433.241 28.542L424.361 56.742ZM498.277 8.38195V71.262H528.157V86.502H479.197V8.38195H498.277ZM582.465 39.942V86.502H563.505V8.38195H586.185L608.145 60.462L629.985 8.38195H652.665V86.502H633.705V39.942L615.945 83.982H600.225L582.465 39.942ZM719.089 23.5019H684.169V38.622H715.849V53.742H684.169V71.262H719.089V86.502H665.089V8.38195H719.089V23.5019ZM758.691 8.38195C782.571 8.38195 797.211 24.5819 797.211 47.382C797.211 70.302 782.571 86.502 758.691 86.502H728.811V8.38195H758.691ZM747.891 23.5019V71.262H757.491C770.091 71.262 777.171 63.222 777.171 47.382C777.171 31.662 770.091 23.5019 757.491 23.5019H747.891ZM826.73 86.502H807.65V8.38195H826.73V86.502ZM886.052 71.382H859.412L854.612 86.502H834.452L862.052 8.38195H883.292L911.012 86.502H890.852L886.052 71.382ZM863.852 56.742H881.612L872.732 28.542L863.852 56.742ZM955.648 64.662C955.648 52.3019 917.008 53.022 917.008 29.382C917.008 16.3019 928.768 6.46195 946.168 6.46195C959.728 6.46195 969.328 12.222 974.848 18.702L965.728 29.502C961.648 25.062 955.768 21.2219 947.968 21.2219C940.168 21.2219 936.208 24.7019 936.208 28.542C936.208 40.062 974.848 40.6619 974.848 64.182C974.848 77.622 962.728 87.462 944.848 87.462C929.968 87.462 919.768 81.582 913.528 75.822L922.408 63.582C926.608 67.902 934.528 72.822 943.528 72.822C951.808 72.822 955.648 68.622 955.648 64.662Z" fill="#AB7650" fill-opacity="0.1"/>
<path d="M30.0355 203.382H20.8195V216.502H10.6435V174.838H30.0355C36.5635 174.838 44.8835 178.166 44.8835 189.11C44.8835 200.054 36.5635 203.382 30.0355 203.382ZM20.8195 182.902V195.318H28.4995C32.7235 195.318 34.7075 192.886 34.7075 189.11C34.7075 185.334 32.7875 182.902 28.4995 182.902H20.8195ZM59.9295 201.91V216.502H49.7535V174.838H67.9935C74.5215 174.838 82.7775 177.974 82.7775 187.958C82.7775 194.294 79.3855 198.582 75.1615 200.31L84.4415 216.502H73.6255L65.7535 201.91H59.9295ZM66.3935 182.902H59.9295V193.782H66.3295C70.1695 193.782 72.6015 191.926 72.6015 188.342C72.6015 184.758 70.2335 182.902 66.3935 182.902ZM124.918 195.446C124.918 207.542 118.07 217.014 105.782 217.014C93.43 217.014 86.582 207.542 86.582 195.446C86.582 183.286 93.43 173.814 105.782 173.814C118.07 173.814 124.918 183.286 124.918 195.446ZM105.782 181.622C101.174 181.622 97.334 185.078 97.334 195.446C97.334 205.75 101.174 209.206 105.782 209.206C110.326 209.206 114.166 205.75 114.166 195.446C114.166 185.078 110.326 181.622 105.782 181.622ZM140.649 191.542H157.545V199.67H140.649V216.502H130.473V174.838H159.273V182.902H140.649V191.542ZM173.947 216.502H163.771V174.838H173.947V216.502ZM200.593 204.854C200.593 198.262 179.985 198.646 179.985 186.038C179.985 179.062 186.257 173.814 195.537 173.814C202.769 173.814 207.889 176.886 210.833 180.342L205.969 186.102C203.793 183.734 200.657 181.686 196.497 181.686C192.337 181.686 190.225 183.542 190.225 185.59C190.225 191.734 210.833 192.054 210.833 204.598C210.833 211.766 204.369 217.014 194.833 217.014C186.897 217.014 181.457 213.878 178.129 210.806L182.865 204.278C185.105 206.582 189.329 209.206 194.129 209.206C198.545 209.206 200.593 206.966 200.593 204.854ZM233.828 204.854C233.828 198.262 213.22 198.646 213.22 186.038C213.22 179.062 219.492 173.814 228.772 173.814C236.004 173.814 241.124 176.886 244.068 180.342L239.204 186.102C237.028 183.734 233.892 181.686 229.732 181.686C225.572 181.686 223.46 183.542 223.46 185.59C223.46 191.734 244.068 192.054 244.068 204.598C244.068 211.766 237.604 217.014 228.068 217.014C220.132 217.014 214.692 213.878 211.364 210.806L216.1 204.278C218.34 206.582 222.564 209.206 227.364 209.206C231.78 209.206 233.828 206.966 233.828 204.854ZM259.527 216.502H249.351V174.838H259.527V216.502ZM303.453 195.446C303.453 207.542 296.605 217.014 284.317 217.014C271.965 217.014 265.117 207.542 265.117 195.446C265.117 183.286 271.965 173.814 284.317 173.814C296.605 173.814 303.453 183.286 303.453 195.446ZM284.317 181.622C279.709 181.622 275.869 185.078 275.869 195.446C275.869 205.75 279.709 209.206 284.317 209.206C288.861 209.206 292.701 205.75 292.701 195.446C292.701 185.078 288.861 181.622 284.317 181.622ZM319.184 190.518V216.502H309.008V174.838H320.016L337.168 200.822V174.838H347.28V216.502H336.272L319.184 190.518ZM378.885 208.438H364.677L362.117 216.502H351.365L366.085 174.838H377.413L392.197 216.502H381.445L378.885 208.438ZM367.045 200.63H376.517L371.781 185.59L367.045 200.63ZM406.467 174.838V208.374H422.403V216.502H396.291V174.838H406.467ZM202.792 238.838V272.374H218.728V280.502H192.616V238.838H202.792ZM233.277 280.502H223.101V238.838H233.277V280.502ZM274.003 249.718C274.003 253.814 272.211 257.334 269.267 259.254C272.979 260.47 275.731 264.054 275.731 269.174C275.731 276.726 269.971 280.502 262.483 280.502H240.211V238.838H260.179C268.499 238.838 274.003 242.55 274.003 249.718ZM250.387 272.374H259.027C263.187 272.374 264.979 270.774 264.979 267.702C264.979 264.63 263.187 263.03 259.027 263.03H250.387V272.374ZM258.003 246.902H250.387V254.966H258.003C261.139 254.966 263.251 253.942 263.251 250.934C263.251 247.926 261.139 246.902 258.003 246.902ZM309.558 246.902H290.934V254.966H307.83V263.03H290.934V272.374H309.558V280.502H280.758V238.838H309.558V246.902ZM324.919 265.91V280.502H314.743V238.838H332.983C339.511 238.838 347.768 241.974 347.768 251.958C347.768 258.294 344.375 262.582 340.152 264.31L349.431 280.502H338.615L330.743 265.91H324.919ZM331.383 246.902H324.919V257.782H331.319C335.16 257.782 337.591 255.926 337.591 252.342C337.591 248.758 335.223 246.902 331.383 246.902ZM378.245 272.438H364.037L361.477 280.502H350.725L365.445 238.838H376.773L391.557 280.502H380.805L378.245 272.438ZM366.405 264.63H375.877L371.141 249.59L366.405 264.63ZM405.827 238.838V272.374H421.763V280.502H395.651V238.838H405.827Z" fill="#AB7650" fill-opacity="0.1"/>
<path d="M574.168 423.382H564.952V436.502H554.776V394.838H574.168C580.696 394.838 589.016 398.166 589.016 409.11C589.016 420.054 580.696 423.382 574.168 423.382ZM564.952 402.902V415.318H572.632C576.856 415.318 578.84 412.886 578.84 409.11C578.84 405.334 576.92 402.902 572.632 402.902H564.952ZM604.062 421.91V436.502H593.886V394.838H612.126C618.654 394.838 626.91 397.974 626.91 407.958C626.91 414.294 623.518 418.582 619.294 420.31L628.574 436.502H617.758L609.886 421.91H604.062ZM610.526 402.902H604.062V413.782H610.462C614.302 413.782 616.734 411.926 616.734 408.342C616.734 404.758 614.366 402.902 610.526 402.902ZM661.484 402.902H642.86V410.966H659.756V419.03H642.86V428.374H661.484V436.502H632.684V394.838H661.484V402.902ZM686.381 424.854C686.381 418.262 665.773 418.646 665.773 406.038C665.773 399.062 672.045 393.814 681.325 393.814C688.557 393.814 693.677 396.886 696.621 400.342L691.757 406.102C689.581 403.734 686.445 401.686 682.285 401.686C678.125 401.686 676.013 403.542 676.013 405.59C676.013 411.734 696.621 412.054 696.621 424.598C696.621 431.766 690.157 437.014 680.621 437.014C672.685 437.014 667.245 433.878 663.917 430.806L668.653 424.278C670.893 426.582 675.117 429.206 679.917 429.206C684.333 429.206 686.381 426.966 686.381 424.854ZM710.496 436.502V402.902H698.848V394.838H732.32V402.902H720.672V436.502H710.496ZM755.843 428.438H741.635L739.075 436.502H728.323L743.043 394.838H754.371L769.155 436.502H758.403L755.843 428.438ZM744.003 420.63H753.475L748.739 405.59L744.003 420.63ZM789.185 394.838C801.921 394.838 809.729 403.478 809.729 415.638C809.729 427.862 801.921 436.502 789.185 436.502H773.249V394.838H789.185ZM783.425 402.902V428.374H788.545C795.265 428.374 799.041 424.086 799.041 415.638C799.041 407.254 795.265 402.902 788.545 402.902H783.425ZM852.288 415.446C852.288 427.542 845.44 437.014 833.152 437.014C820.8 437.014 813.952 427.542 813.952 415.446C813.952 403.286 820.8 393.814 833.152 393.814C845.44 393.814 852.288 403.286 852.288 415.446ZM833.152 401.622C828.544 401.622 824.704 405.078 824.704 415.446C824.704 425.75 828.544 429.206 833.152 429.206C837.696 429.206 841.536 425.75 841.536 415.446C841.536 405.078 837.696 401.622 833.152 401.622ZM868.02 421.91V436.502H857.844V394.838H876.084C882.612 394.838 890.868 397.974 890.868 407.958C890.868 414.294 887.476 418.582 883.252 420.31L892.532 436.502H881.716L873.844 421.91H868.02ZM874.484 402.902H868.02V413.782H874.42C878.26 413.782 880.692 411.926 880.692 408.342C880.692 404.758 878.324 402.902 874.484 402.902ZM570.712 458.838C583.448 458.838 591.256 467.478 591.256 479.638C591.256 491.862 583.448 500.502 570.712 500.502H554.776V458.838H570.712ZM564.952 466.902V492.374H570.072C576.792 492.374 580.568 488.086 580.568 479.638C580.568 471.254 576.792 466.902 570.072 466.902H564.952ZM624.999 466.902H606.375V474.966H623.271V483.03H606.375V492.374H624.999V500.502H596.199V458.838H624.999V466.902ZM664.631 488.854C664.631 482.262 644.023 482.646 644.023 470.038C644.023 463.062 650.295 457.814 659.575 457.814C666.807 457.814 671.927 460.886 674.871 464.342L670.007 470.102C667.831 467.734 664.695 465.686 660.535 465.686C656.375 465.686 654.263 467.542 654.263 469.59C654.263 475.734 674.871 476.054 674.871 488.598C674.871 495.766 668.407 501.014 658.871 501.014C650.935 501.014 645.495 497.878 642.167 494.806L646.903 488.278C649.143 490.582 653.367 493.206 658.167 493.206C662.583 493.206 664.631 490.966 664.631 488.854ZM708.954 466.902H690.33V474.966H707.226V483.03H690.33V492.374H708.954V500.502H680.154V458.838H708.954V466.902ZM724.315 485.91V500.502H714.139V458.838H732.379C738.907 458.838 747.163 461.974 747.163 471.958C747.163 478.294 743.771 482.582 739.547 484.31L748.827 500.502H738.011L730.139 485.91H724.315ZM730.779 466.902H724.315V477.782H730.715C734.555 477.782 736.987 475.926 736.987 472.342C736.987 468.758 734.619 466.902 730.779 466.902ZM759.064 458.838L768.344 487.958L777.56 458.838H788.632L773.72 500.502H762.968L747.992 458.838H759.064ZM802.785 500.502H792.609V458.838H802.785V500.502ZM823.543 500.374C814.455 498.07 808.311 490.134 808.311 479.446C808.311 466.71 817.015 457.878 828.919 457.814C836.215 457.75 840.759 461.014 843.767 464.342L838.839 470.102C836.727 467.734 833.847 465.622 829.495 465.622C822.839 465.622 819.063 470.678 819.063 479.446C819.063 488.15 822.839 493.206 829.495 493.206C833.847 493.206 836.727 491.094 838.903 488.726L843.767 494.55C839.287 499.414 834.615 501.014 828.087 501.014L826.935 504.086C831.095 505.43 833.463 509.142 832.631 513.174C831.863 516.694 828.983 518.87 825.015 518.87C821.751 518.806 819.255 517.27 817.783 515.414L819.895 512.47C820.983 513.366 822.519 514.39 824.375 514.39C826.615 514.326 827.767 512.918 828.023 511.574C828.663 508.694 825.335 507.286 822.455 506.71L823.543 500.374ZM883.945 479.446C883.945 491.542 877.097 501.014 864.809 501.014C852.457 501.014 845.609 491.542 845.609 479.446C845.609 467.286 852.457 457.814 864.809 457.814C877.097 457.814 883.945 467.286 883.945 479.446ZM864.809 465.622C860.201 465.622 856.361 469.078 856.361 479.446C856.361 489.75 860.201 493.206 864.809 493.206C869.353 493.206 873.193 489.75 873.193 479.446C873.193 469.078 869.353 465.622 864.809 465.622Z" fill="#AB7650" fill-opacity="0.1"/>
</g>
<defs>
<clipPath id="clip0_2008_199">
<rect width="979" height="518" fill="white" transform="translate(0 0.501953)"/>
</clipPath>
</defs>
</svg>
