<svg width="23" height="29" viewBox="0 0 23 29" fill="none" xmlns="http://www.w3.org/2000/svg">
<path d="M19.1207 18.8466L19.1311 18.8168C19.2062 18.5351 19.3233 18.2664 19.4787 18.0197C19.6759 17.8139 19.9037 17.6397 20.154 17.5033C20.6588 17.2458 21.0779 16.847 21.3601 16.3556C21.557 15.8276 21.6004 15.2546 21.4855 14.7029C21.4328 14.4094 21.425 14.1097 21.4622 13.8138C21.5511 13.5446 21.6801 13.2903 21.845 13.0597C22.1921 12.6015 22.4007 12.0535 22.4461 11.4804C22.4005 10.9077 22.1921 10.3599 21.8455 9.90173C21.6803 9.67097 21.551 9.4165 21.4621 9.147C21.4249 8.85138 21.4327 8.55181 21.4854 8.25855C21.6002 7.70687 21.557 7.134 21.3606 6.60582C21.0782 6.11487 20.6595 5.71642 20.1551 5.4588C19.9045 5.322 19.6765 5.14739 19.4792 4.94111C19.3237 4.69441 19.2064 4.42569 19.1311 4.144C19.0009 3.59257 18.7156 3.08992 18.3089 2.69549C17.8464 2.37759 17.3003 2.20319 16.7391 2.19413C16.4541 2.18152 16.1729 2.12431 15.9056 2.02458C15.6671 1.87365 15.4529 1.68743 15.2703 1.47229C14.9146 1.02573 14.4354 0.693725 13.8924 0.517681C13.3429 0.439949 12.7828 0.525288 12.2814 0.763105C12.0144 0.880302 11.7307 0.954905 11.4406 0.984194C11.1507 0.955011 10.8672 0.880467 10.6005 0.763288C10.0991 0.525083 9.53852 0.440013 8.98899 0.518721C8.4462 0.694121 7.96709 1.0255 7.61146 1.47149C7.42914 1.68696 7.21488 1.87322 6.97614 2.02379C6.70886 2.12352 6.42759 2.18073 6.14259 2.19333C5.58141 2.20239 5.03537 2.37679 4.57283 2.6947C4.16602 3.08939 3.88054 3.59217 3.75005 4.14376C3.67501 4.42545 3.55785 4.69419 3.40252 4.94087C3.20528 5.14669 2.9775 5.32089 2.72721 5.45733C2.22238 5.71482 1.80332 6.11355 1.52106 6.60496C1.32422 7.13302 1.28075 7.70598 1.39566 8.25769C1.44835 8.55116 1.4562 8.85093 1.41895 9.14675C1.33013 9.41599 1.20109 9.67024 1.03621 9.90088C0.689037 10.3591 0.480425 10.9073 0.435059 11.4804C0.480681 12.0531 0.689089 12.6009 1.03572 13.0591C1.2009 13.2899 1.33016 13.5443 1.41908 13.8138C1.45635 14.1096 1.4485 14.4092 1.39578 14.7026C1.28096 15.2543 1.32422 15.8271 1.52057 16.3553C1.80295 16.8463 2.22173 17.2447 2.7261 17.5023C2.97668 17.6391 3.20467 17.8137 3.40203 18.02C3.55745 18.2667 3.67479 18.5354 3.75011 18.8171L3.76142 18.8497C3.75946 18.8528 3.75616 18.8545 3.75427 18.8577L0.600447 24.3202C0.485175 24.5197 0.428609 24.7476 0.43727 24.9778C0.445931 25.208 0.519467 25.4311 0.649401 25.6213C0.779335 25.8115 0.960377 25.9612 1.17166 26.053C1.38294 26.1448 1.61587 26.175 1.84358 26.1402L3.97218 25.8165L4.75675 27.8233C4.83978 28.0383 4.98229 28.2251 5.16763 28.3621C5.35296 28.499 5.57345 28.5803 5.80331 28.5965C5.83494 28.5989 5.86659 28.6001 5.89827 28.6001C6.11265 28.6007 6.32334 28.5443 6.50888 28.4369C6.69442 28.3295 6.84818 28.1749 6.95449 27.9887L10.2212 22.3299C10.351 22.2881 10.4775 22.2422 10.5997 22.1975C10.8667 22.0804 11.1505 22.0059 11.4406 21.9766C11.7305 22.0058 12.0139 22.0804 12.2807 22.1975C12.403 22.2423 12.5308 22.2867 12.6607 22.3286L12.6634 22.3367L15.9265 27.9887C16.0328 28.1749 16.1866 28.3295 16.3721 28.4369C16.5577 28.5443 16.7684 28.6007 16.9827 28.6001C17.0144 28.6001 17.046 28.5989 17.0777 28.5965C17.3077 28.5803 17.5283 28.4989 17.7138 28.3618C17.8993 28.2248 18.0419 28.0378 18.125 27.8227L18.9089 25.8165L21.0367 26.1402C21.2645 26.1752 21.4975 26.1451 21.7089 26.0534C21.9203 25.9616 22.1015 25.812 22.2316 25.6218C22.3616 25.4315 22.4352 25.2084 22.4439 24.9781C22.4526 24.7478 22.3961 24.5197 22.2807 24.3202L19.1207 18.8466ZM5.89545 27.3773L4.93357 24.9155C4.88262 24.7865 4.78949 24.6786 4.66936 24.6093C4.54923 24.54 4.40917 24.5135 4.27202 24.534L1.65967 24.9316L4.43618 20.1224C4.47865 20.1727 4.5241 20.2205 4.57228 20.2653C5.03482 20.5832 5.58086 20.7576 6.14204 20.7667C6.42704 20.7793 6.7083 20.8365 6.97559 20.9362C7.21405 21.0872 7.42826 21.2734 7.61091 21.4885C7.93161 21.8667 8.33379 22.1672 8.78728 22.3677L5.89545 27.3773ZM12.7001 21.0487C12.3007 20.8777 11.8744 20.7779 11.4406 20.7538C11.0067 20.7776 10.5804 20.8774 10.1811 21.0487C9.89609 21.1878 9.58222 21.2574 9.26516 21.2517C8.96206 21.113 8.69669 20.9035 8.49135 20.6409C8.2155 20.3192 7.88552 20.0481 7.51632 19.84C7.12278 19.6722 6.70294 19.5744 6.27576 19.5511C5.95149 19.5507 5.63227 19.4707 5.34609 19.3183C5.13291 19.06 4.9834 18.7552 4.9096 18.4286C4.79609 18.0131 4.61203 17.6203 4.36544 17.2672C4.08581 16.9452 3.75197 16.6747 3.37904 16.4678C3.0803 16.3208 2.82194 16.1032 2.62638 15.8337C2.54346 15.5094 2.53814 15.17 2.61085 14.8432C2.68336 14.4148 2.68416 13.9774 2.61324 13.5487C2.49932 13.1416 2.31656 12.757 2.07287 12.4115C1.86068 12.1396 1.71822 11.82 1.6579 11.4804C1.71813 11.1409 1.86061 10.8213 2.07287 10.5495C2.31679 10.2042 2.49958 9.81952 2.61324 9.41229C2.68418 8.98358 2.68338 8.54606 2.61085 8.11761C2.538 7.7908 2.54353 7.45138 2.62699 7.12712C2.82234 6.85706 3.08083 6.63894 3.37989 6.49179C3.75302 6.28517 4.08707 6.01479 4.36691 5.69291C4.61292 5.33992 4.7965 4.94731 4.90966 4.53219C4.98378 4.2054 5.13347 3.90052 5.34671 3.64203C5.63288 3.48954 5.9521 3.40957 6.27637 3.40914C6.70363 3.3858 7.12353 3.28799 7.51712 3.12012C7.88658 2.91238 8.21662 2.64126 8.49215 2.31916C8.69753 2.05677 8.9629 1.84751 9.26596 1.70897C9.58278 1.70391 9.89634 1.77344 10.1813 1.91196C10.5807 2.083 11.0068 2.18287 11.4406 2.20703C11.8745 2.18322 12.3008 2.08339 12.7001 1.91208C12.9853 1.77361 13.299 1.70408 13.616 1.70909C13.9191 1.84783 14.1845 2.0573 14.3898 2.3199C14.6657 2.64166 14.9957 2.91273 15.3649 3.12086C15.7584 3.28864 16.1782 3.38639 16.6054 3.40969C16.9297 3.41012 17.2489 3.49009 17.5351 3.64258C17.7483 3.90085 17.8978 4.2056 17.9716 4.53226C18.0851 4.94768 18.2692 5.34051 18.5157 5.69358C18.7954 6.0156 19.1292 6.28618 19.5021 6.49307C19.8009 6.64004 20.0592 6.85768 20.2548 7.12712C20.3377 7.45148 20.343 7.79081 20.2703 8.11761C20.1978 8.546 20.197 8.98346 20.2679 9.41211C20.3819 9.81924 20.5646 10.2039 20.8083 10.5493C21.0205 10.8212 21.163 11.1409 21.2233 11.4804C21.163 11.8199 21.0206 12.1395 20.8083 12.4113C20.5644 12.7566 20.3816 13.1413 20.2679 13.5485C20.197 13.9772 20.1978 14.4148 20.2703 14.8432C20.3432 15.17 20.3377 15.5094 20.2542 15.8337C20.0588 16.1038 19.8004 16.3219 19.5013 16.469C19.1282 16.6757 18.7941 16.946 18.5143 17.2679C18.2683 17.6209 18.0847 18.0135 17.9715 18.4286C17.8974 18.7555 17.7477 19.0604 17.5345 19.3189C17.2483 19.4714 16.9291 19.5514 16.6048 19.5518C16.1776 19.5752 15.7577 19.673 15.3641 19.8408C14.9946 20.0486 14.6646 20.3197 14.389 20.6418C14.1836 20.9042 13.9183 21.1134 13.6152 21.252C13.2985 21.2566 12.9851 21.187 12.7001 21.0487ZM18.6095 24.5338C18.4723 24.5135 18.3324 24.5402 18.2123 24.6094C18.0922 24.6787 17.999 24.7865 17.9479 24.9154L16.9857 27.3773L14.0937 22.3677C14.547 22.1675 14.9491 21.8672 15.2697 21.4893C15.452 21.2739 15.6663 21.0876 15.905 20.937C16.1723 20.8373 16.4536 20.7801 16.7386 20.7675C17.2998 20.7584 17.8458 20.584 18.3083 20.2661C18.3568 20.221 18.4024 20.1731 18.4451 20.1225L21.2215 24.9316L18.6095 24.5338ZM18.7776 11.4804C18.7776 10.0293 18.3473 8.61075 17.5411 7.40418C16.7349 6.19762 15.589 5.25721 14.2483 4.70189C12.9077 4.14657 11.4325 4.00127 10.0092 4.28437C8.58597 4.56747 7.27863 5.26626 6.25253 6.29236C5.22643 7.31846 4.52765 8.62579 4.24455 10.049C3.96145 11.4723 4.10675 12.9475 4.66207 14.2882C5.21739 15.6288 6.15779 16.7747 7.36436 17.5809C8.57093 18.3871 9.98947 18.8174 11.4406 18.8174C13.3858 18.8153 15.2508 18.0416 16.6263 16.6661C18.0018 15.2906 18.7755 13.4257 18.7776 11.4804ZM11.4406 17.5946C10.2313 17.5946 9.0492 17.236 8.04373 16.5642C7.03826 15.8923 6.25459 14.9374 5.79182 13.8202C5.32905 12.703 5.20797 11.4736 5.44389 10.2876C5.67981 9.10156 6.26213 8.01212 7.11721 7.15703C7.97229 6.30195 9.06174 5.71963 10.2478 5.48371C11.4338 5.2478 12.6632 5.36888 13.7804 5.83165C14.8976 6.29441 15.8525 7.07808 16.5244 8.08356C17.1962 9.08903 17.5548 10.2711 17.5548 11.4804C17.5529 13.1014 16.9081 14.6555 15.7619 15.8017C14.6156 16.9479 13.0616 17.5927 11.4406 17.5946ZM14.2254 9.13746C14.2923 9.18196 14.3497 9.23921 14.3944 9.30592C14.4391 9.37263 14.4702 9.44749 14.486 9.52624C14.5017 9.60499 14.5018 9.68606 14.4862 9.76483C14.4705 9.84361 14.4396 9.91853 14.395 9.98531L11.9493 13.6538C11.8991 13.729 11.8328 13.7922 11.7553 13.8387C11.6778 13.8852 11.5909 13.914 11.5009 13.9228C11.4806 13.9249 11.4603 13.9261 11.4406 13.9261C11.2784 13.9261 11.123 13.8616 11.0083 13.7469L9.17406 11.9127C9.06269 11.7974 9.00106 11.6429 9.00245 11.4826C9.00385 11.3223 9.06815 11.169 9.18151 11.0556C9.29487 10.9422 9.44822 10.8779 9.60854 10.8765C9.76885 10.8751 9.92329 10.9368 10.0386 11.0481L11.3456 12.3552L13.3775 9.30701C13.4675 9.17214 13.6074 9.07853 13.7664 9.04674C13.9254 9.01495 14.0905 9.04758 14.2254 9.13746Z" fill="black"/>
</svg>
