<svg width="28" height="28" viewBox="0 0 28 28" fill="none" xmlns="http://www.w3.org/2000/svg">
  <path d="M27.8219 15.0869C27.5739 12.5923 26.4595 10.2406 24.6838 8.46487C23.1663 6.94743 21.3089 5.97229 19.3545 5.5387V4.16795C20.1528 3.96936 20.7461 3.24682 20.7461 2.388C20.7461 1.37655 19.9233 0.553711 18.9118 0.553711H15.0274C14.016 0.553711 13.1932 1.37655 13.1932 2.388C13.1932 3.24676 13.7865 3.96931 14.5847 4.16795V5.54253C12.6363 5.97796 10.7851 6.95175 9.27189 8.46492C8.94075 8.79607 8.6354 9.14345 8.35588 9.50448C8.34234 9.50345 8.3288 9.50243 8.31499 9.50243H4.47049C4.17258 9.50243 3.931 9.74396 3.931 10.0419C3.931 10.3399 4.17258 10.5814 4.47049 10.5814H7.62179C7.22623 11.2436 6.90728 11.9391 6.66451 12.655H0.792913C0.495004 12.655 0.253418 12.8966 0.253418 13.1945C0.253418 13.4925 0.495004 13.734 0.792913 13.734H6.35964C6.20416 14.4165 6.11493 15.1111 6.09189 15.8077H3.70619C3.40828 15.8077 3.16669 16.0492 3.16669 16.3472C3.16669 16.6451 3.40828 16.8867 3.70619 16.8867H6.1091C6.15463 17.585 6.2669 18.2796 6.44596 18.9603H2.95089C2.65299 18.9603 2.4114 19.2019 2.4114 19.4998C2.4114 19.7978 2.65299 20.0393 2.95089 20.0393H6.79027C7.31951 21.4394 8.14661 22.7516 9.27189 23.8769C11.0493 25.6543 13.4035 26.769 15.9006 27.0157C16.257 27.0509 16.6136 27.0683 16.9698 27.0683C19.075 27.0683 21.1535 26.459 22.9171 25.3106C23.1668 25.148 23.2374 24.8137 23.0748 24.5641C22.9122 24.3144 22.578 24.2438 22.3283 24.4064C18.4678 26.9203 13.2977 26.3767 10.0348 23.1139C6.20648 19.2855 6.20648 13.0564 10.0348 9.22793C13.8632 5.39962 20.0923 5.39962 23.9208 9.22793C27.1793 12.4865 27.7258 17.6522 25.2202 21.5108C25.0579 21.7607 25.129 22.0948 25.3788 22.2571C25.6288 22.4193 25.9629 22.3483 26.1251 22.0984C27.4638 20.0367 28.0664 17.5467 27.8219 15.0869ZM14.2722 2.38805C14.2722 1.97156 14.611 1.63276 15.0274 1.63276H18.9118C19.3283 1.63276 19.6671 1.97156 19.6671 2.38805C19.6671 2.80454 19.3283 3.14334 18.9118 3.14334H18.815H15.1242H15.0274C14.611 3.14334 14.2722 2.80449 14.2722 2.38805ZM15.6637 5.35705V4.22233H18.2755V5.35511C17.4082 5.25196 16.5308 5.25261 15.6637 5.35705Z" fill="black"/>
  <path d="M24.3026 22.9556C24.1602 22.9556 24.0216 23.0133 23.9213 23.1136C23.8204 23.214 23.7632 23.3532 23.7632 23.4951C23.7632 23.6369 23.8204 23.7761 23.9213 23.8765C24.0216 23.9774 24.1603 24.0345 24.3026 24.0345C24.4445 24.0345 24.5832 23.9774 24.6841 23.8765C24.7844 23.7761 24.8421 23.6369 24.8421 23.4951C24.8421 23.3532 24.7845 23.214 24.6841 23.1136C24.5832 23.0133 24.4445 22.9556 24.3026 22.9556Z" fill="black"/>
  <path d="M16.978 7.80176C12.3632 7.80176 8.60883 11.5561 8.60883 16.1709C8.60883 20.7857 12.3632 24.54 16.978 24.54C21.5927 24.54 25.3471 20.7857 25.3471 16.1709C25.3471 11.5561 21.5927 7.80176 16.978 7.80176ZM16.978 23.461C12.9581 23.461 9.68782 20.1907 9.68782 16.1709C9.68782 12.1511 12.9581 8.88075 16.978 8.88075C20.9978 8.88075 24.2681 12.1511 24.2681 16.1709C24.2681 20.1907 20.9978 23.461 16.978 23.461Z" fill="black"/>
  <path d="M20.3905 11.9954L17.7184 14.6675C17.4949 14.557 17.2436 14.4946 16.9779 14.4946C16.7121 14.4946 16.4608 14.557 16.2374 14.6675L15.0415 13.4716C14.8307 13.2609 14.4892 13.2609 14.2785 13.4716C14.0678 13.6822 14.0678 14.0239 14.2785 14.2345L15.4744 15.4304C15.3638 15.6539 15.3014 15.9052 15.3014 16.1709C15.3014 17.0953 16.0535 17.8474 16.9779 17.8474C17.9023 17.8474 18.6543 17.0953 18.6543 16.1709C18.6543 15.9052 18.5919 15.6539 18.4814 15.4304L21.0751 12.8368L21.1535 12.7584C21.3641 12.5477 21.3641 12.2061 21.1535 11.9954C20.9428 11.7847 20.6013 11.7847 20.3905 11.9954ZM16.9779 16.7684C16.6485 16.7684 16.3804 16.5004 16.3804 16.171C16.3804 15.8416 16.6485 15.5736 16.9779 15.5736C17.3073 15.5736 17.5753 15.8416 17.5753 16.171C17.5753 16.5004 17.3073 16.7684 16.9779 16.7684Z" fill="black"/>
  <path d="M22.7461 15.6382H22.2462C21.9483 15.6382 21.7068 15.8797 21.7068 16.1777C21.7068 16.4756 21.9483 16.7172 22.2462 16.7172H22.7461C23.044 16.7172 23.2856 16.4756 23.2856 16.1777C23.2856 15.8797 23.044 15.6382 22.7461 15.6382Z" fill="black"/>
  <path d="M11.7095 15.625H11.2097C10.9118 15.625 10.6703 15.8665 10.6703 16.1645C10.6703 16.4624 10.9118 16.704 11.2097 16.704H11.7095C12.0074 16.704 12.249 16.4624 12.249 16.1645C12.249 15.8665 12.0074 15.625 11.7095 15.625Z" fill="black"/>
  <path d="M16.9846 11.442C17.2825 11.442 17.524 11.2005 17.524 10.9025V10.4028C17.524 10.1048 17.2825 9.86328 16.9846 9.86328C16.6867 9.86328 16.4451 10.1048 16.4451 10.4028V10.9025C16.4451 11.2005 16.6867 11.442 16.9846 11.442Z" fill="black"/>
  <path d="M16.9713 20.8999C16.6734 20.8999 16.4318 21.1414 16.4318 21.4394V21.9392C16.4318 22.2371 16.6734 22.4787 16.9713 22.4787C17.2692 22.4787 17.5108 22.2371 17.5108 21.9392V21.4394C17.5108 21.1414 17.2692 20.8999 16.9713 20.8999Z" fill="black"/>
  <path d="M0.792996 18.96C0.651111 18.96 0.511924 19.0177 0.411579 19.118C0.311235 19.2184 0.25351 19.3576 0.25351 19.4994C0.25351 19.6419 0.311181 19.7805 0.411579 19.8809C0.511978 19.9812 0.651111 20.0389 0.792996 20.0389C0.934882 20.0389 1.07407 19.9812 1.17436 19.8809C1.2747 19.7805 1.33248 19.6413 1.33248 19.4994C1.33248 19.3576 1.27476 19.2184 1.17436 19.118C1.07407 19.0177 0.934882 18.96 0.792996 18.96Z" fill="black"/>
  </svg>
  