<svg width="23" height="23" viewBox="0 0 23 23" fill="none" xmlns="http://www.w3.org/2000/svg">
  <path d="M16.4546 8.0398L10.1521 15.2483C10.1155 15.2902 10.0721 15.3234 10.0243 15.3461C9.97646 15.3688 9.92521 15.3804 9.87344 15.3804C9.82168 15.3804 9.77042 15.3688 9.7226 15.3461C9.67478 15.3234 9.63134 15.2902 9.59475 15.2483L6.83742 12.0946C6.76351 12.01 6.72198 11.8954 6.72198 11.7758C6.72198 11.6563 6.76351 11.5416 6.83742 11.4571C6.91133 11.3725 7.01158 11.325 7.11611 11.325C7.22064 11.325 7.32088 11.3725 7.3948 11.4571L9.87344 14.2926L15.8972 7.40229C15.9711 7.31776 16.0714 7.27026 16.1759 7.27026C16.2804 7.27026 16.3807 7.31776 16.4546 7.40229C16.5285 7.48683 16.57 7.60149 16.57 7.72105C16.57 7.8406 16.5285 7.95526 16.4546 8.0398Z" fill="#F8F8F8"/>
  <circle cx="11.3563" cy="11.326" r="10.717" stroke="white" stroke-width="0.579297"/>
  </svg>
  