<svg width="24" height="24" viewBox="0 0 24 24" fill="none" xmlns="http://www.w3.org/2000/svg">
  <path d="M12.005 23.759C18.4407 23.759 23.6579 18.5418 23.6579 12.106C23.6579 5.67031 18.4407 0.453125 12.005 0.453125C5.56924 0.453125 0.352051 5.67031 0.352051 12.106C0.352051 18.5418 5.56924 23.759 12.005 23.759Z" fill="black"/>
  <path fill-rule="evenodd" clip-rule="evenodd" d="M9.42649 8.57629H6.42723C6.02488 8.57629 5.65918 8.90547 5.65918 9.34434V13.6603C5.65918 14.7577 6.53703 15.6354 7.63426 15.6354H13.9986C14.401 15.6354 14.7667 15.2697 14.7667 14.8307V10.5513C14.7667 9.45391 13.8888 8.57617 12.7916 8.57617H9.42649V8.57629ZM18.3511 14.8675C18.3511 15.5625 17.8391 15.6356 17.3269 15.1967L15.6444 13.697C15.2787 13.4043 15.2787 13.3678 15.2787 12.9289V11.2464C15.2787 10.8075 15.2787 10.7709 15.6444 10.4782L17.3269 8.97852C17.839 8.53965 18.3511 8.61281 18.3511 9.34434V14.8674V14.8675Z" fill="white"/>
  </svg>
  